<?xml version="1.0" encoding="UTF-8"?><svg id="Layer_2" xmlns="http://www.w3.org/2000/svg" viewBox="0 0 100 100"><defs><style>.cls-1{fill:#fff;stroke-width:0px;}</style></defs><g id="Layer_1-2"><path class="cls-1" d="m50,100C22.43,100,0,77.57,0,50S22.43,0,50,0s50,22.43,50,50-22.43,50-50,50Zm0-95.13C25.12,4.87,4.87,25.12,4.87,50s20.24,45.13,45.13,45.13,45.13-20.24,45.13-45.13S74.88,4.87,50,4.87ZM17.69,53.5c.15-.3.08-.65.2-1,.08.31.05.59.05.87,0,1.43.34,2.81.65,4.19.55,2.43,1.48,4.72,2.51,6.98.9,1.97,2.08,3.76,3.41,5.44,1.42,1.8,3,3.46,4.78,4.94,2.31,1.92,4.83,3.5,7.54,4.78.68.32,1.4.55,2.09.84.29.12.39.26.33.58-.17.93-.31,1.87-.46,2.81h.37c-.05-.21.12-.21.24-.25.21-.07.43-.12.63-.2,3.13-1.21,6.25-2.43,9.38-3.63.33-.12.16-.22.02-.33-.55-.45-1.11-.9-1.67-1.35-1.61-1.31-3.21-2.62-4.82-3.92-.7-.57-1.4-1.13-2.1-1.7-.18-.14-.37-.2-.37.12,0,.85-.21,1.66-.3,2.49-.03.31-.12.34-.39.24-1.42-.52-2.82-1.1-4.17-1.82-2.21-1.18-4.2-2.67-6.07-4.33-2.67-2.37-4.63-5.27-6.22-8.43-1.92-3.82-2.85-7.9-2.94-12.16-.05-2.4.21-4.77.72-7.12.7-3.21,1.98-6.17,3.66-8.97,1.46-2.44,3.28-4.59,5.37-6.52,3.18-2.93,6.8-5.08,10.94-6.36.54-.17,1.12-.25,1.59-.6-6.8,1.59-12.65,4.82-17.24,10.14-4.58,5.31-7.15,11.45-7.57,18.4-.08-.33,0-.76-.16-1.15v7.03Zm63.97-8.44c-.17.33-.03.71-.16,1.13-.12-.46-.07-.86-.1-1.25-.19-1.96-.63-3.86-1.2-5.74-1.13-3.73-2.89-7.16-5.29-10.22-2.66-3.4-5.82-6.26-9.6-8.4-1.57-.89-3.19-1.67-4.89-2.28-.16-.06-.3-.14-.29-.33.09-1.03.22-2.05.51-3.04h-.3c-.05.15-.19.18-.31.23-.58.21-1.16.43-1.73.65-2.73,1.04-5.46,2.09-8.19,3.13-.41.16-.41.22-.08.49.54.44,1.07.88,1.6,1.31,1.37,1.11,2.75,2.21,4.12,3.32.87.71,1.73,1.43,2.6,2.13.36.29.4.27.48-.16.13-.76.25-1.53.35-2.3.03-.25.09-.37.37-.27.77.3,1.55.58,2.31.9,2.18.92,4.17,2.17,6.04,3.63,1.74,1.36,3.33,2.87,4.68,4.61,1.45,1.86,2.73,3.83,3.72,5.99,1.64,3.58,2.53,7.33,2.68,11.25.07,1.9-.08,3.79-.37,5.67-.55,3.59-1.77,6.95-3.59,10.08-1.62,2.8-3.63,5.31-6.07,7.46-1.55,1.37-3.18,2.62-4.98,3.64-2.13,1.21-4.36,2.2-6.74,2.81-.15.04-.31.07-.39.23,6.77-1.57,12.55-4.85,17.13-10.12,4.58-5.28,7.08-11.43,7.6-18.43.05.18.01.34.11.47v-6.59Zm-9.3,2.07c.07.95.05,1.9.04,2.85,0,.76-.04,1.53-.05,2.29,0,.29-.12.4-.41.44-1.17.16-2.34.35-3.51.54-.22.03-.32.18-.39.39-.18.6-.41,1.19-.57,1.8-.33,1.21-.94,2.28-1.56,3.34-.13.23-.12.38.03.59.72,1.03,1.41,2.08,2.11,3.13.12.18.18.34-.01.52-1.21,1.2-2.4,2.41-3.61,3.61-.23.23-.48.56-.76.62-.28.06-.51-.32-.77-.5-.82-.57-1.63-1.16-2.44-1.75-.21-.16-.37-.13-.59.02-1.72,1.15-3.61,1.93-5.61,2.41-.45.11-.71.29-.79.77-.17,1.03-.4,2.06-.59,3.09-.1.52-.1.54-.64.54-1.81,0-3.63,0-5.44,0-.31,0-.43-.08-.5-.42-.22-1.14-.4-2.28-.55-3.43-.04-.31-.18-.43-.48-.5-2.34-.55-4.51-1.49-6.46-2.92-.24-.18-.43-.15-.67.01-.72.51-1.46,1.01-2.19,1.52-.23.16-.37.13-.57-.06-1.25-1.28-2.51-2.55-3.78-3.81-.49-.49-.51-.47-.11-1.05.54-.77,1.04-1.56,1.64-2.28.14-.17.16-.34.04-.54-.98-1.64-1.61-3.4-1.98-5.27-.06-.28-.18-.42-.47-.46-1.16-.18-2.29-.49-3.45-.63-.32-.04-.29-.25-.29-.45,0-1.43,0-2.86,0-4.29,0-.49,0-.99,0-1.48,0-.22.06-.32.3-.36,1.22-.18,2.43-.39,3.65-.59.22-.04.29-.2.35-.38.28-.87.51-1.75.87-2.59.52-1.23,1.16-2.4,1.89-3.51.2-.3.21-.51-.02-.82-.6-.81-1.14-1.67-1.73-2.49-.22-.32-.19-.54.1-.79,1.26-1.1,2.39-2.36,3.6-3.52.21-.2.38-.55.62-.6.25-.06.48.29.72.45.89.6,1.75,1.24,2.62,1.87.17.12.29.16.49.05,1.7-.96,3.51-1.63,5.43-1.99.32-.06.45-.19.49-.48.19-1.14.49-2.26.61-3.42.02-.22.13-.31.33-.32.26-.01.52-.02.78-.02,1.6,0,3.21,0,4.81,0,.63,0,.61,0,.7.62.15,1.07.34,2.14.48,3.22.05.4.27.57.62.67.96.27,1.9.62,2.82,1,.59.24,1.14.53,1.65.9.22.16.41.18.64.02,1.09-.74,2.19-1.48,3.28-2.21.08-.06.17-.11.24-.17.27-.22.47-.18.72.08,1.19,1.23,2.4,2.45,3.61,3.67.12.12.24.25.39.34.24.15.21.28.06.47-.86,1.11-1.67,2.27-2.48,3.41-.16.22-.16.39-.02.6,1.27,1.93,2.07,4.05,2.59,6.29.05.19.17.26.33.29,1.1.22,2.2.45,3.3.65.52.1.52.08.53.73,0,.1,0,.2-.01.3Zm-22.72,15.38c7.2.02,13.42-5.84,13.48-13.43.06-7.22-6.07-13.5-13.35-13.52-7.26-.02-13.67,5.89-13.53,13.76.13,7.41,6.2,13.15,13.4,13.19Zm-.01-2.55c-6.14-.16-10.78-4.78-10.83-10.8-.05-6.55,5.28-11.19,11.25-11.02,5.72.17,10.62,4.96,10.51,11.13-.11,6-4.92,10.64-10.92,10.69Zm-6.77-10.85c-.19,3.52,3.06,6.81,6.74,6.82,4.04,0,6.8-3.4,6.92-6.63.14-3.82-3.12-6.92-6.38-7.13-4.01-.25-7.52,3.25-7.28,6.94Z"/></g></svg>