<?xml version="1.0" encoding="UTF-8"?><svg id="Layer_2" xmlns="http://www.w3.org/2000/svg" viewBox="0 0 820 116.27"><defs><style>.cls-1{fill:#eb5d3e;}.cls-2{fill:#fff;}</style></defs><g id="Layer_1-2"><path class="cls-1" d="m819.33,10.54c-.44-1.41-1.08-2.73-1.89-3.93-.54-.8-1.15-1.54-1.83-2.22-.34-.34-.69-.66-1.07-.97-2.59-2.14-5.92-3.43-9.54-3.43H15c-3.62,0-6.95,1.29-9.54,3.43-.37.31-.73.63-1.07.97-.68.68-1.29,1.42-1.83,2.22-.81,1.2-1.45,2.52-1.89,3.93-.44,1.41-.67,2.91-.67,4.46h0v86.27h0c0,8.28,6.72,15,15,15h285s377,0,377,0h0s128,0,128,0c8.28,0,15-6.72,15-15h0V15h0c0-1.55-.24-3.05-.67-4.46ZM300,113.16V3.11h377v110.04h-377Z"/><path class="cls-2" d="m761.12,66.76c2.66-1.92,5.25-1.84,7.81.17.53-.39,1.02-.82,1.62-1.08,1.94-.84,3.81-.77,5.58.45.35.24.6.28,1.01.08,2.79-1.35,5.96-.45,7.53,2.22,2.38,4.02,4.71,8.06,7.02,12.12,1.04,1.82,1.71,3.76,1.91,5.89.33,3.55-.66,6.67-2.81,9.45-1.98,2.57-4.46,4.54-7.38,5.94-2.45,1.18-5.06,1.41-7.72,1.12-3.09-.33-5.95-1.4-8.66-2.87-3.16-1.72-6.44-3.16-9.71-4.63-2.07-.93-4.18-1.79-6.12-3.01-.69-.43-1.3-.95-1.86-1.52-1.41-1.43-1.7-3.14-1.15-5,.56-1.88,1.91-2.96,3.8-3.37,1.42-.31,2.85-.18,4.26.08.32.06.63.12,1,.2.04-.35-.16-.55-.29-.78-3.27-5.65-6.53-11.3-9.83-16.93-1.58-2.68-.75-6.06,1.81-7.67,2.57-1.62,6.09-.88,7.77,1.74,1.34,2.09,2.52,4.28,3.78,6.42.19.32.33.68.65.98Zm17.37,2.43c.02.25.18.45.31.66.78,1.35,1.56,2.69,2.34,4.04.62,1.08.5,1.95-.32,2.43-.86.5-1.68.17-2.33-.95-.24-.41-.47-.83-.71-1.24-.87-1.5-1.74-2.99-2.62-4.49-1.07-1.83-3.15-1.48-4.1-.46-.25.27-.35.49-.12.85.43.67.81,1.38,1.21,2.08.43.74.88,1.46,1.27,2.22.35.7.15,1.44-.43,1.89-.51.39-1.32.39-1.83,0-.26-.21-.43-.49-.59-.77-.53-.91-1.06-1.82-1.59-2.73-.57-.98-1.11-1.97-1.71-2.93-.95-1.53-2.93-1.83-4.14-.66-.3.29-.44.56-.16.97.35.52.63,1.08.94,1.63.46.81.95,1.6,1.38,2.42.38.74.13,1.56-.55,1.97-.7.43-1.55.24-2.06-.46-.09-.12-.16-.26-.23-.39-1.77-3.06-3.55-6.13-5.32-9.19-.94-1.63-1.87-3.27-2.84-4.88-.97-1.6-3.02-1.87-4.24-.59-.83.87-.92,2.05-.22,3.27,2.04,3.52,4.08,7.03,6.12,10.55,2.03,3.49,4.06,6.99,6.09,10.48.46.79.41,1.48-.09,2.02-.49.52-1.24.61-2.01.23-1.78-.87-3.67-1.33-5.62-1.57-.65-.08-1.31-.03-1.94.16-1.19.35-1.91,1.97-1.22,2.82.56.71,1.23,1.36,2.03,1.76,1.25.63,2.48,1.29,3.77,1.83,3.47,1.46,6.92,2.95,10.24,4.73,2.24,1.2,4.49,2.35,7,2.9,2.45.54,4.91.7,7.26-.28,3.44-1.43,6.18-3.73,8.02-6.99,1.04-1.84,1.48-3.85,1.15-5.95-.25-1.61-.85-3.14-1.68-4.57-1.76-3.01-3.5-6.04-5.25-9.06-.55-.96-1.09-1.92-1.68-2.86-.81-1.28-2.33-1.66-3.53-.91Zm-33.05-20.82c-.15-.37-.37-.71-.57-1.06-.82-1.41-1.62-2.83-2.47-4.23-.47-.77-1.29-.98-2.01-.58-.74.41-1.06,1.25-.64,1.99.99,1.78,2.03,3.52,3.06,5.27.26.44.71.62,1.14.64,1.14,0,1.88-1.04,1.49-2.04Zm-4.61,3.7c-1.86-.51-3.72-1.02-5.59-1.49-.95-.24-1.71.22-1.92,1.07-.21.86.25,1.58,1.2,1.86.53.16,1.06.29,1.6.43,1.33.35,2.66.73,4,1.04.99.23,1.84-.45,1.85-1.43,0-.73-.38-1.28-1.13-1.49Zm18.11-4.65c-1.76.95-3.5,1.96-5.22,2.98-.78.46-.96,1.35-.51,2.09.41.69,1.27.93,2.04.51,1.71-.95,3.4-1.93,5.09-2.91.48-.28.77-.71.76-1.3.02-1.13-1.14-1.92-2.15-1.38Zm-9.34,2.23c.68.12,1.44-.3,1.66-1.01.34-1.1.62-2.22.92-3.34.23-.85.47-1.69.66-2.55.14-.66-.18-1.29-.73-1.6-.56-.31-1.27-.22-1.76.21-.32.28-.44.67-.54,1.05-.46,1.72-.92,3.44-1.38,5.16-.04.17-.08.34-.11.45-.01.81.55,1.49,1.28,1.62Zm-9.16,8.37c-1.77.98-3.51,2.02-5.26,3.04-.12.07-.22.21-.3.33-.39.57-.35,1.3.09,1.81.46.54,1.23.72,1.91.34,1.73-.96,3.44-1.96,5.14-2.95.5-.29.71-.75.7-1.33-.02-1.17-1.2-1.84-2.28-1.25Zm44-23.62c0-10.01-8.15-18.16-18.16-18.16h-39.79c-10.01,0-18.16,8.15-18.16,18.16s8.15,18.16,18.16,18.16c.83,0,1.51-.67,1.51-1.51s-.67-1.51-1.51-1.51c-8.35,0-15.15-6.79-15.15-15.15s6.79-15.15,15.15-15.15h39.79c8.35,0,15.15,6.79,15.15,15.15s-6.79,15.15-15.15,15.15c-.83,0-1.51.67-1.51,1.51s.67,1.51,1.51,1.51c10.01,0,18.16-8.15,18.16-18.16Zm-65.21-3.79h2.02c.53,0,.98.05,1.35.15.38.1.72.28,1.02.55.8.68,1.2,1.72,1.2,3.11,0,.46-.04.88-.12,1.26-.08.38-.2.72-.37,1.03-.17.3-.38.58-.64.82-.2.18-.43.33-.67.44s-.51.19-.79.24-.6.07-.95.07h-2.02c-.28,0-.49-.04-.64-.13s-.24-.21-.28-.36-.07-.36-.07-.6v-5.62c0-.33.07-.58.22-.73.15-.15.39-.22.73-.22Zm.6,1.23v5.2h1.18c.26,0,.46,0,.61-.02.15-.01.3-.05.45-.1.16-.06.29-.13.41-.23.52-.44.78-1.19.78-2.27,0-.76-.11-1.32-.34-1.7-.23-.38-.51-.62-.84-.72-.33-.1-.74-.15-1.21-.15h-1.02Zm9.73-1.36c.79,0,1.48.16,2.05.48.57.32,1,.78,1.29,1.37s.44,1.29.44,2.09c0,.59-.08,1.13-.24,1.61-.16.48-.4.9-.72,1.26-.32.36-.71.63-1.18.82s-1,.28-1.6.28-1.14-.1-1.61-.29c-.47-.19-.87-.47-1.19-.82-.32-.35-.56-.78-.72-1.27-.16-.49-.24-1.03-.24-1.6s.08-1.13.25-1.62c.17-.49.41-.91.73-1.25.32-.34.71-.61,1.17-.79.46-.18.98-.27,1.57-.27Zm2.21,3.94c0-.56-.09-1.05-.27-1.46s-.44-.72-.78-.93c-.34-.21-.72-.32-1.16-.32-.31,0-.6.06-.86.18-.26.12-.49.29-.68.51s-.34.51-.45.85c-.11.35-.16.74-.16,1.17s.05.83.16,1.18c.11.35.26.64.47.88.2.23.43.4.69.52s.54.17.85.17c.4,0,.76-.1,1.09-.3.33-.2.6-.5.79-.92.2-.41.3-.92.3-1.53Zm4.92-3.01c1.19,1.81,1.79,2.71,2.98,4.51v-4.56c0-.3.06-.52.19-.67s.3-.22.51-.22.4.07.53.22.19.37.19.67v6.02c0,.67-.28,1.01-.84,1.01-.14,0-.26-.02-.38-.06-.11-.04-.22-.1-.31-.19-.1-.09-.19-.19-.27-.31-.08-.12-.17-.24-.25-.36-1.16-1.79-1.75-2.68-2.91-4.46v4.49c0,.29-.07.51-.2.66-.14.15-.31.22-.52.22s-.4-.08-.53-.23c-.13-.15-.2-.37-.2-.66v-5.91c0-.25.03-.45.08-.59.06-.16.18-.28.33-.38s.32-.15.5-.15c.14,0,.26.02.36.07.1.05.19.11.26.18s.15.18.23.3.16.25.24.38Zm10.87,5.99c-.15-.38-.22-.58-.37-.96h-3.11c-.15.39-.22.59-.37.98-.14.38-.26.64-.37.78-.1.13-.27.2-.5.2-.2,0-.37-.07-.52-.21-.15-.14-.22-.3-.22-.49,0-.1.02-.21.05-.32.03-.11.09-.27.17-.47.78-1.99,1.18-2.98,1.96-4.97.06-.14.12-.31.2-.51.08-.2.16-.37.25-.5.09-.13.21-.24.35-.32.14-.08.32-.12.54-.12s.4.04.54.12.26.19.35.32c.09.13.16.27.22.42.06.15.14.35.23.59.8,1.98,1.2,2.97,2,4.94.16.38.24.65.24.82s-.07.34-.22.49-.33.22-.54.22c-.12,0-.23-.02-.31-.07-.09-.04-.16-.1-.22-.18s-.12-.19-.19-.34c-.07-.16-.13-.29-.18-.41Zm-3.07-2.13h2.29c-.46-1.26-.69-1.9-1.15-3.16-.45,1.26-.68,1.9-1.13,3.16Zm9.9-3.39h-1.69v5.56c0,.32-.07.56-.21.71-.14.16-.33.23-.55.23s-.42-.08-.56-.24c-.14-.16-.22-.39-.22-.71v-5.56h-1.69c-.26,0-.46-.06-.59-.18-.13-.12-.19-.27-.19-.46s.07-.36.2-.47.33-.17.58-.17h4.93c.27,0,.47.06.6.18.13.12.2.27.2.47s-.07.35-.2.46-.33.18-.6.18Zm1.78,5.56v-6.04c0-.31.07-.55.21-.71.14-.16.33-.24.55-.24s.42.08.57.23.22.39.22.71v6.04c0,.32-.07.55-.22.71s-.33.24-.57.24-.41-.08-.55-.24c-.14-.16-.22-.39-.22-.71Zm6.66-6.98c.79,0,1.48.16,2.05.48.57.32,1,.78,1.29,1.37.29.59.44,1.29.44,2.09,0,.59-.08,1.13-.24,1.61-.16.48-.4.9-.72,1.26-.32.36-.71.63-1.18.82s-1,.28-1.6.28-1.14-.1-1.61-.29c-.47-.19-.87-.47-1.19-.82-.32-.35-.56-.78-.72-1.27-.16-.49-.24-1.03-.24-1.6s.08-1.13.25-1.62c.17-.49.41-.91.73-1.25.32-.34.71-.61,1.17-.79.46-.18.98-.27,1.57-.27Zm2.21,3.94c0-.56-.09-1.05-.27-1.46s-.44-.72-.78-.93c-.34-.21-.72-.32-1.16-.32-.31,0-.6.06-.86.18-.26.12-.49.29-.68.51s-.34.51-.45.85c-.11.35-.16.74-.16,1.17s.05.83.16,1.18c.11.35.26.64.47.88.2.23.43.4.69.52s.54.17.85.17c.4,0,.76-.1,1.09-.3.33-.2.6-.5.79-.92.2-.41.3-.92.3-1.53Zm4.92-3.01c1.19,1.81,1.79,2.71,2.98,4.51v-4.56c0-.3.06-.52.19-.67s.3-.22.51-.22.4.07.53.22.19.37.19.67v6.02c0,.67-.28,1.01-.84,1.01-.14,0-.26-.02-.38-.06-.11-.04-.22-.1-.31-.19-.1-.09-.19-.19-.27-.31-.08-.12-.17-.24-.25-.36-1.16-1.79-1.75-2.68-2.91-4.46v4.49c0,.29-.07.51-.2.66-.14.15-.31.22-.52.22s-.4-.08-.53-.23c-.13-.15-.2-.37-.2-.66v-5.91c0-.25.03-.45.08-.59.06-.16.18-.28.33-.38s.32-.15.5-.15c.14,0,.26.02.36.07.1.05.19.11.26.18s.15.18.23.3.16.25.24.38Z"/><path class="cls-2" d="m330.71,20.96h1.97c.99,3.07,1.48,4.61,2.47,7.68,1.02-3.08,1.53-4.63,2.55-7.71h1.54c1.02,3.08,1.53,4.63,2.55,7.71.99-3.07,1.48-4.61,2.47-7.68h1.91c-1.44,4.17-2.17,6.26-3.61,10.44h-1.57c-1.02-2.98-1.53-4.47-2.55-7.45-1.02,2.98-1.53,4.47-2.55,7.45h-1.57c-1.44-4.17-2.17-6.26-3.61-10.44Z"/><path class="cls-2" d="m346.44,27.44v-.03c0-2.24,1.58-4.07,3.82-4.07,2.49,0,3.74,1.95,3.74,4.2,0,.16-.01.33-.03.5h-5.74c.19,1.27,1.1,1.98,2.25,1.98.87,0,1.5-.33,2.12-.93.42.37.63.56,1.05.93-.74.89-1.76,1.47-3.2,1.47-2.26,0-4.01-1.64-4.01-4.06Zm5.79-.58c-.12-1.15-.8-2.06-1.98-2.06-1.1,0-1.86.84-2.03,2.06h4.01Z"/><path class="cls-2" d="m361.06,32.79c.27-.54.4-.81.67-1.35.83.52,1.72.83,2.78.83,1.6,0,2.47-.83,2.47-2.4v-.61c-.65.84-1.47,1.44-2.75,1.44-1.83,0-3.55-1.36-3.55-3.66v-.03c0-2.31,1.73-3.67,3.55-3.67,1.32,0,2.13.61,2.74,1.33v-1.17h1.79v6.22c0,1.32-.34,2.29-.99,2.95-.71.71-1.81,1.05-3.21,1.05-1.29,0-2.49-.33-3.49-.93Zm5.94-5.74v-.03c0-1.29-1.05-2.16-2.29-2.16s-2.22.86-2.22,2.15v.03c0,1.29.99,2.16,2.22,2.16s2.29-.89,2.29-2.15Z"/><path class="cls-2" d="m370.99,23.51h1.79v1.76c.49-1.17,1.39-1.97,2.77-1.91v1.89h-.1c-1.57,0-2.66,1.02-2.66,3.09v2.98h-1.79v-7.82Z"/><path class="cls-2" d="m376.41,27.44v-.03c0-2.24,1.58-4.07,3.82-4.07,2.49,0,3.74,1.95,3.74,4.2,0,.16-.01.33-.03.5h-5.74c.19,1.27,1.1,1.98,2.25,1.98.87,0,1.5-.33,2.12-.93.42.37.63.56,1.05.93-.74.89-1.76,1.47-3.2,1.47-2.26,0-4.01-1.64-4.01-4.06Zm5.79-.58c-.12-1.15-.8-2.06-1.98-2.06-1.1,0-1.86.84-2.03,2.06h4.01Z"/><path class="cls-2" d="m390.56,31.32v-.96c-.53.64-1.35,1.12-2.53,1.12-1.48,0-2.78-.84-2.78-2.41v-.03c0-1.73,1.35-2.56,3.17-2.56.95,0,1.55.13,2.16.33v-.15c0-1.08-.68-1.67-1.92-1.67-.87,0-1.52.19-2.23.49-.2-.57-.29-.86-.49-1.44.86-.38,1.7-.65,2.98-.65,2.31,0,3.43,1.21,3.43,3.3v4.63h-1.78Zm.04-3.27c-.46-.18-1.1-.31-1.79-.31-1.12,0-1.79.46-1.79,1.21v.03c0,.74.67,1.15,1.51,1.15,1.18,0,2.07-.67,2.07-1.64v-.44Z"/><path class="cls-2" d="m394.76,29.16v-4.11h-.99v-1.54h.99v-2.15h1.79v2.15h2.1v1.54h-2.1v3.83c0,.7.36.98.96.98.4,0,.75-.09,1.11-.27v1.47c-.44.25-.95.4-1.61.4-1.32,0-2.25-.58-2.25-2.29Z"/><path class="cls-2" d="m400.57,20.52h1.79v10.81h-1.79v-10.81Z"/><path class="cls-2" d="m404.44,33.26c.24-.53.36-.8.61-1.33.33.18.68.3,1.05.3.5,0,.81-.22,1.11-.9-1.3-3.13-1.95-4.69-3.26-7.82h1.91c.89,2.32,1.33,3.48,2.22,5.8.81-2.32,1.22-3.48,2.03-5.8h1.86c-1.24,3.22-1.86,4.82-3.11,8.04-.62,1.6-1.32,2.19-2.58,2.19-.75,0-1.3-.18-1.85-.47Z"/><path class="cls-2" d="m423.57,31.32v-.96c-.53.64-1.35,1.12-2.53,1.12-1.48,0-2.78-.84-2.78-2.41v-.03c0-1.73,1.35-2.56,3.17-2.56.95,0,1.55.13,2.16.33v-.15c0-1.08-.68-1.67-1.92-1.67-.87,0-1.52.19-2.23.49-.2-.57-.29-.86-.49-1.44.86-.38,1.7-.65,2.98-.65,2.31,0,3.43,1.21,3.43,3.3v4.63h-1.78Zm.04-3.27c-.46-.18-1.1-.31-1.79-.31-1.12,0-1.79.46-1.79,1.21v.03c0,.74.67,1.15,1.51,1.15,1.18,0,2.07-.67,2.07-1.64v-.44Z"/><path class="cls-2" d="m427.47,23.51h1.79v1.3c.58-.81,1.39-1.47,2.65-1.47,1.85,0,3.64,1.47,3.64,4.06v.03c0,2.59-1.78,4.06-3.64,4.06-1.29,0-2.1-.65-2.65-1.38v3.58h-1.79v-10.18Zm6.26,3.92v-.03c0-1.51-1.02-2.5-2.23-2.5s-2.28,1.01-2.28,2.5v.03c0,1.51,1.07,2.5,2.28,2.5s2.23-.96,2.23-2.5Z"/><path class="cls-2" d="m437.39,23.51h1.79v1.3c.58-.81,1.39-1.47,2.65-1.47,1.85,0,3.64,1.47,3.64,4.06v.03c0,2.59-1.78,4.06-3.64,4.06-1.29,0-2.1-.65-2.65-1.38v3.58h-1.79v-10.18Zm6.26,3.92v-.03c0-1.51-1.02-2.5-2.23-2.5s-2.28,1.01-2.28,2.5v.03c0,1.51,1.07,2.5,2.28,2.5s2.23-.96,2.23-2.5Z"/><path class="cls-2" d="m447.31,23.51h1.79v1.76c.49-1.17,1.39-1.97,2.77-1.91v1.89h-.1c-1.57,0-2.66,1.02-2.66,3.09v2.98h-1.79v-7.82Z"/><path class="cls-2" d="m453.45,20.61h1.92v1.7h-1.92v-1.7Zm.07,2.9h1.79v7.82h-1.79v-7.82Z"/><path class="cls-2" d="m457.23,27.46v-.03c0-2.22,1.72-4.09,4.06-4.09,1.48,0,2.4.55,3.12,1.35-.44.48-.67.72-1.11,1.2-.55-.58-1.12-.98-2.03-.98-1.3,0-2.25,1.12-2.25,2.49v.03c0,1.39.96,2.52,2.34,2.52.84,0,1.47-.4,2.03-.98.43.43.65.64,1.08,1.07-.77.86-1.67,1.47-3.2,1.47-2.32,0-4.04-1.82-4.04-4.04Z"/><path class="cls-2" d="m466.14,20.61h1.92v1.7h-1.92v-1.7Zm.07,2.9h1.79v7.82h-1.79v-7.82Z"/><path class="cls-2" d="m475.13,31.32v-.96c-.53.64-1.35,1.12-2.53,1.12-1.48,0-2.78-.84-2.78-2.41v-.03c0-1.73,1.35-2.56,3.17-2.56.95,0,1.55.13,2.16.33v-.15c0-1.08-.68-1.67-1.92-1.67-.87,0-1.52.19-2.23.49-.2-.57-.29-.86-.49-1.44.86-.38,1.7-.65,2.98-.65,2.31,0,3.43,1.21,3.43,3.3v4.63h-1.78Zm.04-3.27c-.46-.18-1.1-.31-1.79-.31-1.12,0-1.79.46-1.79,1.21v.03c0,.74.67,1.15,1.51,1.15,1.18,0,2.07-.67,2.07-1.64v-.44Z"/><path class="cls-2" d="m479.33,29.16v-4.11h-.99v-1.54h.99v-2.15h1.79v2.15h2.1v1.54h-2.1v3.83c0,.7.36.98.96.98.4,0,.75-.09,1.11-.27v1.47c-.44.25-.95.4-1.61.4-1.32,0-2.25-.58-2.25-2.29Z"/><path class="cls-2" d="m484.38,27.44v-.03c0-2.24,1.58-4.07,3.82-4.07,2.49,0,3.74,1.95,3.74,4.2,0,.16-.01.33-.03.5h-5.74c.19,1.27,1.1,1.98,2.25,1.98.87,0,1.5-.33,2.12-.93.42.37.63.56,1.05.93-.74.89-1.76,1.47-3.2,1.47-2.26,0-4.01-1.64-4.01-4.06Zm5.79-.58c-.12-1.15-.8-2.06-1.98-2.06-1.1,0-1.86.84-2.03,2.06h4.01Z"/><path class="cls-2" d="m503.79,31.32v-.96c-.53.64-1.35,1.12-2.53,1.12-1.48,0-2.78-.84-2.78-2.41v-.03c0-1.73,1.35-2.56,3.17-2.56.95,0,1.55.13,2.16.33v-.15c0-1.08-.68-1.67-1.92-1.67-.87,0-1.52.19-2.23.49-.2-.57-.29-.86-.49-1.44.86-.38,1.7-.65,2.98-.65,2.31,0,3.43,1.21,3.43,3.3v4.63h-1.78Zm.04-3.27c-.46-.18-1.1-.31-1.79-.31-1.12,0-1.79.46-1.79,1.21v.03c0,.74.67,1.15,1.51,1.15,1.18,0,2.07-.67,2.07-1.64v-.44Z"/><path class="cls-2" d="m507.81,20.52h1.79v10.81h-1.79v-10.81Z"/><path class="cls-2" d="m512.04,20.52h1.79v10.81h-1.79v-10.81Z"/><path class="cls-2" d="m521.04,27.43v-.03c0-2.59,1.76-4.06,3.63-4.06,1.29,0,2.1.65,2.66,1.38v-4.2h1.79v10.81h-1.79v-1.3c-.58.81-1.39,1.47-2.66,1.47-1.84,0-3.63-1.47-3.63-4.06Zm6.32,0v-.03c0-1.51-1.07-2.5-2.26-2.5s-2.25.95-2.25,2.5v.03c0,1.51,1.04,2.5,2.25,2.5s2.26-1.01,2.26-2.5Z"/><path class="cls-2" d="m530.93,27.46v-.03c0-2.24,1.78-4.09,4.17-4.09s4.16,1.82,4.16,4.06v.03c0,2.22-1.78,4.07-4.19,4.07s-4.14-1.82-4.14-4.04Zm6.54,0v-.03c0-1.38-.99-2.52-2.4-2.52s-2.35,1.12-2.35,2.49v.03c0,1.36.99,2.52,2.38,2.52s2.37-1.14,2.37-2.49Z"/><path class="cls-2" d="m541.08,23.51h1.79v1.21c.5-.74,1.23-1.38,2.44-1.38,1.76,0,2.78,1.18,2.78,3v4.97h-1.79v-4.44c0-1.21-.61-1.91-1.67-1.91s-1.76.73-1.76,1.94v4.41h-1.79v-7.82Z"/><path class="cls-2" d="m555.04,31.32v-.96c-.53.64-1.35,1.12-2.53,1.12-1.48,0-2.78-.84-2.78-2.41v-.03c0-1.73,1.35-2.56,3.17-2.56.95,0,1.55.13,2.16.33v-.15c0-1.08-.68-1.67-1.92-1.67-.87,0-1.52.19-2.23.49-.2-.57-.29-.86-.49-1.44.86-.38,1.7-.65,2.98-.65,2.31,0,3.43,1.21,3.43,3.3v4.63h-1.78Zm.04-3.27c-.46-.18-1.1-.31-1.79-.31-1.12,0-1.79.46-1.79,1.21v.03c0,.74.67,1.15,1.51,1.15,1.18,0,2.07-.67,2.07-1.64v-.44Z"/><path class="cls-2" d="m559.24,29.16v-4.11h-.99v-1.54h.99v-2.15h1.79v2.15h2.1v1.54h-2.1v3.83c0,.7.36.98.96.98.4,0,.75-.09,1.11-.27v1.47c-.44.25-.95.4-1.61.4-1.32,0-2.25-.58-2.25-2.29Z"/><path class="cls-2" d="m564.97,20.61h1.92v1.7h-1.92v-1.7Zm.07,2.9h1.79v7.82h-1.79v-7.82Z"/><path class="cls-2" d="m568.75,27.46v-.03c0-2.24,1.78-4.09,4.17-4.09s4.16,1.82,4.16,4.06v.03c0,2.22-1.78,4.07-4.19,4.07s-4.14-1.82-4.14-4.04Zm6.54,0v-.03c0-1.38-.99-2.52-2.4-2.52s-2.35,1.12-2.35,2.49v.03c0,1.36.99,2.52,2.38,2.52s2.37-1.14,2.37-2.49Z"/><path class="cls-2" d="m578.9,23.51h1.79v1.21c.5-.74,1.23-1.38,2.44-1.38,1.76,0,2.78,1.18,2.78,3v4.97h-1.79v-4.44c0-1.21-.61-1.91-1.67-1.91s-1.76.73-1.76,1.94v4.41h-1.79v-7.82Z"/><path class="cls-2" d="m587.44,30.3c.32-.49.48-.73.8-1.21.84.64,1.76.96,2.56.96s1.21-.33,1.21-.84v-.03c0-.61-.84-.83-1.75-1.1-1.14-.33-2.44-.8-2.44-2.29v-.03c0-1.48,1.23-2.38,2.78-2.38.98,0,2.04.34,2.87.89-.28.51-.43.76-.71,1.27-.75-.46-1.55-.74-2.21-.74-.7,0-1.1.33-1.1.78v.03c0,.56.85.81,1.76,1.1,1.13.36,2.43.87,2.43,2.28v.03c0,1.64-1.27,2.46-2.9,2.46-1.11,0-2.34-.4-3.32-1.17Z"/><path class="cls-2" d="m594.86,32.71c.9-.18,1.33-.64,1.26-1.39h-.75v-2.03h1.97v1.72c0,1.64-.78,2.34-2.28,2.46-.08-.3-.12-.45-.19-.75Z"/><path class="cls-2" d="m604.3,27.44v-.03c0-2.24,1.58-4.07,3.82-4.07,2.49,0,3.74,1.95,3.74,4.2,0,.16-.01.33-.03.5h-5.74c.19,1.27,1.1,1.98,2.25,1.98.87,0,1.5-.33,2.12-.93.42.37.63.56,1.05.93-.74.89-1.76,1.47-3.2,1.47-2.26,0-4.01-1.64-4.01-4.06Zm5.79-.58c-.12-1.15-.8-2.06-1.98-2.06-1.1,0-1.86.84-2.03,2.06h4.01Z"/><path class="cls-2" d="m612.56,23.51h1.92c.84,2.3,1.26,3.45,2.1,5.74.85-2.3,1.27-3.45,2.12-5.74h1.88c-1.28,3.15-1.92,4.72-3.2,7.87h-1.61c-1.28-3.15-1.93-4.72-3.21-7.87Z"/><path class="cls-2" d="m621.23,27.44v-.03c0-2.24,1.58-4.07,3.82-4.07,2.49,0,3.74,1.95,3.74,4.2,0,.16-.01.33-.03.5h-5.74c.19,1.27,1.1,1.98,2.25,1.98.87,0,1.5-.33,2.12-.93.42.37.63.56,1.05.93-.74.89-1.76,1.47-3.2,1.47-2.26,0-4.01-1.64-4.01-4.06Zm5.79-.58c-.12-1.15-.8-2.06-1.98-2.06-1.1,0-1.86.84-2.03,2.06h4.01Z"/><path class="cls-2" d="m630.6,23.51h1.79v1.76c.49-1.17,1.39-1.97,2.77-1.91v1.89h-.1c-1.57,0-2.66,1.02-2.66,3.09v2.98h-1.79v-7.82Z"/><path class="cls-2" d="m636.47,33.26c.24-.53.36-.8.61-1.33.33.18.68.3,1.05.3.5,0,.81-.22,1.11-.9-1.3-3.13-1.95-4.69-3.26-7.82h1.91c.89,2.32,1.33,3.48,2.22,5.8.81-2.32,1.22-3.48,2.03-5.8h1.86c-1.24,3.22-1.86,4.82-3.11,8.04-.62,1.6-1.32,2.19-2.58,2.19-.75,0-1.3-.18-1.85-.47Z"/><path class="cls-2" d="m348.74,41.27h1.79v1.3c.58-.81,1.39-1.46,2.65-1.46,1.85,0,3.64,1.46,3.64,4.06v.03c0,2.59-1.78,4.06-3.64,4.06-1.29,0-2.1-.65-2.65-1.38v3.58h-1.79v-10.18Zm6.26,3.92v-.03c0-1.51-1.02-2.5-2.23-2.5s-2.28,1.01-2.28,2.5v.03c0,1.51,1.07,2.5,2.28,2.5s2.23-.96,2.23-2.5Z"/><path class="cls-2" d="m358.23,45.21v-.03c0-2.24,1.58-4.07,3.82-4.07,2.49,0,3.74,1.95,3.74,4.2,0,.16-.01.33-.03.5h-5.74c.19,1.27,1.1,1.98,2.25,1.98.87,0,1.5-.33,2.12-.93.42.37.63.56,1.05.93-.74.89-1.76,1.47-3.2,1.47-2.26,0-4.01-1.64-4.01-4.06Zm5.79-.58c-.12-1.15-.8-2.06-1.98-2.06-1.1,0-1.86.84-2.03,2.06h4.01Z"/><path class="cls-2" d="m367.6,41.27h1.79v1.21c.5-.74,1.23-1.38,2.44-1.38,1.76,0,2.78,1.18,2.78,3v4.97h-1.79v-4.44c0-1.21-.61-1.91-1.67-1.91s-1.76.73-1.76,1.94v4.41h-1.79v-7.82Z"/><path class="cls-2" d="m376.78,41.27h1.79v1.21c.5-.74,1.23-1.38,2.44-1.38,1.76,0,2.78,1.18,2.78,3v4.97h-1.79v-4.44c0-1.21-.61-1.91-1.67-1.91s-1.76.73-1.76,1.94v4.41h-1.79v-7.82Z"/><path class="cls-2" d="m385.48,51.03c.24-.53.36-.8.61-1.33.33.18.68.3,1.05.3.5,0,.81-.22,1.11-.9-1.3-3.13-1.95-4.69-3.26-7.82h1.91c.89,2.32,1.33,3.48,2.22,5.8.81-2.32,1.22-3.48,2.03-5.8h1.86c-1.24,3.21-1.86,4.82-3.11,8.04-.62,1.6-1.32,2.19-2.58,2.19-.75,0-1.3-.18-1.85-.47Z"/><path class="cls-2" d="m398.35,41.27h1.84c.63,2.14.94,3.21,1.57,5.36.69-2.16,1.04-3.23,1.73-5.39h1.52c.7,2.16,1.05,3.23,1.75,5.39.64-2.14.96-3.21,1.6-5.36h1.79c-1.02,3.15-1.54,4.72-2.56,7.87h-1.6c-.7-2.14-1.05-3.21-1.75-5.34-.7,2.14-1.06,3.21-1.76,5.34h-1.6c-1.01-3.15-1.52-4.72-2.53-7.87Z"/><path class="cls-2" d="m411.77,38.37h1.92v1.7h-1.92v-1.7Zm.07,2.9h1.79v7.82h-1.79v-7.82Z"/><path class="cls-2" d="m416.08,38.28h1.79v10.81h-1.79v-10.81Z"/><path class="cls-2" d="m420.31,38.28h1.79v10.81h-1.79v-10.81Z"/><path class="cls-2" d="m428.87,50.55c.27-.54.4-.81.67-1.35.83.52,1.72.83,2.78.83,1.6,0,2.47-.83,2.47-2.4v-.61c-.65.84-1.46,1.44-2.75,1.44-1.83,0-3.55-1.36-3.55-3.66v-.03c0-2.31,1.73-3.67,3.55-3.67,1.32,0,2.13.61,2.74,1.33v-1.17h1.79v6.22c0,1.32-.34,2.29-.99,2.95-.71.71-1.81,1.05-3.21,1.05-1.29,0-2.49-.33-3.49-.93Zm5.94-5.74v-.03c0-1.29-1.05-2.16-2.29-2.16s-2.22.86-2.22,2.15v.03c0,1.29.99,2.16,2.22,2.16s2.29-.89,2.29-2.15Z"/><path class="cls-2" d="m438.37,45.22v-.03c0-2.24,1.78-4.09,4.17-4.09s4.16,1.82,4.16,4.06v.03c0,2.22-1.78,4.07-4.19,4.07s-4.14-1.82-4.14-4.04Zm6.54,0v-.03c0-1.38-.99-2.52-2.4-2.52s-2.35,1.12-2.35,2.49v.03c0,1.36.99,2.52,2.38,2.52s2.37-1.14,2.37-2.49Z"/><path class="cls-2" d="m453.34,46.93v-4.11h-.99v-1.54h.99v-2.15h1.79v2.15h2.1v1.54h-2.1v3.83c0,.7.36.98.96.98.4,0,.75-.09,1.11-.27v1.47c-.44.25-.95.4-1.61.4-1.32,0-2.25-.58-2.25-2.29Z"/><path class="cls-2" d="m458.39,45.22v-.03c0-2.24,1.78-4.09,4.17-4.09s4.16,1.82,4.16,4.06v.03c0,2.22-1.78,4.07-4.19,4.07s-4.14-1.82-4.14-4.04Zm6.54,0v-.03c0-1.38-.99-2.52-2.4-2.52s-2.35,1.12-2.35,2.49v.03c0,1.36.99,2.52,2.38,2.52s2.37-1.14,2.37-2.49Z"/><path class="cls-2" d="m473.38,42.81h-.99v-1.5h.99v-.56c0-.87.22-1.52.64-1.94.41-.41.99-.62,1.76-.62.62,0,1.05.09,1.45.21v1.51c-.35-.12-.67-.19-1.05-.19-.68,0-1.04.37-1.04,1.18v.43h2.07v1.48h-2.04v6.28h-1.79v-6.28Z"/><path class="cls-2" d="m478.46,46.24v-4.97h1.79v4.44c0,1.21.61,1.91,1.67,1.91s1.76-.73,1.76-1.94v-4.41h1.79v7.82h-1.79v-1.21c-.5.74-1.23,1.38-2.44,1.38-1.76,0-2.78-1.18-2.78-3Z"/><path class="cls-2" d="m487.73,41.27h1.79v1.21c.5-.74,1.23-1.38,2.44-1.38,1.76,0,2.78,1.18,2.78,3v4.97h-1.79v-4.44c0-1.21-.61-1.91-1.67-1.91s-1.76.73-1.76,1.94v4.41h-1.79v-7.82Z"/><path class="cls-2" d="m496.51,45.19v-.03c0-2.59,1.76-4.06,3.63-4.06,1.29,0,2.1.65,2.66,1.38v-4.2h1.79v10.81h-1.79v-1.3c-.58.81-1.39,1.47-2.66,1.47-1.84,0-3.63-1.47-3.63-4.06Zm6.32,0v-.03c0-1.51-1.07-2.5-2.26-2.5s-2.25.95-2.25,2.5v.03c0,1.51,1.04,2.5,2.25,2.5s2.26-1.01,2.26-2.5Z"/><path class="cls-2" d="m506.85,38.37h1.92v1.7h-1.92v-1.7Zm.07,2.9h1.79v7.82h-1.79v-7.82Z"/><path class="cls-2" d="m511.06,41.27h1.79v1.21c.5-.74,1.23-1.38,2.44-1.38,1.76,0,2.78,1.18,2.78,3v4.97h-1.79v-4.44c0-1.21-.61-1.91-1.67-1.91s-1.76.73-1.76,1.94v4.41h-1.79v-7.82Z"/><path class="cls-2" d="m520.22,50.55c.27-.54.4-.81.67-1.35.83.52,1.72.83,2.78.83,1.6,0,2.47-.83,2.47-2.4v-.61c-.65.84-1.46,1.44-2.75,1.44-1.83,0-3.55-1.36-3.55-3.66v-.03c0-2.31,1.73-3.67,3.55-3.67,1.32,0,2.13.61,2.74,1.33v-1.17h1.79v6.22c0,1.32-.34,2.29-.99,2.95-.71.71-1.81,1.05-3.21,1.05-1.29,0-2.49-.33-3.49-.93Zm5.94-5.74v-.03c0-1.29-1.05-2.16-2.29-2.16s-2.22.86-2.22,2.15v.03c0,1.29.99,2.16,2.22,2.16s2.29-.89,2.29-2.15Z"/><path class="cls-2" d="m534.16,45.22v-.03c0-2.24,1.78-4.09,4.17-4.09s4.16,1.82,4.16,4.06v.03c0,2.22-1.78,4.07-4.19,4.07s-4.14-1.82-4.14-4.04Zm6.54,0v-.03c0-1.38-.99-2.52-2.4-2.52s-2.35,1.12-2.35,2.49v.03c0,1.36.99,2.52,2.38,2.52s2.37-1.14,2.37-2.49Z"/><path class="cls-2" d="m544.23,46.24v-4.97h1.79v4.44c0,1.21.61,1.91,1.67,1.91s1.76-.73,1.76-1.94v-4.41h1.79v7.82h-1.79v-1.21c-.5.74-1.23,1.38-2.44,1.38-1.76,0-2.78-1.18-2.78-3Z"/><path class="cls-2" d="m553.5,41.27h1.79v1.76c.49-1.17,1.39-1.97,2.77-1.91v1.89h-.1c-1.57,0-2.66,1.02-2.66,3.09v2.98h-1.79v-7.82Z"/><path class="cls-2" d="m563.41,48.07c.32-.49.48-.73.8-1.21.84.64,1.76.96,2.56.96s1.21-.33,1.21-.84v-.03c0-.61-.84-.83-1.75-1.1-1.14-.33-2.44-.8-2.44-2.29v-.03c0-1.48,1.23-2.38,2.78-2.38.98,0,2.04.34,2.87.89-.28.51-.43.76-.71,1.27-.75-.46-1.55-.74-2.21-.74-.7,0-1.1.33-1.1.78v.03c0,.56.85.81,1.76,1.1,1.13.36,2.43.87,2.43,2.28v.03c0,1.64-1.27,2.46-2.9,2.46-1.11,0-2.34-.4-3.32-1.17Z"/><path class="cls-2" d="m571.02,45.21v-.03c0-2.24,1.58-4.07,3.82-4.07,2.49,0,3.74,1.95,3.74,4.2,0,.16-.01.33-.03.5h-5.74c.19,1.27,1.1,1.98,2.25,1.98.87,0,1.5-.33,2.12-.93.42.37.63.56,1.05.93-.74.89-1.76,1.47-3.2,1.47-2.26,0-4.01-1.64-4.01-4.06Zm5.79-.58c-.12-1.15-.8-2.06-1.98-2.06-1.1,0-1.86.84-2.03,2.06h4.01Z"/><path class="cls-2" d="m580.39,41.27h1.79v1.76c.49-1.17,1.39-1.97,2.77-1.91v1.89h-.1c-1.57,0-2.66,1.02-2.66,3.09v2.98h-1.79v-7.82Z"/><path class="cls-2" d="m585.77,41.27h1.92c.84,2.3,1.26,3.45,2.1,5.74.85-2.3,1.27-3.45,2.12-5.74h1.88c-1.28,3.15-1.92,4.72-3.2,7.87h-1.61c-1.28-3.15-1.93-4.72-3.21-7.87Z"/><path class="cls-2" d="m595.34,38.37h1.92v1.7h-1.92v-1.7Zm.07,2.9h1.79v7.82h-1.79v-7.82Z"/><path class="cls-2" d="m599.12,45.22v-.03c0-2.22,1.72-4.09,4.06-4.09,1.48,0,2.4.55,3.12,1.35-.44.48-.67.72-1.11,1.2-.55-.58-1.12-.98-2.03-.98-1.3,0-2.25,1.12-2.25,2.49v.03c0,1.39.96,2.52,2.34,2.52.84,0,1.47-.4,2.03-.98.43.43.65.64,1.08,1.07-.77.86-1.67,1.47-3.2,1.47-2.32,0-4.04-1.82-4.04-4.04Z"/><path class="cls-2" d="m607.35,45.21v-.03c0-2.24,1.58-4.07,3.82-4.07,2.49,0,3.74,1.95,3.74,4.2,0,.16-.01.33-.03.5h-5.74c.19,1.27,1.1,1.98,2.25,1.98.87,0,1.5-.33,2.12-.93.42.37.63.56,1.05.93-.74.89-1.76,1.47-3.2,1.47-2.26,0-4.01-1.64-4.01-4.06Zm5.79-.58c-.12-1.15-.8-2.06-1.98-2.06-1.1,0-1.86.84-2.03,2.06h4.01Z"/><path class="cls-2" d="m616.08,48.07c.32-.49.48-.73.8-1.21.84.64,1.76.96,2.56.96s1.21-.33,1.21-.84v-.03c0-.61-.84-.83-1.75-1.1-1.14-.33-2.44-.8-2.44-2.29v-.03c0-1.48,1.23-2.38,2.78-2.38.98,0,2.04.34,2.87.89-.28.51-.43.76-.71,1.27-.75-.46-1.55-.74-2.21-.74-.7,0-1.1.33-1.1.78v.03c0,.56.85.81,1.76,1.1,1.13.36,2.43.87,2.43,2.28v.03c0,1.64-1.27,2.46-2.9,2.46-1.11,0-2.34-.4-3.32-1.17Z"/><path class="cls-2" d="m624,47.06h1.97v2.03h-1.97v-2.03Z"/><path class="cls-2" d="m334.06,64.91h-3.29v-1.69h8.41v1.69h-3.29v8.67h-1.84v-8.67Z"/><path class="cls-2" d="m340.75,62.78h1.79v4.2c.5-.74,1.23-1.38,2.44-1.38,1.76,0,2.78,1.18,2.78,3v4.97h-1.79v-4.44c0-1.21-.61-1.91-1.67-1.91s-1.76.73-1.76,1.94v4.41h-1.79v-10.81Z"/><path class="cls-2" d="m354.71,73.58v-.96c-.53.64-1.35,1.12-2.53,1.12-1.48,0-2.78-.84-2.78-2.41v-.03c0-1.73,1.35-2.56,3.17-2.56.95,0,1.55.13,2.16.33v-.15c0-1.08-.68-1.67-1.92-1.67-.87,0-1.52.19-2.23.49-.2-.57-.29-.86-.49-1.44.86-.38,1.7-.65,2.98-.65,2.31,0,3.43,1.21,3.43,3.3v4.63h-1.78Zm.04-3.27c-.46-.18-1.1-.31-1.79-.31-1.12,0-1.79.46-1.79,1.21v.03c0,.74.67,1.15,1.51,1.15,1.18,0,2.07-.67,2.07-1.64v-.44Z"/><path class="cls-2" d="m358.62,65.77h1.79v1.21c.5-.74,1.23-1.38,2.44-1.38,1.76,0,2.78,1.18,2.78,3v4.97h-1.79v-4.44c0-1.21-.61-1.91-1.67-1.91s-1.76.73-1.76,1.94v4.41h-1.79v-7.82Z"/><path class="cls-2" d="m367.8,62.78h1.79v6.45c1.3-1.39,1.94-2.08,3.24-3.46h2.18c-1.24,1.27-1.87,1.91-3.11,3.18,1.28,1.85,1.93,2.78,3.21,4.63h-2.07c-.94-1.35-1.41-2.02-2.35-3.37-.44.46-.66.68-1.1,1.14v2.24h-1.79v-10.81Z"/><path class="cls-2" d="m383.98,75.52c.24-.53.36-.8.61-1.33.33.18.68.3,1.05.3.5,0,.81-.22,1.11-.9-1.3-3.13-1.95-4.69-3.26-7.82h1.91c.89,2.32,1.33,3.48,2.22,5.8.81-2.32,1.22-3.48,2.03-5.8h1.87c-1.24,3.22-1.87,4.82-3.11,8.04-.62,1.6-1.32,2.19-2.58,2.19-.75,0-1.3-.18-1.85-.47Z"/><path class="cls-2" d="m392.18,69.72v-.03c0-2.24,1.78-4.09,4.17-4.09s4.16,1.82,4.16,4.06v.03c0,2.22-1.78,4.07-4.19,4.07s-4.14-1.82-4.14-4.04Zm6.54,0v-.03c0-1.38-.99-2.52-2.4-2.52s-2.35,1.12-2.35,2.49v.03c0,1.36.99,2.52,2.38,2.52s2.37-1.14,2.37-2.49Z"/><path class="cls-2" d="m402.25,70.74v-4.97h1.79v4.44c0,1.21.61,1.91,1.67,1.91s1.76-.73,1.76-1.94v-4.41h1.79v7.82h-1.79v-1.21c-.5.74-1.23,1.38-2.44,1.38-1.76,0-2.78-1.18-2.78-3Z"/><path class="cls-2" d="m419.74,67.3h-.99v-1.49h.99v-.56c0-.87.22-1.52.64-1.94.41-.41.99-.62,1.76-.62.62,0,1.05.09,1.45.21v1.51c-.35-.12-.67-.19-1.05-.19-.68,0-1.04.37-1.04,1.18v.43h2.07v1.48h-2.04v6.28h-1.79v-6.28Z"/><path class="cls-2" d="m424.33,69.72v-.03c0-2.24,1.78-4.09,4.17-4.09s4.16,1.82,4.16,4.06v.03c0,2.22-1.78,4.07-4.19,4.07s-4.14-1.82-4.14-4.04Zm6.54,0v-.03c0-1.38-.99-2.52-2.4-2.52s-2.35,1.12-2.35,2.49v.03c0,1.36.99,2.52,2.38,2.52s2.37-1.14,2.37-2.49Z"/><path class="cls-2" d="m434.48,65.77h1.79v1.76c.49-1.17,1.39-1.97,2.77-1.91v1.89h-.1c-1.57,0-2.66,1.02-2.66,3.09v2.98h-1.79v-7.82Z"/><path class="cls-2" d="m448.17,75.52c.24-.53.36-.8.61-1.33.33.18.68.3,1.05.3.5,0,.81-.22,1.11-.9-1.3-3.13-1.95-4.69-3.26-7.82h1.91c.89,2.32,1.33,3.48,2.22,5.8.81-2.32,1.22-3.48,2.03-5.8h1.87c-1.24,3.22-1.86,4.82-3.11,8.04-.62,1.6-1.32,2.19-2.58,2.19-.75,0-1.3-.18-1.85-.47Z"/><path class="cls-2" d="m456.37,69.72v-.03c0-2.24,1.78-4.09,4.17-4.09s4.16,1.82,4.16,4.06v.03c0,2.22-1.78,4.07-4.19,4.07s-4.14-1.82-4.14-4.04Zm6.54,0v-.03c0-1.38-.99-2.52-2.4-2.52s-2.35,1.12-2.35,2.49v.03c0,1.36.99,2.52,2.38,2.52s2.37-1.14,2.37-2.49Z"/><path class="cls-2" d="m466.43,70.74v-4.97h1.79v4.44c0,1.21.61,1.91,1.67,1.91s1.76-.73,1.76-1.94v-4.41h1.79v7.82h-1.79v-1.21c-.5.74-1.23,1.38-2.44,1.38-1.76,0-2.78-1.18-2.78-3Z"/><path class="cls-2" d="m475.7,65.77h1.79v1.76c.49-1.17,1.39-1.97,2.77-1.91v1.89h-.1c-1.57,0-2.66,1.02-2.66,3.09v2.98h-1.79v-7.82Z"/><path class="cls-2" d="m489.62,75.05c.27-.54.4-.81.67-1.35.83.52,1.72.83,2.78.83,1.6,0,2.47-.83,2.47-2.4v-.61c-.65.84-1.46,1.44-2.75,1.44-1.83,0-3.55-1.36-3.55-3.66v-.03c0-2.31,1.73-3.67,3.55-3.67,1.32,0,2.13.61,2.74,1.33v-1.17h1.79v6.22c0,1.32-.34,2.29-.99,2.95-.71.71-1.81,1.05-3.21,1.05-1.29,0-2.49-.33-3.49-.93Zm5.94-5.74v-.03c0-1.29-1.05-2.16-2.29-2.16s-2.22.86-2.22,2.15v.03c0,1.29.99,2.16,2.22,2.16s2.29-.89,2.29-2.15Z"/><path class="cls-2" d="m499.12,69.7v-.03c0-2.24,1.58-4.07,3.82-4.07,2.49,0,3.74,1.95,3.74,4.2,0,.16-.01.33-.03.5h-5.74c.19,1.27,1.1,1.98,2.25,1.98.87,0,1.5-.33,2.12-.93.42.37.63.56,1.05.93-.74.89-1.76,1.47-3.2,1.47-2.26,0-4.01-1.64-4.01-4.06Zm5.79-.58c-.12-1.15-.8-2.06-1.98-2.06-1.1,0-1.86.84-2.03,2.06h4.01Z"/><path class="cls-2" d="m508.49,65.77h1.79v1.21c.5-.74,1.23-1.38,2.44-1.38,1.76,0,2.78,1.18,2.78,3v4.97h-1.79v-4.44c0-1.21-.61-1.91-1.67-1.91s-1.76.73-1.76,1.94v4.41h-1.79v-7.82Z"/><path class="cls-2" d="m517.24,69.7v-.03c0-2.24,1.58-4.07,3.82-4.07,2.49,0,3.74,1.95,3.74,4.2,0,.16-.01.33-.03.5h-5.74c.19,1.27,1.1,1.98,2.25,1.98.87,0,1.5-.33,2.12-.93.42.37.63.56,1.05.93-.74.89-1.76,1.47-3.2,1.47-2.26,0-4.01-1.64-4.01-4.06Zm5.79-.58c-.12-1.15-.8-2.06-1.98-2.06-1.1,0-1.86.84-2.03,2.06h4.01Z"/><path class="cls-2" d="m526.61,65.77h1.79v1.76c.49-1.17,1.39-1.97,2.77-1.91v1.89h-.1c-1.57,0-2.66,1.02-2.66,3.09v2.98h-1.79v-7.82Z"/><path class="cls-2" d="m532.03,69.72v-.03c0-2.24,1.78-4.09,4.17-4.09s4.16,1.82,4.16,4.06v.03c0,2.22-1.78,4.07-4.19,4.07s-4.14-1.82-4.14-4.04Zm6.54,0v-.03c0-1.38-.99-2.52-2.4-2.52s-2.35,1.12-2.35,2.49v.03c0,1.36.99,2.52,2.38,2.52s2.37-1.14,2.37-2.49Z"/><path class="cls-2" d="m541.55,72.56c.32-.49.48-.73.8-1.21.84.64,1.76.96,2.56.96s1.21-.33,1.21-.84v-.03c0-.61-.84-.83-1.75-1.1-1.14-.33-2.44-.8-2.44-2.29v-.03c0-1.48,1.23-2.38,2.78-2.38.98,0,2.04.34,2.87.89-.28.51-.43.76-.71,1.27-.75-.46-1.55-.74-2.21-.74-.7,0-1.1.33-1.1.78v.03c0,.56.85.81,1.76,1.1,1.13.36,2.43.87,2.43,2.28v.03c0,1.64-1.27,2.46-2.9,2.46-1.11,0-2.34-.4-3.32-1.17Z"/><path class="cls-2" d="m549.62,62.86h1.92v1.7h-1.92v-1.7Zm.07,2.9h1.79v7.82h-1.79v-7.82Z"/><path class="cls-2" d="m554.19,71.42v-4.11h-.99v-1.54h.99v-2.15h1.79v2.15h2.1v1.54h-2.1v3.83c0,.7.36.98.96.98.4,0,.75-.09,1.11-.27v1.47c-.44.25-.95.4-1.61.4-1.32,0-2.25-.58-2.25-2.29Z"/><path class="cls-2" d="m559.64,75.52c.24-.53.36-.8.61-1.33.33.18.68.3,1.05.3.5,0,.81-.22,1.11-.9-1.3-3.13-1.95-4.69-3.26-7.82h1.91c.89,2.32,1.33,3.48,2.22,5.8.81-2.32,1.22-3.48,2.03-5.8h1.87c-1.24,3.22-1.86,4.82-3.11,8.04-.62,1.6-1.32,2.19-2.58,2.19-.75,0-1.3-.18-1.85-.47Z"/><path class="cls-2" d="m581.32,73.58v-.96c-.53.64-1.35,1.12-2.53,1.12-1.48,0-2.78-.84-2.78-2.41v-.03c0-1.73,1.35-2.56,3.17-2.56.95,0,1.55.13,2.16.33v-.15c0-1.08-.68-1.67-1.92-1.67-.87,0-1.52.19-2.23.49-.2-.57-.29-.86-.49-1.44.86-.38,1.7-.65,2.98-.65,2.31,0,3.43,1.21,3.43,3.3v4.63h-1.78Zm.04-3.27c-.46-.18-1.1-.31-1.79-.31-1.12,0-1.79.46-1.79,1.21v.03c0,.74.67,1.15,1.51,1.15,1.18,0,2.07-.67,2.07-1.64v-.44Z"/><path class="cls-2" d="m585.23,65.77h1.79v1.21c.5-.74,1.23-1.38,2.44-1.38,1.76,0,2.78,1.18,2.78,3v4.97h-1.79v-4.44c0-1.21-.61-1.91-1.67-1.91s-1.76.73-1.76,1.94v4.41h-1.79v-7.82Z"/><path class="cls-2" d="m594,69.69v-.03c0-2.59,1.76-4.06,3.63-4.06,1.29,0,2.1.65,2.66,1.38v-4.2h1.79v10.81h-1.79v-1.3c-.58.81-1.39,1.47-2.66,1.47-1.84,0-3.63-1.47-3.63-4.06Zm6.32,0v-.03c0-1.51-1.07-2.5-2.26-2.5s-2.25.95-2.25,2.5v.03c0,1.51,1.04,2.5,2.25,2.5s2.26-1.01,2.26-2.5Z"/><path class="cls-2" d="m611.89,75.52c.24-.53.36-.8.61-1.33.33.18.68.3,1.05.3.5,0,.81-.22,1.11-.9-1.3-3.13-1.95-4.69-3.26-7.82h1.91c.89,2.32,1.33,3.48,2.22,5.8.81-2.32,1.22-3.48,2.03-5.8h1.86c-1.24,3.22-1.86,4.82-3.11,8.04-.62,1.6-1.32,2.19-2.58,2.19-.75,0-1.3-.18-1.85-.47Z"/><path class="cls-2" d="m620.09,69.72v-.03c0-2.24,1.78-4.09,4.17-4.09s4.16,1.82,4.16,4.06v.03c0,2.22-1.78,4.07-4.19,4.07s-4.14-1.82-4.14-4.04Zm6.54,0v-.03c0-1.38-.99-2.52-2.4-2.52s-2.35,1.12-2.35,2.49v.03c0,1.36.99,2.52,2.38,2.52s2.37-1.14,2.37-2.49Z"/><path class="cls-2" d="m630.16,70.74v-4.97h1.79v4.44c0,1.21.61,1.91,1.67,1.91s1.76-.73,1.76-1.94v-4.41h1.79v7.82h-1.79v-1.21c-.5.74-1.23,1.38-2.44,1.38-1.76,0-2.78-1.18-2.78-3Z"/><path class="cls-2" d="m639.42,65.77h1.79v1.76c.49-1.17,1.39-1.97,2.77-1.91v1.89h-.1c-1.57,0-2.66,1.02-2.66,3.09v2.98h-1.79v-7.82Z"/><path class="cls-2" d="m419.29,87.48v-.03c0-2.22,1.72-4.09,4.06-4.09,1.48,0,2.4.55,3.12,1.35-.44.48-.67.72-1.11,1.2-.55-.58-1.12-.98-2.03-.98-1.3,0-2.25,1.12-2.25,2.49v.03c0,1.39.96,2.52,2.34,2.52.84,0,1.47-.4,2.03-.98.43.43.65.64,1.08,1.07-.77.86-1.67,1.47-3.2,1.47-2.32,0-4.04-1.82-4.04-4.04Z"/><path class="cls-2" d="m427.52,87.48v-.03c0-2.24,1.78-4.09,4.17-4.09s4.16,1.82,4.16,4.06v.03c0,2.22-1.78,4.07-4.19,4.07s-4.14-1.82-4.14-4.04Zm6.54,0v-.03c0-1.38-.99-2.52-2.4-2.52s-2.35,1.12-2.35,2.49v.03c0,1.36.99,2.52,2.38,2.52s2.37-1.14,2.37-2.49Z"/><path class="cls-2" d="m437.67,83.53h1.79v1.21c.5-.74,1.23-1.38,2.44-1.38,1.76,0,2.78,1.18,2.78,3v4.97h-1.79v-4.44c0-1.21-.61-1.91-1.67-1.91s-1.76.73-1.76,1.94v4.41h-1.79v-7.82Z"/><path class="cls-2" d="m447.22,89.18v-4.11h-.99v-1.54h.99v-2.15h1.79v2.15h2.1v1.54h-2.1v3.83c0,.7.36.98.96.98.4,0,.75-.09,1.11-.27v1.47c-.44.25-.95.4-1.61.4-1.32,0-2.25-.58-2.25-2.29Z"/><path class="cls-2" d="m452.95,80.63h1.92v1.7h-1.92v-1.7Zm.07,2.9h1.79v7.82h-1.79v-7.82Z"/><path class="cls-2" d="m457.15,83.53h1.79v1.21c.5-.74,1.23-1.38,2.44-1.38,1.76,0,2.78,1.18,2.78,3v4.97h-1.79v-4.44c0-1.21-.61-1.91-1.67-1.91s-1.76.73-1.76,1.94v4.41h-1.79v-7.82Z"/><path class="cls-2" d="m466.24,88.5v-4.97h1.79v4.44c0,1.21.61,1.91,1.67,1.91s1.76-.73,1.76-1.94v-4.41h1.79v7.82h-1.79v-1.21c-.5.74-1.23,1.38-2.44,1.38-1.76,0-2.78-1.18-2.78-3Z"/><path class="cls-2" d="m475.08,87.47v-.03c0-2.24,1.58-4.07,3.82-4.07,2.49,0,3.74,1.95,3.74,4.2,0,.16-.01.33-.03.5h-5.74c.19,1.27,1.1,1.98,2.25,1.98.87,0,1.5-.33,2.12-.93.42.37.63.56,1.05.93-.74.89-1.76,1.47-3.2,1.47-2.26,0-4.01-1.64-4.01-4.06Zm5.79-.58c-.12-1.15-.8-2.06-1.98-2.06-1.1,0-1.86.84-2.03,2.06h4.01Z"/><path class="cls-2" d="m484.05,87.45v-.03c0-2.59,1.76-4.06,3.63-4.06,1.29,0,2.1.65,2.66,1.38v-4.2h1.79v10.81h-1.79v-1.3c-.58.81-1.39,1.47-2.66,1.47-1.84,0-3.63-1.47-3.63-4.06Zm6.32,0v-.03c0-1.51-1.07-2.5-2.26-2.5s-2.25.95-2.25,2.5v.03c0,1.51,1.04,2.5,2.25,2.5s2.26-1.01,2.26-2.5Z"/><path class="cls-2" d="m498.17,90.32c.32-.49.48-.73.8-1.21.84.64,1.76.96,2.56.96s1.21-.33,1.21-.84v-.03c0-.61-.84-.83-1.75-1.1-1.14-.33-2.44-.8-2.44-2.29v-.03c0-1.48,1.23-2.38,2.78-2.38.98,0,2.04.34,2.87.89-.28.51-.43.76-.71,1.27-.75-.46-1.55-.74-2.21-.74-.7,0-1.1.33-1.1.78v.03c0,.56.85.81,1.76,1.1,1.13.36,2.43.87,2.43,2.28v.03c0,1.64-1.27,2.46-2.9,2.46-1.11,0-2.34-.4-3.32-1.17Z"/><path class="cls-2" d="m506.12,88.5v-4.97h1.79v4.44c0,1.21.61,1.91,1.67,1.91s1.76-.73,1.76-1.94v-4.41h1.79v7.82h-1.79v-1.21c-.5.74-1.23,1.38-2.44,1.38-1.76,0-2.78-1.18-2.78-3Z"/><path class="cls-2" d="m515.39,83.53h1.79v1.3c.58-.81,1.39-1.46,2.65-1.46,1.85,0,3.64,1.46,3.64,4.06v.03c0,2.59-1.78,4.06-3.64,4.06-1.29,0-2.1-.65-2.65-1.38v3.58h-1.79v-10.18Zm6.26,3.92v-.03c0-1.51-1.02-2.5-2.23-2.5s-2.28,1.01-2.28,2.5v.03c0,1.51,1.07,2.5,2.28,2.5s2.23-.96,2.23-2.5Z"/><path class="cls-2" d="m525.3,83.53h1.79v1.3c.58-.81,1.39-1.46,2.65-1.46,1.85,0,3.64,1.46,3.64,4.06v.03c0,2.59-1.78,4.06-3.64,4.06-1.29,0-2.1-.65-2.65-1.38v3.58h-1.79v-10.18Zm6.26,3.92v-.03c0-1.51-1.02-2.5-2.23-2.5s-2.28,1.01-2.28,2.5v.03c0,1.51,1.07,2.5,2.28,2.5s2.23-.96,2.23-2.5Z"/><path class="cls-2" d="m534.79,87.48v-.03c0-2.24,1.78-4.09,4.17-4.09s4.16,1.82,4.16,4.06v.03c0,2.22-1.78,4.07-4.19,4.07s-4.14-1.82-4.14-4.04Zm6.54,0v-.03c0-1.38-.99-2.52-2.4-2.52s-2.35,1.12-2.35,2.49v.03c0,1.36.99,2.52,2.38,2.52s2.37-1.14,2.37-2.49Z"/><path class="cls-2" d="m544.95,83.53h1.79v1.76c.49-1.17,1.39-1.97,2.77-1.91v1.89h-.1c-1.57,0-2.66,1.02-2.66,3.09v2.98h-1.79v-7.82Z"/><path class="cls-2" d="m551.43,89.18v-4.11h-.99v-1.54h.99v-2.15h1.79v2.15h2.1v1.54h-2.1v3.83c0,.7.36.98.96.98.4,0,.75-.09,1.11-.27v1.47c-.44.25-.95.4-1.61.4-1.32,0-2.25-.58-2.25-2.29Z"/><path class="cls-2" d="m216.77,63.01c6.71-2.01,12.4-7.7,11.96-15.18v-.14c0-4.37-1.5-8.16-4.15-10.81-3.14-3.15-8.16-5.01-14.47-5.01h-22.34v6.06c-4.56-4.28-10.82-6.92-18.14-6.92-9.33,0-17.01,4.34-21.6,10.91-4.55-6.58-12.2-10.91-21.58-10.91-7.13,0-13.28,2.53-17.84,6.65v-6.65h-9.7c-5.26,8.17-10.52,16.34-15.78,24.52-5.26-8.17-10.52-16.34-15.78-24.52h-9.7v51.85h8.96v-37.03c5.41,8.1,10.81,16.2,16.22,24.29h.3c5.46-8.15,10.91-16.29,16.37-24.44v37.18h9.11v-6.52c4.52,4.04,10.62,6.52,17.7,6.52,9.33,0,17.01-4.34,21.6-10.91,4.55,6.58,12.2,10.91,21.58,10.91,7.36,0,13.68-2.7,18.28-7.06v6.2h8.81v-17.47h11.03c4.11,5.82,8.21,11.65,12.32,17.47h10.38c-4.51-6.33-9.02-12.65-13.54-18.98Zm-73.42-5.94c0,9.74-6.95,17.69-16.9,17.69s-17.04-8.09-17.04-17.83v-.14c0-9.74,6.95-17.69,16.9-17.69s17.04,8.09,17.04,17.83c0-.43.01-.87.03-1.3-.02.43-.03.86-.03,1.3v.14c0,1.94.2,3.83.59,5.65-.39-1.82-.59-3.71-.59-5.65Zm43.18,0c0,9.74-6.95,17.69-16.9,17.69s-17.04-8.09-17.04-17.83v-.14c0-9.74,6.95-17.69,16.9-17.69s17.04,8.09,17.04,17.83v.14Zm10.04-.36v-16.83h12.82c6.52,0,10.38,2.94,10.38,8.31v.14c0,5.08-4.01,8.38-10.31,8.38h-12.89Z"/></g></svg>