<?xml version="1.0" encoding="utf-8"?>
<!-- Generator: Adobe Illustrator 27.7.0, SVG Export Plug-In . SVG Version: 6.00 Build 0)  -->
<svg version="1.1" id="Layer_2_00000140702076151294167230000013694145091431018139_"
	 xmlns="http://www.w3.org/2000/svg" xmlns:xlink="http://www.w3.org/1999/xlink" x="0px" y="0px" viewBox="0 0 820 300"
	 style="enable-background:new 0 0 820 300;" xml:space="preserve">
<style type="text/css">
	.st0{fill:#EB5D3E;}
	.st1{fill:#FFFFFF;}
	.st2{opacity:0.8;}
</style>
<g id="Layer_1-2">
	<path class="st0" d="M745.1,0H18.7c-5.8,0-11,2.7-14.4,6.8c-1.5,1.8-2.7,4-3.4,6.3C0.3,14.9,0,16.8,0,18.7l0,0v262.6
		c0,5.2,2.1,9.9,5.5,13.2c1.6,1.6,3.4,2.8,5.4,3.8c0.4,0.2,0.8,0.3,1.2,0.5c1.4,0.5,2.9,0.9,4.5,1.1c0.1,0,0.2,0,0.3,0
		c0.6,0.1,1.2,0.1,1.8,0.1h782.6c10.3,0,18.7-8.4,18.7-18.7V74.9C820,33.5,786.5,0,745.1,0L745.1,0z M815,281.3
		c0,7.6-6.2,13.7-13.7,13.7H300V5h445.1C783.7,5,815,36.3,815,74.9V281.3z"/>
	<path class="st1" d="M178.1,169.5c7.4-5.3,14.6-5.1,21.7,0.5c1.5-1.1,2.8-2.3,4.5-3c5.4-2.3,10.6-2.1,15.5,1.2
		c1,0.7,1.7,0.8,2.8,0.2c7.8-3.8,16.5-1.2,20.9,6.2c6.6,11.2,13.1,22.4,19.5,33.7c2.9,5.1,4.8,10.4,5.3,16.4
		c0.9,9.9-1.8,18.5-7.8,26.2c-5.5,7.1-12.4,12.6-20.5,16.5c-6.8,3.3-14,3.9-21.4,3.1c-8.6-0.9-16.5-3.9-24.1-8
		c-8.8-4.8-17.9-8.8-27-12.9c-5.8-2.6-11.6-5-17-8.4c-1.9-1.2-3.6-2.6-5.2-4.2c-3.9-4-4.7-8.7-3.2-13.9c1.6-5.2,5.3-8.2,10.5-9.4
		c3.9-0.9,7.9-0.5,11.8,0.2c0.9,0.2,1.8,0.3,2.8,0.5c0.1-1-0.4-1.5-0.8-2.1c-9.1-15.7-18.1-31.4-27.3-47c-4.4-7.4-2.1-16.8,5-21.3
		c7.1-4.5,16.9-2.4,21.6,4.8c3.7,5.8,7,11.9,10.5,17.8C176.8,167.7,177.2,168.7,178.1,169.5L178.1,169.5z M226.3,176.2
		c0.1,0.7,0.5,1.2,0.9,1.8c2.2,3.7,4.3,7.5,6.5,11.2c1.7,3,1.4,5.4-0.9,6.8c-2.4,1.4-4.6,0.5-6.5-2.6c-0.7-1.1-1.3-2.3-2-3.4
		c-2.4-4.2-4.9-8.3-7.3-12.5c-3-5.1-8.7-4.1-11.4-1.3c-0.7,0.8-1,1.4-0.3,2.4c1.2,1.9,2.3,3.8,3.4,5.8c1.2,2.1,2.4,4.1,3.5,6.2
		c1,1.9,0.4,4-1.2,5.2c-1.4,1.1-3.7,1.1-5.1,0c-0.7-0.6-1.2-1.4-1.6-2.1c-1.5-2.5-2.9-5.1-4.4-7.6c-1.6-2.7-3.1-5.5-4.7-8.1
		c-2.6-4.3-8.1-5.1-11.5-1.8c-0.8,0.8-1.2,1.6-0.4,2.7c1,1.4,1.8,3,2.6,4.5c1.3,2.2,2.6,4.4,3.8,6.7c1.1,2.1,0.4,4.3-1.5,5.5
		c-2,1.2-4.3,0.7-5.7-1.3c-0.2-0.3-0.4-0.7-0.6-1.1c-4.9-8.5-9.9-17-14.8-25.5c-2.6-4.5-5.2-9.1-7.9-13.6c-2.7-4.4-8.4-5.2-11.8-1.6
		c-2.3,2.4-2.6,5.7-0.6,9.1c5.7,9.8,11.3,19.5,17,29.3c5.6,9.7,11.3,19.4,16.9,29.1c1.3,2.2,1.1,4.1-0.2,5.6
		c-1.4,1.5-3.4,1.7-5.6,0.6c-4.9-2.4-10.2-3.7-15.6-4.4c-1.8-0.2-3.6-0.1-5.4,0.4c-3.3,1-5.3,5.5-3.4,7.8c1.6,2,3.4,3.8,5.6,4.9
		c3.5,1.7,6.9,3.6,10.5,5.1c9.6,4.1,19.2,8.2,28.4,13.1c6.2,3.3,12.5,6.5,19.4,8c6.8,1.5,13.6,1.9,20.2-0.8
		c9.6-4,17.1-10.4,22.3-19.4c2.9-5.1,4.1-10.7,3.2-16.5c-0.7-4.5-2.4-8.7-4.7-12.7c-4.9-8.4-9.7-16.8-14.6-25.1
		c-1.5-2.6-3-5.3-4.7-7.9C233.9,175.2,229.7,174.2,226.3,176.2L226.3,176.2z M134.5,118.4c-0.4-1-1-2-1.6-2.9
		c-2.3-3.9-4.5-7.9-6.9-11.7c-1.3-2.2-3.6-2.7-5.6-1.6c-2.1,1.1-2.9,3.5-1.8,5.5c2.8,4.9,5.6,9.8,8.5,14.7c0.7,1.2,2,1.7,3.2,1.8
		C133.6,124.1,135.6,121.2,134.5,118.4L134.5,118.4z M121.7,128.7c-5.2-1.4-10.3-2.8-15.5-4.1c-2.6-0.7-4.8,0.6-5.3,3
		c-0.6,2.4,0.7,4.4,3.3,5.2c1.5,0.4,2.9,0.8,4.4,1.2c3.7,1,7.4,2,11.1,2.9c2.8,0.6,5.1-1.3,5.2-4
		C124.9,130.8,123.8,129.3,121.7,128.7L121.7,128.7z M172.1,115.8c-4.9,2.6-9.7,5.4-14.5,8.3c-2.1,1.3-2.6,3.8-1.4,5.8
		c1.1,1.9,3.5,2.6,5.7,1.4c4.7-2.6,9.4-5.3,14.1-8.1c1.3-0.8,2.1-2,2.1-3.6C178.1,116.4,174.9,114.3,172.1,115.8L172.1,115.8z
		 M146.1,122c1.9,0.3,4-0.8,4.6-2.8c0.9-3.1,1.7-6.2,2.6-9.3c0.6-2.3,1.3-4.7,1.8-7.1c0.4-1.8-0.5-3.6-2-4.4
		c-1.6-0.8-3.5-0.6-4.9,0.6c-0.9,0.8-1.2,1.8-1.5,2.9c-1.3,4.8-2.6,9.6-3.8,14.3c-0.1,0.5-0.2,0.9-0.3,1.2
		C142.5,119.7,144.1,121.6,146.1,122L146.1,122z M120.7,145.2c-4.9,2.7-9.8,5.6-14.6,8.4c-0.3,0.2-0.6,0.6-0.8,0.9
		c-1.1,1.6-1,3.6,0.2,5c1.3,1.5,3.4,2,5.3,0.9c4.8-2.7,9.5-5.4,14.3-8.2c1.4-0.8,2-2.1,1.9-3.7C127,145.4,123.7,143.6,120.7,145.2z
		 M242.9,79.6c0-27.8-22.6-50.4-50.4-50.4H81.9c-27.8,0-50.4,22.6-50.4,50.4s22.6,50.4,50.4,50.4c2.3,0,4.2-1.9,4.2-4.2
		s-1.9-4.2-4.2-4.2c-23.2,0-42.1-18.9-42.1-42.1s18.9-42.1,42.1-42.1h110.5c23.2,0,42.1,18.9,42.1,42.1s-18.9,42.1-42.1,42.1
		c-2.3,0-4.2,1.9-4.2,4.2c0,2.3,1.9,4.2,4.2,4.2C220.2,130.1,242.9,107.4,242.9,79.6z M61.8,69.1h5.6c1.5,0,2.7,0.1,3.8,0.4
		c1,0.3,2,0.8,2.8,1.5c2.2,1.9,3.3,4.8,3.3,8.7c0,1.3-0.1,2.4-0.3,3.5c-0.2,1.1-0.6,2-1,2.8c-0.5,0.8-1.1,1.6-1.8,2.3
		c-0.6,0.5-1.2,0.9-1.9,1.2s-1.4,0.5-2.2,0.7c-0.8,0.1-1.7,0.2-2.6,0.2h-5.6c-0.8,0-1.4-0.1-1.8-0.4s-0.7-0.6-0.8-1s-0.2-1-0.2-1.7
		V71.7c0-0.9,0.2-1.6,0.6-2C60.2,69.3,60.8,69.1,61.8,69.1L61.8,69.1z M63.4,72.5v14.4h3.3c0.7,0,1.3,0,1.7-0.1
		c0.4,0,0.8-0.1,1.3-0.3c0.4-0.2,0.8-0.4,1.1-0.7c1.4-1.2,2.2-3.3,2.2-6.3c0-2.1-0.3-3.7-0.9-4.7c-0.6-1-1.4-1.7-2.3-2
		c-0.9-0.3-2.1-0.4-3.4-0.4L63.4,72.5L63.4,72.5z M90.4,68.7c2.2,0,4.1,0.4,5.7,1.3c1.6,0.9,2.8,2.2,3.6,3.8s1.2,3.6,1.2,5.8
		c0,1.6-0.2,3.1-0.7,4.5c-0.4,1.3-1.1,2.5-2,3.5s-2,1.7-3.3,2.3s-2.8,0.8-4.5,0.8s-3.2-0.3-4.5-0.8s-2.4-1.3-3.3-2.3
		c-0.9-1-1.6-2.2-2-3.5c-0.4-1.4-0.7-2.9-0.7-4.4s0.2-3.1,0.7-4.5c0.5-1.4,1.2-2.5,2-3.5c0.9-1,2-1.7,3.2-2.2
		C87.4,69,88.8,68.7,90.4,68.7L90.4,68.7z M96.6,79.7c0-1.6-0.2-2.9-0.8-4.1s-1.2-2-2.2-2.6s-2-0.9-3.2-0.9c-0.9,0-1.7,0.2-2.4,0.5
		c-0.7,0.3-1.4,0.8-1.9,1.4s-0.9,1.4-1.2,2.4c-0.3,1-0.5,2-0.5,3.2s0.2,2.3,0.5,3.3c0.3,1,0.7,1.8,1.3,2.4c0.6,0.6,1.2,1.1,1.9,1.4
		s1.5,0.5,2.4,0.5c1.1,0,2.1-0.3,3-0.8s1.7-1.4,2.2-2.6C96.3,82.8,96.6,81.3,96.6,79.7L96.6,79.7z M110.2,71.3c3.3,5,5,7.5,8.3,12.5
		V71.2c0-0.8,0.2-1.4,0.5-1.8s0.8-0.6,1.4-0.6s1.1,0.2,1.5,0.6s0.5,1,0.5,1.8v16.7c0,1.9-0.8,2.8-2.3,2.8c-0.4,0-0.7-0.1-1-0.2
		c-0.3-0.1-0.6-0.3-0.9-0.5c-0.3-0.2-0.5-0.5-0.8-0.8c-0.2-0.3-0.5-0.7-0.7-1c-3.2-5-4.8-7.4-8.1-12.4v12.5c0,0.8-0.2,1.4-0.6,1.8
		c-0.4,0.4-0.9,0.6-1.4,0.6s-1.1-0.2-1.5-0.6s-0.6-1-0.6-1.8V71.8c0-0.7,0.1-1.2,0.2-1.6c0.2-0.4,0.5-0.8,0.9-1.1s0.9-0.4,1.4-0.4
		c0.4,0,0.7,0.1,1,0.2c0.3,0.1,0.5,0.3,0.7,0.5s0.4,0.5,0.6,0.8S110,70.9,110.2,71.3L110.2,71.3z M140.4,87.9
		c-0.4-1.1-0.6-1.6-1-2.7h-8.6c-0.4,1.1-0.6,1.6-1,2.7c-0.4,1.1-0.7,1.8-1,2.2s-0.7,0.6-1.4,0.6c-0.5,0-1-0.2-1.4-0.6
		c-0.4-0.4-0.6-0.8-0.6-1.3c0-0.3,0.1-0.6,0.2-0.9c0.1-0.3,0.3-0.7,0.5-1.3c2.2-5.5,3.3-8.3,5.4-13.8c0.1-0.4,0.3-0.9,0.6-1.4
		s0.4-1,0.7-1.4s0.6-0.7,1-0.9c0.4-0.2,0.9-0.3,1.5-0.3s1.1,0.1,1.5,0.3s0.7,0.5,1,0.9c0.2,0.4,0.5,0.7,0.6,1.2
		c0.2,0.4,0.4,1,0.6,1.7c2.2,5.5,3.3,8.2,5.6,13.7c0.4,1,0.6,1.8,0.6,2.3s-0.2,0.9-0.6,1.4s-0.9,0.6-1.5,0.6c-0.3,0-0.6-0.1-0.9-0.2
		c-0.2-0.1-0.4-0.3-0.6-0.5s-0.3-0.5-0.5-1S140.5,88.3,140.4,87.9L140.4,87.9z M131.9,82h6.4c-1.3-3.5-1.9-5.3-3.2-8.8
		C133.8,76.8,133.2,78.5,131.9,82z M159.4,72.6h-4.7v15.4c0,0.9-0.2,1.6-0.6,2c-0.4,0.4-0.9,0.7-1.5,0.7s-1.2-0.2-1.6-0.7
		c-0.4-0.4-0.6-1.1-0.6-2V72.6h-4.7c-0.7,0-1.3-0.2-1.6-0.5c-0.4-0.3-0.5-0.8-0.5-1.3s0.2-1,0.6-1.3s0.9-0.5,1.6-0.5h13.7
		c0.7,0,1.3,0.2,1.7,0.5c0.4,0.3,0.5,0.8,0.5,1.3s-0.2,1-0.6,1.3S160.1,72.6,159.4,72.6z M164.3,88.1V71.3c0-0.9,0.2-1.5,0.6-2
		c0.4-0.4,0.9-0.7,1.5-0.7s1.2,0.2,1.6,0.7s0.6,1.1,0.6,2v16.8c0,0.9-0.2,1.5-0.6,2s-0.9,0.7-1.6,0.7s-1.1-0.2-1.5-0.7
		S164.3,88.9,164.3,88.1L164.3,88.1z M182.8,68.7c2.2,0,4.1,0.4,5.7,1.3c1.6,0.9,2.8,2.2,3.6,3.8s1.2,3.6,1.2,5.8
		c0,1.6-0.2,3.1-0.7,4.5c-0.4,1.3-1.1,2.5-2,3.5s-2,1.7-3.3,2.3s-2.8,0.8-4.5,0.8s-3.1-0.3-4.5-0.8s-2.4-1.3-3.3-2.3
		c-0.9-1-1.6-2.2-2-3.5c-0.4-1.4-0.7-2.9-0.7-4.4s0.2-3.1,0.7-4.5c0.5-1.4,1.1-2.5,2-3.5c0.9-1,2-1.7,3.2-2.2
		C179.7,68.9,181.2,68.7,182.8,68.7L182.8,68.7z M188.9,79.6c0-1.6-0.2-2.9-0.8-4.1s-1.2-2-2.1-2.6s-2-0.9-3.2-0.9
		c-0.9,0-1.7,0.2-2.4,0.5c-0.7,0.3-1.4,0.8-1.9,1.4s-0.9,1.4-1.2,2.4c-0.3,1-0.5,2-0.5,3.2s0.1,2.3,0.5,3.3c0.3,1,0.7,1.8,1.3,2.4
		c0.6,0.6,1.2,1.1,1.9,1.4s1.5,0.5,2.4,0.5c1.1,0,2.1-0.3,3-0.8s1.7-1.4,2.2-2.6S188.9,81.3,188.9,79.6L188.9,79.6z M202.6,71.3
		c3.3,5,5,7.5,8.3,12.5V71.2c0-0.8,0.2-1.4,0.5-1.8s0.8-0.6,1.4-0.6s1.1,0.2,1.5,0.6s0.5,1,0.5,1.8v16.7c0,1.9-0.8,2.8-2.3,2.8
		c-0.4,0-0.7-0.1-1-0.2c-0.3-0.1-0.6-0.3-0.9-0.5c-0.3-0.2-0.5-0.5-0.8-0.8c-0.2-0.3-0.5-0.7-0.7-1c-3.2-5-4.9-7.4-8.1-12.4v12.5
		c0,0.8-0.2,1.4-0.6,1.8c-0.4,0.4-0.9,0.6-1.4,0.6s-1.1-0.2-1.5-0.6s-0.6-1-0.6-1.8V71.8c0-0.7,0.1-1.2,0.2-1.6
		c0.2-0.4,0.5-0.8,0.9-1.1s0.9-0.4,1.4-0.4c0.4,0,0.7,0.1,1,0.2c0.3,0.1,0.5,0.3,0.7,0.5s0.4,0.5,0.6,0.8S202.4,70.9,202.6,71.3
		L202.6,71.3z"/>
	<path class="st1" d="M351,28.2h9.9c5,0,8.5,2.6,8.5,7.1c0,2.6-1.2,4.8-3.4,5.9v0.1c3,0.9,4.5,3.7,4.5,6.5c0,5.5-4.4,8-9.5,8h-10
		C351,55.9,351,28.2,351,28.2z M360.9,39.5c2.2,0,3.4-1.6,3.4-3.5s-1.2-3.4-3.5-3.4H356v7H360.9L360.9,39.5z M361.4,51.5
		c2.6,0,4-1.7,4-4s-1.5-4-4-4H356v8H361.4z M379.9,28.2h16.5v4.3h-11.5v7.2h9.3v4.3h-9.3v7.4H397v4.3h-17.2L379.9,28.2L379.9,28.2z
		 M411.9,41.8c-3.3-5.5-5-8.2-8.2-13.6h5.7c1.5,2.7,2.3,4.1,3.8,6.8c0.9,1.6,1.8,3.4,1.8,3.4h0.1c0,0,0.8-1.8,1.7-3.4
		c1.5-2.7,2.3-4.1,3.9-6.8h5.8c-3.3,5.4-5,8.2-8.3,13.6c3.5,5.6,5.2,8.4,8.6,14h-5.6c-1.7-3-2.6-4.5-4.3-7.4
		c-0.9-1.6-1.7-3.3-1.7-3.3h-0.1c0,0-0.8,1.7-1.7,3.3c-1.7,3-2.5,4.5-4.2,7.4h-5.6C406.7,50.2,408.5,47.4,411.9,41.8L411.9,41.8z
		 M434.7,28.2h5v23.3h12v4.3h-17L434.7,28.2L434.7,28.2z M459.6,28.2h16.5v4.3h-11.5v7.2h9.3v4.3h-9.3v7.4h12.1v4.3h-17.2
		L459.6,28.2L459.6,28.2z M491.6,44.3c-3.7-6.4-5.5-9.7-9.2-16.1h5.7c1.7,3.3,2.6,4.9,4.3,8.1c0.9,1.7,1.6,3.7,1.7,3.7h0.1
		c0,0,0.8-2,1.7-3.7c1.7-3.3,2.6-4.9,4.3-8.1h5.7c-3.7,6.4-5.5,9.6-9.2,16.1v11.6h-5L491.6,44.3L491.6,44.3z M528.1,28.2h5.4
		c2.2,5.5,3.2,8.2,5.4,13.7c0.6,1.6,1.4,4,1.4,4h0.1c0,0,0.7-2.4,1.4-4c2.2-5.5,3.2-8.2,5.4-13.7h5.4c0.9,11.1,1.3,16.6,2.2,27.6h-5
		c-0.5-6.2-0.7-9.3-1.2-15.5c-0.1-1.8,0-4.3,0-4.3h-0.1c0,0-0.8,2.7-1.5,4.3c-1.8,4.3-2.7,6.4-4.5,10.7H538
		c-1.8-4.3-2.7-6.4-4.4-10.7c-0.7-1.6-1.5-4.3-1.5-4.3H532c0,0,0.1,2.5,0,4.3c-0.5,6.2-0.7,9.3-1.2,15.5h-5
		C526.7,44.8,527.1,39.2,528.1,28.2L528.1,28.2z M577.1,27.7c8.1,0,14.3,6.2,14.3,14.1s-6.2,14.5-14.3,14.5s-14.3-6.3-14.3-14.5
		S569,27.7,577.1,27.7z M577.1,51.7c5.1,0,9.1-4.2,9.1-9.9s-4-9.5-9.1-9.5s-9.1,4-9.1,9.5S572.1,51.7,577.1,51.7z M612.8,27.7
		c8.1,0,14.3,6.2,14.3,14.1s-6.2,14.5-14.3,14.5s-14.3-6.3-14.3-14.5S604.6,27.7,612.8,27.7z M612.8,51.7c5.1,0,9.1-4.2,9.1-9.9
		s-4-9.5-9.1-9.5s-9.1,4-9.1,9.5S607.7,51.7,612.8,51.7z M636.1,28.2h8.9c3,0,4.4,0.2,5.6,0.8c2.8,1.2,4.5,3.9,4.5,7.6
		c0,3.3-1.8,6.4-4.7,7.5v0.1c0,0,0.4,0.4,0.9,1.4c2.3,4.1,3.4,6.2,5.7,10.3h-5.6c-2.2-4.1-3.3-6.2-5.5-10.3h-4.8v10.3h-5L636.1,28.2
		L636.1,28.2z M645.6,41.2c2.7,0,4.4-1.6,4.4-4.4s-1.1-4.3-5.1-4.3h-3.8v8.6H645.6z M665.6,28.2h5v27.6h-5
		C665.6,55.8,665.6,28.2,665.6,28.2z M681.5,28.2h5c4.2,6.4,6.3,9.6,10.5,16c1,1.6,2.3,4.3,2.3,4.3h0.1c0,0-0.3-2.7-0.3-4.3v-16h5
		v27.6h-5c-4.2-6.4-6.3-9.6-10.5-15.9c-1-1.6-2.3-4.3-2.3-4.3h-0.1c0,0,0.3,2.7,0.3,4.3v15.9h-5C681.5,55.8,681.5,28.2,681.5,28.2z
		 M727.3,27.7c6.8,0,10.3,3.5,10.3,3.5c-1,1.5-1.5,2.2-2.5,3.7c0,0-3-2.7-7.4-2.7c-6.2,0-9.5,4.3-9.5,9.5c0,6,4.1,9.9,9.3,9.9
		c4.2,0,6.9-2.9,6.9-2.9v-3.2h-4.2v-4.3h8.8v14.6h-4.3v-1.3c0-0.6,0-1.2,0-1.2h-0.1c0,0-2.9,3-8,3c-7.3,0-13.5-5.7-13.5-14.3
		C713.1,34,719.1,27.7,727.3,27.7L727.3,27.7z M749.1,48.8c0,0,3,2.9,6.9,2.9c2.1,0,4-1.1,4-3.3c0-5-13-4.1-13-12.6c0-4.6,4-8,9.3-8
		s8.3,3,8.3,3c-0.9,1.6-1.3,2.5-2.2,4.1c0,0-2.7-2.4-6.1-2.4c-2.3,0-4.2,1.4-4.2,3.3c0,4.9,13,3.7,13,12.5c0,4.4-3.3,8.1-9.1,8.1
		c-6.2,0-9.5-3.8-9.5-3.8C747.5,51,748,50.3,749.1,48.8L749.1,48.8z M483,68.4h6.6c3.4,0,5.9,2.2,5.9,5.8S493,80,489.6,80h-4.7v7.5
		H483V68.4L483,68.4z M489.3,78.3c2.5,0,4.2-1.6,4.2-4.2s-1.7-4.1-4.2-4.1h-4.5v8.2H489.3z M504.6,68.4h5.6c2,0,2.8,0.2,3.6,0.5
		c1.8,0.8,2.9,2.6,2.9,4.9c0,2.6-1.5,4.6-3.6,5.2v0.1c0,0,0.2,0.2,0.5,0.8c1.7,3.1,2.5,4.6,4.2,7.7h-2.2c-1.7-3.2-2.6-4.8-4.3-8
		h-4.8v8h-1.9L504.6,68.4L504.6,68.4z M511,77.8c2.3,0,3.8-1.5,3.8-3.9c0-1.6-0.6-2.7-1.7-3.3c-0.6-0.3-1.2-0.5-2.7-0.5h-3.9v7.7
		L511,77.8L511,77.8z M535.5,68.1c5.4,0,9.7,4.3,9.7,9.8s-4.3,10-9.7,10s-9.7-4.4-9.7-10S530.1,68.1,535.5,68.1z M535.5,86.1
		c4.3,0,7.8-3.6,7.8-8.3s-3.5-8-7.8-8s-7.8,3.4-7.8,8S531.2,86.1,535.5,86.1z M553.1,81.4h1.9v0.7c0,2.9,1.8,4,3.5,4s3.5-1,3.5-3.9
		V70.1h-4.7v-1.7h6.5v13.7c0,4.1-2.7,5.7-5.4,5.7s-5.3-1.6-5.3-5.7C553.1,82.2,553.1,81.4,553.1,81.4z M574.6,68.4h10.8v1.7h-8.9
		v6.9h7.2v1.7h-7.2v7.1h9.4v1.7h-11.2L574.6,68.4L574.6,68.4z M603.7,68.1c4.6,0,6.9,2.5,6.9,2.5c-0.4,0.6-0.6,0.8-1,1.4
		c0,0-2.2-2.1-5.8-2.1c-4.5,0-7.7,3.5-7.7,8s3.2,8.3,7.7,8.3c3.9,0,6.2-2.6,6.2-2.6c0.4,0.5,0.7,0.8,1.1,1.3c0,0-2.6,3-7.3,3
		c-5.7,0-9.7-4.4-9.7-10S598.2,68.1,603.7,68.1L603.7,68.1z M624.9,70.1H618v-1.7h15.6v1.7h-6.8v17.4h-1.9L624.9,70.1L624.9,70.1z
		 M360.7,121.3h2.5c1.2,3.9,1.9,5.8,3.1,9.7c1.3-3.9,1.9-5.8,3.2-9.7h1.9c1.3,3.9,1.9,5.8,3.2,9.7c1.2-3.9,1.9-5.8,3.1-9.7h2.4
		c-1.8,5.3-2.7,7.9-4.5,13.2h-2c-1.3-3.8-1.9-5.6-3.2-9.4c-1.3,3.8-1.9,5.6-3.2,9.4h-2C363.4,129.2,362.5,126.5,360.7,121.3
		L360.7,121.3z M380.5,129.5L380.5,129.5c0-2.9,2-5.2,4.8-5.2c3.1,0,4.7,2.5,4.7,5.3c0,0.2,0,0.4,0,0.6h-7.2
		c0.2,1.6,1.4,2.5,2.8,2.5c1.1,0,1.9-0.4,2.7-1.2c0.5,0.5,0.8,0.7,1.3,1.2c-0.9,1.1-2.2,1.9-4,1.9
		C382.7,134.6,380.5,132.5,380.5,129.5L380.5,129.5z M387.8,128.7c-0.1-1.5-1-2.6-2.5-2.6c-1.4,0-2.4,1.1-2.5,2.6H387.8z
		 M398.9,136.2c0.3-0.7,0.5-1,0.8-1.7c1,0.6,2.2,1,3.5,1c2,0,3.1-1,3.1-3v-0.8c-0.8,1.1-1.9,1.8-3.5,1.8c-2.3,0-4.5-1.7-4.5-4.6v0
		c0-2.9,2.2-4.6,4.5-4.6c1.7,0,2.7,0.8,3.5,1.7v-1.5h2.3v7.8c0,1.7-0.4,2.9-1.2,3.7c-0.9,0.9-2.3,1.3-4,1.3
		C401.7,137.3,400.2,136.9,398.9,136.2L398.9,136.2z M406.4,128.9L406.4,128.9c0-1.7-1.3-2.8-2.9-2.8s-2.8,1.1-2.8,2.7v0
		c0,1.6,1.2,2.7,2.8,2.7S406.4,130.5,406.4,128.9z M411.4,124.5h2.3v2.2c0.6-1.5,1.8-2.5,3.5-2.4v2.4h-0.1c-2,0-3.4,1.3-3.4,3.9v3.8
		h-2.3V124.5z M418.3,129.4L418.3,129.4c0-2.9,2-5.2,4.8-5.2c3.1,0,4.7,2.5,4.7,5.3c0,0.2,0,0.4,0,0.6h-7.2c0.2,1.6,1.4,2.5,2.8,2.5
		c1.1,0,1.9-0.4,2.7-1.2c0.5,0.5,0.8,0.7,1.3,1.2c-0.9,1.1-2.2,1.9-4,1.9C420.5,134.6,418.3,132.5,418.3,129.4L418.3,129.4z
		 M425.6,128.7c-0.1-1.5-1-2.6-2.5-2.6c-1.4,0-2.4,1.1-2.5,2.6H425.6z M436.1,134.3v-1.2c-0.7,0.8-1.7,1.4-3.2,1.4
		c-1.9,0-3.5-1.1-3.5-3v0c0-2.2,1.7-3.2,4-3.2c1.2,0,2,0.2,2.7,0.4v-0.2c0-1.4-0.9-2.1-2.4-2.1c-1.1,0-1.9,0.2-2.8,0.6
		c-0.2-0.7-0.4-1.1-0.6-1.8c1.1-0.5,2.1-0.8,3.8-0.8c2.9,0,4.3,1.5,4.3,4.2v5.8L436.1,134.3L436.1,134.3z M436.2,130.2
		c-0.6-0.2-1.4-0.4-2.3-0.4c-1.4,0-2.3,0.6-2.3,1.5v0c0,0.9,0.8,1.5,1.9,1.5c1.5,0,2.6-0.8,2.6-2.1L436.2,130.2L436.2,130.2z
		 M441.4,131.6v-5.2h-1.2v-1.9h1.2v-2.7h2.3v2.7h2.6v1.9h-2.6v4.8c0,0.9,0.5,1.2,1.2,1.2c0.5,0,1-0.1,1.4-0.3v1.9
		c-0.6,0.3-1.2,0.5-2,0.5C442.6,134.5,441.4,133.8,441.4,131.6L441.4,131.6z M448.7,120.7h2.3v13.6h-2.3V120.7z M453.6,136.8
		c0.3-0.7,0.5-1,0.8-1.7c0.4,0.2,0.9,0.4,1.3,0.4c0.6,0,1-0.3,1.4-1.1c-1.6-3.9-2.5-5.9-4.1-9.8h2.4c1.1,2.9,1.7,4.4,2.8,7.3
		c1-2.9,1.5-4.4,2.5-7.3h2.4c-1.6,4.1-2.4,6.1-3.9,10.1c-0.8,2-1.7,2.8-3.2,2.8C455,137.4,454.3,137.1,453.6,136.8L453.6,136.8z
		 M477.7,134.3v-1.2c-0.7,0.8-1.7,1.4-3.2,1.4c-1.9,0-3.5-1.1-3.5-3v0c0-2.2,1.7-3.2,4-3.2c1.2,0,2,0.2,2.7,0.4v-0.2
		c0-1.4-0.9-2.1-2.4-2.1c-1.1,0-1.9,0.2-2.8,0.6c-0.2-0.7-0.4-1.1-0.6-1.8c1.1-0.5,2.1-0.8,3.8-0.8c2.9,0,4.3,1.5,4.3,4.2v5.8
		L477.7,134.3L477.7,134.3z M477.7,130.2c-0.6-0.2-1.4-0.4-2.3-0.4c-1.4,0-2.3,0.6-2.3,1.5v0c0,0.9,0.8,1.5,1.9,1.5
		c1.5,0,2.6-0.8,2.6-2.1L477.7,130.2L477.7,130.2z M482.6,124.5h2.3v1.6c0.7-1,1.8-1.8,3.3-1.8c2.3,0,4.6,1.8,4.6,5.1v0
		c0,3.3-2.2,5.1-4.6,5.1c-1.6,0-2.6-0.8-3.3-1.7v4.5h-2.3V124.5L482.6,124.5z M490.5,129.4L490.5,129.4c0-1.9-1.3-3.2-2.8-3.2
		s-2.9,1.3-2.9,3.2v0c0,1.9,1.3,3.1,2.9,3.1S490.5,131.4,490.5,129.4z M495.1,124.5h2.3v1.6c0.7-1,1.8-1.8,3.3-1.8
		c2.3,0,4.6,1.8,4.6,5.1v0c0,3.3-2.2,5.1-4.6,5.1c-1.6,0-2.6-0.8-3.3-1.7v4.5h-2.3V124.5L495.1,124.5z M503,129.4L503,129.4
		c0-1.9-1.3-3.2-2.8-3.2s-2.9,1.3-2.9,3.2v0c0,1.9,1.3,3.1,2.9,3.1S503,131.4,503,129.4z M507.6,124.5h2.3v2.2
		c0.6-1.5,1.8-2.5,3.5-2.4v2.4h-0.1c-2,0-3.4,1.3-3.4,3.9v3.8h-2.3L507.6,124.5L507.6,124.5z M515.4,120.8h2.4v2.1h-2.4V120.8z
		 M515.5,124.5h2.3v9.9h-2.3C515.5,134.3,515.5,124.5,515.5,124.5z M520.1,129.5L520.1,129.5c0-2.8,2.2-5.2,5.1-5.2
		c1.9,0,3,0.7,3.9,1.7c-0.6,0.6-0.8,0.9-1.4,1.5c-0.7-0.7-1.4-1.2-2.5-1.2c-1.6,0-2.8,1.4-2.8,3.1v0c0,1.8,1.2,3.2,3,3.2
		c1.1,0,1.8-0.5,2.5-1.2c0.5,0.5,0.8,0.8,1.4,1.3c-1,1.1-2.1,1.9-4,1.9C522.3,134.6,520.1,132.3,520.1,129.5L520.1,129.5z
		 M531.3,120.8h2.4v2.1h-2.4V120.8z M531.4,124.5h2.3v9.8h-2.3V124.5z M542.7,134.4v-1.2c-0.7,0.8-1.7,1.4-3.2,1.4
		c-1.9,0-3.5-1.1-3.5-3v0c0-2.2,1.7-3.2,4-3.2c1.2,0,2,0.2,2.7,0.4v-0.2c0-1.4-0.9-2.1-2.4-2.1c-1.1,0-1.9,0.2-2.8,0.6
		c-0.2-0.7-0.4-1.1-0.6-1.8c1.1-0.5,2.1-0.8,3.8-0.8c2.9,0,4.3,1.5,4.3,4.2v5.8L542.7,134.4L542.7,134.4z M542.7,130.2
		c-0.6-0.2-1.4-0.4-2.3-0.4c-1.4,0-2.3,0.6-2.3,1.5v0c0,0.9,0.8,1.5,1.9,1.5c1.5,0,2.6-0.8,2.6-2.1L542.7,130.2L542.7,130.2z
		 M548,131.6v-5.2h-1.2v-1.9h1.2v-2.7h2.3v2.7h2.7v1.9h-2.7v4.8c0,0.9,0.5,1.2,1.2,1.2c0.5,0,1-0.1,1.4-0.3v1.9
		c-0.6,0.3-1.2,0.5-2,0.5C549.1,134.5,548,133.8,548,131.6L548,131.6z M554.3,129.5L554.3,129.5c0-2.9,2-5.2,4.8-5.2
		c3.1,0,4.7,2.5,4.7,5.3c0,0.2,0,0.4,0,0.6h-7.2c0.2,1.6,1.4,2.5,2.8,2.5c1.1,0,1.9-0.4,2.7-1.2c0.5,0.5,0.8,0.7,1.3,1.2
		c-0.9,1.1-2.2,1.9-4,1.9C556.5,134.6,554.3,132.5,554.3,129.5L554.3,129.5z M561.6,128.7c-0.2-1.5-1-2.6-2.5-2.6
		c-1.4,0-2.3,1.1-2.5,2.6H561.6z M578.8,134.4v-1.2c-0.7,0.8-1.7,1.4-3.2,1.4c-1.9,0-3.5-1.1-3.5-3v0c0-2.2,1.7-3.2,4-3.2
		c1.2,0,2,0.2,2.7,0.4v-0.2c0-1.4-0.9-2.1-2.4-2.1c-1.1,0-1.9,0.2-2.8,0.6c-0.2-0.7-0.4-1.1-0.6-1.8c1.1-0.5,2.1-0.8,3.8-0.8
		c2.9,0,4.3,1.5,4.3,4.2v5.8L578.8,134.4L578.8,134.4z M578.8,130.2c-0.6-0.2-1.4-0.4-2.3-0.4c-1.4,0-2.3,0.6-2.3,1.5v0
		c0,0.9,0.8,1.5,1.9,1.5c1.5,0,2.6-0.8,2.6-2.1L578.8,130.2L578.8,130.2z M583.8,120.7h2.3v13.6h-2.3
		C583.8,134.4,583.8,120.7,583.8,120.7z M589.2,120.7h2.3v13.6h-2.3C589.2,134.4,589.2,120.7,589.2,120.7z M600.5,129.5L600.5,129.5
		c0-3.3,2.2-5.1,4.6-5.1c1.6,0,2.7,0.8,3.4,1.7v-5.3h2.3v13.6h-2.3v-1.6c-0.7,1-1.8,1.9-3.4,1.9
		C602.8,134.6,600.5,132.7,600.5,129.5L600.5,129.5z M608.5,129.5L608.5,129.5c0-1.9-1.3-3.2-2.8-3.2s-2.8,1.2-2.8,3.2v0
		c0,1.9,1.3,3.1,2.8,3.1S608.5,131.3,608.5,129.5z M613,129.5L613,129.5c0-2.9,2.2-5.2,5.3-5.2s5.2,2.3,5.2,5.1v0
		c0,2.8-2.2,5.1-5.3,5.1S613,132.3,613,129.5z M621.2,129.5L621.2,129.5c0-1.8-1.2-3.2-3-3.2s-3,1.4-3,3.1v0c0,1.7,1.2,3.2,3,3.2
		S621.2,131.2,621.2,129.5L621.2,129.5z M625.8,124.5h2.3v1.5c0.6-0.9,1.5-1.7,3.1-1.7c2.2,0,3.5,1.5,3.5,3.8v6.3h-2.3v-5.6
		c0-1.5-0.8-2.4-2.1-2.4s-2.2,0.9-2.2,2.4v5.6h-2.3L625.8,124.5L625.8,124.5z M643.3,134.4v-1.2c-0.7,0.8-1.7,1.4-3.2,1.4
		c-1.9,0-3.5-1.1-3.5-3v0c0-2.2,1.7-3.2,4-3.2c1.2,0,2,0.2,2.7,0.4v-0.2c0-1.4-0.9-2.1-2.4-2.1c-1.1,0-1.9,0.2-2.8,0.6
		c-0.2-0.7-0.4-1.1-0.6-1.8c1.1-0.5,2.1-0.8,3.8-0.8c2.9,0,4.3,1.5,4.3,4.2v5.8L643.3,134.4L643.3,134.4z M643.4,130.2
		c-0.6-0.2-1.4-0.4-2.3-0.4c-1.4,0-2.3,0.6-2.3,1.5v0c0,0.9,0.8,1.5,1.9,1.5c1.5,0,2.6-0.8,2.6-2.1L643.4,130.2L643.4,130.2z
		 M648.6,131.6v-5.2h-1.2v-1.9h1.2v-2.7h2.3v2.7h2.7v1.9h-2.7v4.8c0,0.9,0.5,1.2,1.2,1.2c0.5,0,1-0.1,1.4-0.3v1.9
		c-0.6,0.3-1.2,0.5-2,0.5C649.8,134.5,648.7,133.8,648.6,131.6L648.6,131.6z M655.9,120.9h2.4v2.1h-2.4V120.9z M656,124.5h2.3v9.9
		H656C656,134.4,656,124.5,656,124.5z M660.6,129.5L660.6,129.5c0-2.9,2.2-5.2,5.3-5.2s5.2,2.3,5.2,5.1v0c0,2.8-2.2,5.1-5.3,5.1
		S660.6,132.3,660.6,129.5z M668.9,129.5L668.9,129.5c0-1.8-1.2-3.2-3-3.2s-3,1.4-3,3.1v0c0,1.7,1.2,3.2,3,3.2
		S668.9,131.2,668.9,129.5L668.9,129.5z M673.4,124.5h2.3v1.5c0.6-0.9,1.5-1.7,3.1-1.7c2.2,0,3.5,1.5,3.5,3.8v6.3H680v-5.6
		c0-1.5-0.8-2.4-2.1-2.4s-2.2,0.9-2.2,2.4v5.6h-2.3L673.4,124.5L673.4,124.5z M684.2,133.1c0.4-0.6,0.6-0.9,1-1.5
		c1.1,0.8,2.2,1.2,3.2,1.2s1.5-0.4,1.5-1.1v0c0-0.8-1-1-2.2-1.4c-1.4-0.4-3.1-1-3.1-2.9v0c0-1.9,1.5-3,3.5-3c1.2,0,2.6,0.4,3.6,1.1
		c-0.4,0.6-0.5,1-0.9,1.6c-1-0.6-2-0.9-2.8-0.9c-0.9,0-1.4,0.4-1.4,1v0c0,0.7,1.1,1,2.2,1.4c1.4,0.4,3.1,1.1,3.1,2.9v0
		c0,2.1-1.6,3.1-3.7,3.1C687,134.6,685.4,134.1,684.2,133.1L684.2,133.1z M693.5,136.1c1.1-0.2,1.7-0.8,1.6-1.8h-1v-2.6h2.5v2.2
		c0,2.1-1,2.9-2.9,3.1C693.6,136.7,693.6,136.5,693.5,136.1L693.5,136.1z M705.4,129.5L705.4,129.5c0-2.9,2-5.2,4.8-5.2
		c3.1,0,4.7,2.5,4.7,5.3c0,0.2,0,0.4,0,0.6h-7.2c0.2,1.6,1.4,2.5,2.8,2.5c1.1,0,1.9-0.4,2.7-1.2c0.5,0.5,0.8,0.7,1.3,1.2
		c-0.9,1.1-2.2,1.9-4,1.9C707.6,134.6,705.4,132.5,705.4,129.5L705.4,129.5z M712.7,128.8c-0.2-1.5-1-2.6-2.5-2.6
		c-1.4,0-2.3,1.1-2.5,2.6H712.7z M715.8,124.5h2.4c1.1,2.9,1.6,4.3,2.7,7.2c1.1-2.9,1.6-4.3,2.7-7.2h2.4c-1.6,4-2.4,6-4,9.9h-2
		C718.2,130.5,717.4,128.5,715.8,124.5L715.8,124.5z M726.7,129.5L726.7,129.5c0-2.9,2-5.2,4.8-5.2c3.1,0,4.7,2.5,4.7,5.3
		c0,0.2,0,0.4,0,0.6H729c0.2,1.6,1.4,2.5,2.8,2.5c1.1,0,1.9-0.4,2.7-1.2c0.5,0.5,0.8,0.7,1.3,1.2c-0.9,1.1-2.2,1.9-4,1.9
		C728.9,134.6,726.7,132.5,726.7,129.5L726.7,129.5z M734,128.8c-0.2-1.5-1-2.6-2.5-2.6c-1.4,0-2.3,1.1-2.5,2.6H734z M738.6,124.5
		h2.3v2.2c0.6-1.5,1.8-2.5,3.5-2.4v2.4h-0.1c-2,0-3.4,1.3-3.4,3.9v3.8h-2.3V124.5z M745.9,136.8c0.3-0.7,0.5-1,0.8-1.7
		c0.4,0.2,0.9,0.4,1.3,0.4c0.6,0,1-0.3,1.4-1.1c-1.6-3.9-2.5-5.9-4.1-9.8h2.4c1.1,2.9,1.7,4.4,2.8,7.3c1-2.9,1.5-4.4,2.5-7.3h2.3
		c-1.6,4.1-2.3,6.1-3.9,10.1c-0.8,2-1.7,2.8-3.2,2.8C747.3,137.4,746.6,137.2,745.9,136.8L745.9,136.8z M383.4,146.9h2.3v1.6
		c0.7-1,1.8-1.9,3.3-1.9c2.3,0,4.6,1.9,4.6,5.1v0c0,3.3-2.2,5.1-4.6,5.1c-1.6,0-2.6-0.8-3.3-1.7v4.5h-2.3V146.9L383.4,146.9z
		 M391.3,151.9L391.3,151.9c0-1.9-1.3-3.2-2.8-3.2s-2.9,1.3-2.9,3.1v0c0,1.9,1.3,3.1,2.9,3.1S391.3,153.8,391.3,151.9z M395.4,151.9
		L395.4,151.9c0-2.9,2-5.2,4.8-5.2c3.1,0,4.7,2.5,4.7,5.3c0,0.2,0,0.4,0,0.6h-7.2c0.2,1.6,1.4,2.5,2.8,2.5c1.1,0,1.9-0.4,2.7-1.2
		c0.5,0.5,0.8,0.7,1.3,1.2c-0.9,1.1-2.2,1.9-4,1.9C397.6,157,395.4,154.9,395.4,151.9L395.4,151.9z M402.7,151.1
		c-0.1-1.5-1-2.6-2.5-2.6c-1.4,0-2.4,1.1-2.5,2.6H402.7z M407.2,146.9h2.3v1.5c0.6-0.9,1.5-1.7,3.1-1.7c2.2,0,3.5,1.5,3.5,3.8v6.3
		h-2.3v-5.6c0-1.5-0.8-2.4-2.1-2.4s-2.2,0.9-2.2,2.4v5.6h-2.3V146.9L407.2,146.9z M418.7,146.9h2.3v1.5c0.6-0.9,1.5-1.7,3.1-1.7
		c2.2,0,3.5,1.5,3.5,3.8v6.3h-2.3v-5.6c0-1.5-0.8-2.4-2.1-2.4s-2.2,0.9-2.2,2.4v5.6h-2.3V146.9L418.7,146.9z M429.7,159.2
		c0.3-0.7,0.5-1,0.8-1.7c0.4,0.2,0.9,0.4,1.3,0.4c0.6,0,1-0.3,1.4-1.1c-1.6-3.9-2.5-5.9-4.1-9.9h2.4c1.1,2.9,1.7,4.4,2.8,7.3
		c1-2.9,1.5-4.4,2.5-7.3h2.4c-1.6,4.1-2.4,6.1-3.9,10.1c-0.8,2-1.7,2.8-3.2,2.8C431.1,159.8,430.4,159.6,429.7,159.2L429.7,159.2z
		 M445.9,146.9h2.3c0.8,2.7,1.2,4.1,2,6.8c0.9-2.7,1.3-4.1,2.2-6.8h1.9c0.9,2.7,1.3,4.1,2.2,6.8c0.8-2.7,1.2-4.1,2-6.8h2.3
		c-1.3,4-1.9,5.9-3.2,9.9h-2c-0.9-2.7-1.3-4-2.2-6.7c-0.9,2.7-1.3,4-2.2,6.7h-2C447.8,152.9,447.2,150.9,445.9,146.9z M462.8,143.3
		h2.4v2.1h-2.4V143.3z M462.9,146.9h2.3v9.9h-2.3V146.9z M468.3,143.1h2.3v13.6h-2.3V143.1z M473.6,143.1h2.3v13.6h-2.3V143.1z
		 M484.4,158.6c0.3-0.7,0.5-1,0.8-1.7c1,0.6,2.2,1,3.5,1c2,0,3.1-1,3.1-3v-0.8c-0.8,1.1-1.9,1.8-3.5,1.8c-2.3,0-4.5-1.7-4.5-4.6v0
		c0-2.9,2.2-4.6,4.5-4.6c1.7,0,2.7,0.8,3.5,1.7v-1.5h2.3v7.8c0,1.7-0.4,2.9-1.2,3.7c-0.9,0.9-2.3,1.3-4,1.3
		C487.1,159.8,485.6,159.4,484.4,158.6L484.4,158.6z M491.8,151.4L491.8,151.4c0-1.7-1.3-2.8-2.9-2.8s-2.8,1.1-2.8,2.7v0
		c0,1.6,1.2,2.7,2.8,2.7S491.8,152.9,491.8,151.4z M496.3,151.9L496.3,151.9c0-2.9,2.2-5.2,5.3-5.2s5.2,2.3,5.2,5.1v0
		c0,2.8-2.2,5.1-5.3,5.1S496.3,154.7,496.3,151.9L496.3,151.9z M504.6,151.9L504.6,151.9c0-1.8-1.2-3.2-3-3.2s-3,1.4-3,3.1v0
		c0,1.7,1.2,3.2,3,3.2S504.6,153.6,504.6,151.9L504.6,151.9z M515.2,154v-5.2H514v-1.9h1.2v-2.7h2.3v2.7h2.7v1.9h-2.7v4.8
		c0,0.9,0.5,1.2,1.2,1.2c0.5,0,1-0.1,1.4-0.3v1.9c-0.6,0.3-1.2,0.5-2,0.5C516.4,156.9,515.2,156.2,515.2,154L515.2,154z
		 M521.6,151.9L521.6,151.9c0-2.9,2.2-5.2,5.3-5.2s5.2,2.3,5.2,5.1v0c0,2.8-2.2,5.1-5.3,5.1S521.6,154.7,521.6,151.9L521.6,151.9z
		 M529.8,151.9L529.8,151.9c0-1.8-1.2-3.2-3-3.2s-3,1.4-3,3.1v0c0,1.7,1.2,3.2,3,3.2S529.8,153.6,529.8,151.9L529.8,151.9z
		 M540.5,148.8h-1.2V147h1.2v-0.7c0-1.1,0.3-1.9,0.8-2.4c0.5-0.5,1.2-0.8,2.2-0.8c0.8,0,1.3,0.1,1.8,0.3v1.9
		c-0.5-0.1-0.8-0.2-1.3-0.2c-0.9,0-1.3,0.5-1.3,1.5v0.5h2.6v1.9h-2.6v7.9h-2.3L540.5,148.8L540.5,148.8z M546.9,153.2v-6.3h2.3v5.6
		c0,1.5,0.8,2.4,2.1,2.4s2.2-0.9,2.2-2.4v-5.6h2.3v9.9h-2.3v-1.5c-0.6,0.9-1.5,1.7-3.1,1.7C548.1,157,546.9,155.5,546.9,153.2
		L546.9,153.2z M558.5,146.9h2.3v1.5c0.6-0.9,1.5-1.7,3.1-1.7c2.2,0,3.5,1.5,3.5,3.8v6.3h-2.3v-5.6c0-1.5-0.8-2.4-2.1-2.4
		s-2.2,0.9-2.2,2.4v5.6h-2.3L558.5,146.9L558.5,146.9z M569.6,151.8L569.6,151.8c0-3.3,2.2-5.1,4.6-5.1c1.6,0,2.7,0.8,3.4,1.7v-5.3
		h2.3v13.6h-2.3v-1.6c-0.7,1-1.8,1.9-3.4,1.9C571.9,156.9,569.6,155.1,569.6,151.8L569.6,151.8z M577.6,151.8L577.6,151.8
		c0-1.9-1.3-3.2-2.8-3.2s-2.8,1.2-2.8,3.1v0c0,1.9,1.3,3.1,2.8,3.1S577.6,153.7,577.6,151.8z M582.6,143.2h2.4v2.1h-2.4V143.2z
		 M582.7,146.9h2.3v9.9h-2.3V146.9z M587.9,146.9h2.3v1.5c0.6-0.9,1.5-1.7,3.1-1.7c2.2,0,3.5,1.5,3.5,3.8v6.3h-2.3v-5.6
		c0-1.5-0.8-2.4-2.1-2.4s-2.2,0.9-2.2,2.4v5.6h-2.3L587.9,146.9L587.9,146.9z M599.5,158.6c0.3-0.7,0.5-1,0.8-1.7c1,0.6,2.2,1,3.5,1
		c2,0,3.1-1,3.1-3v-0.8c-0.8,1.1-1.8,1.8-3.5,1.8c-2.3,0-4.5-1.7-4.5-4.6v0c0-2.9,2.2-4.6,4.5-4.6c1.7,0,2.7,0.8,3.5,1.7v-1.5h2.3
		v7.8c0,1.7-0.4,2.9-1.2,3.7c-0.9,0.9-2.3,1.3-4,1.3C602.3,159.8,600.8,159.3,599.5,158.6L599.5,158.6z M607,151.4L607,151.4
		c0-1.7-1.3-2.8-2.9-2.8s-2.8,1.1-2.8,2.7v0c0,1.6,1.2,2.7,2.8,2.7S607,152.9,607,151.4z M617.1,151.9L617.1,151.9
		c0-2.9,2.2-5.2,5.3-5.2s5.2,2.3,5.2,5.1v0c0,2.8-2.2,5.1-5.3,5.1S617.1,154.7,617.1,151.9L617.1,151.9z M625.3,151.9L625.3,151.9
		c0-1.8-1.2-3.2-3-3.2s-3,1.4-3,3.1v0c0,1.7,1.2,3.2,3,3.2S625.3,153.6,625.3,151.9L625.3,151.9z M629.7,153.2v-6.3h2.3v5.6
		c0,1.5,0.8,2.4,2.1,2.4s2.2-0.9,2.2-2.4v-5.6h2.3v9.9h-2.3v-1.5c-0.6,0.9-1.5,1.7-3.1,1.7C631,156.9,629.7,155.5,629.7,153.2
		L629.7,153.2z M641.4,146.9h2.3v2.2c0.6-1.5,1.8-2.5,3.5-2.4v2.4H647c-2,0-3.4,1.3-3.4,3.9v3.8h-2.3V146.9L641.4,146.9z
		 M653.9,155.5c0.4-0.6,0.6-0.9,1-1.5c1.1,0.8,2.2,1.2,3.2,1.2s1.5-0.4,1.5-1.1v0c0-0.8-1-1-2.2-1.4c-1.4-0.4-3.1-1-3.1-2.9v0
		c0-1.9,1.5-3,3.5-3c1.2,0,2.6,0.4,3.6,1.1c-0.4,0.6-0.5,1-0.9,1.6c-1-0.6-2-0.9-2.8-0.9c-0.9,0-1.4,0.4-1.4,1v0
		c0,0.7,1.1,1,2.2,1.4c1.4,0.4,3.1,1.1,3.1,2.9v0c0,2.1-1.6,3.1-3.7,3.1C656.7,156.9,655.1,156.4,653.9,155.5L653.9,155.5z
		 M663.5,151.9L663.5,151.9c0-2.9,2-5.2,4.8-5.2c3.1,0,4.7,2.5,4.7,5.3c0,0.2,0,0.4,0,0.6h-7.2c0.2,1.6,1.4,2.5,2.8,2.5
		c1.1,0,1.9-0.4,2.7-1.2c0.5,0.5,0.8,0.7,1.3,1.2c-0.9,1.1-2.2,1.9-4,1.9C665.7,157,663.5,154.9,663.5,151.9L663.5,151.9z
		 M670.8,151.1c-0.2-1.5-1-2.6-2.5-2.6c-1.4,0-2.3,1.1-2.5,2.6H670.8z M675.3,146.9h2.3v2.2c0.6-1.5,1.8-2.5,3.5-2.4v2.4h-0.1
		c-2,0-3.4,1.3-3.4,3.9v3.8h-2.3V146.9L675.3,146.9z M682.1,146.9h2.4c1.1,2.9,1.6,4.3,2.7,7.2c1.1-2.9,1.6-4.3,2.7-7.2h2.4
		c-1.6,4-2.4,5.9-4,9.9h-2C684.5,152.8,683.7,150.9,682.1,146.9L682.1,146.9z M694.2,143.2h2.4v2.1h-2.4V143.2z M694.2,146.9h2.3
		v9.9h-2.3V146.9z M698.9,151.9L698.9,151.9c0-2.8,2.2-5.2,5.1-5.2c1.9,0,3,0.7,3.9,1.7c-0.6,0.6-0.8,0.9-1.4,1.5
		c-0.7-0.7-1.4-1.2-2.5-1.2c-1.6,0-2.8,1.4-2.8,3.1v0c0,1.8,1.2,3.2,3,3.2c1.1,0,1.8-0.5,2.5-1.2c0.5,0.5,0.8,0.8,1.4,1.3
		c-1,1.1-2.1,1.9-4,1.9C701.1,157,698.9,154.7,698.9,151.9L698.9,151.9z M709.3,151.9L709.3,151.9c0-2.9,2-5.2,4.8-5.2
		c3.1,0,4.7,2.5,4.7,5.3c0,0.2,0,0.4,0,0.6h-7.2c0.2,1.6,1.4,2.5,2.8,2.5c1.1,0,1.9-0.4,2.7-1.2c0.5,0.5,0.8,0.7,1.3,1.2
		c-0.9,1.1-2.2,1.9-4,1.9C711.5,157,709.3,154.9,709.3,151.9L709.3,151.9z M716.6,151.1c-0.2-1.5-1-2.6-2.5-2.6
		c-1.4,0-2.3,1.1-2.5,2.6H716.6z M720.3,155.5c0.4-0.6,0.6-0.9,1-1.5c1.1,0.8,2.2,1.2,3.2,1.2s1.5-0.4,1.5-1.1v0c0-0.8-1-1-2.2-1.4
		c-1.4-0.4-3.1-1-3.1-2.9v0c0-1.9,1.5-3,3.5-3c1.2,0,2.6,0.4,3.6,1.1c-0.4,0.6-0.5,1-0.9,1.6c-1-0.6-2-0.9-2.8-0.9
		c-0.9,0-1.4,0.4-1.4,1v0c0,0.7,1.1,1,2.2,1.4c1.4,0.4,3.1,1.1,3.1,2.9v0c0,2.1-1.6,3.1-3.7,3.1
		C723.1,156.9,721.5,156.4,720.3,155.5L720.3,155.5z M730.3,154.2h2.5v2.6h-2.5V154.2z M364.9,176.7h-4.1v-2.1h10.6v2.1h-4.1v10.9
		h-2.3L364.9,176.7L364.9,176.7z M373.3,174h2.3v5.3c0.6-0.9,1.5-1.7,3.1-1.7c2.2,0,3.5,1.5,3.5,3.8v6.3h-2.3V182
		c0-1.5-0.8-2.4-2.1-2.4s-2.2,0.9-2.2,2.4v5.6h-2.3V174L373.3,174z M390.9,187.6v-1.2c-0.7,0.8-1.7,1.4-3.2,1.4
		c-1.9,0-3.5-1.1-3.5-3v0c0-2.2,1.7-3.2,4-3.2c1.2,0,2,0.2,2.7,0.4v-0.2c0-1.4-0.9-2.1-2.4-2.1c-1.1,0-1.9,0.2-2.8,0.6
		c-0.2-0.7-0.4-1.1-0.6-1.8c1.1-0.5,2.1-0.8,3.8-0.8c2.9,0,4.3,1.5,4.3,4.2v5.8H390.9L390.9,187.6z M391,183.5
		c-0.6-0.2-1.4-0.4-2.3-0.4c-1.4,0-2.3,0.6-2.3,1.5v0c0,0.9,0.8,1.5,1.9,1.5c1.5,0,2.6-0.8,2.6-2.1L391,183.5L391,183.5z
		 M395.9,177.8h2.3v1.5c0.6-0.9,1.5-1.7,3.1-1.7c2.2,0,3.5,1.5,3.5,3.8v6.3h-2.3V182c0-1.5-0.8-2.4-2.1-2.4s-2.2,0.9-2.2,2.4v5.6
		h-2.3V177.8L395.9,177.8z M407.4,174h2.3v8.1c1.6-1.8,2.5-2.6,4.1-4.4h2.7c-1.6,1.6-2.4,2.4-3.9,4c1.6,2.3,2.4,3.5,4,5.8H414
		c-1.2-1.7-1.8-2.6-3-4.2c-0.5,0.6-0.8,0.9-1.4,1.4v2.8h-2.3L407.4,174L407.4,174z M427.8,190.1c0.3-0.7,0.5-1,0.8-1.7
		c0.4,0.2,0.9,0.4,1.3,0.4c0.6,0,1-0.3,1.4-1.1c-1.6-3.9-2.5-5.9-4.1-9.9h2.4c1.1,2.9,1.7,4.4,2.8,7.3c1-2.9,1.5-4.4,2.5-7.3h2.4
		c-1.6,4.1-2.4,6.1-3.9,10.1c-0.8,2-1.7,2.8-3.2,2.8C429.2,190.6,428.5,190.4,427.8,190.1L427.8,190.1z M438.2,182.7L438.2,182.7
		c0-2.9,2.2-5.2,5.3-5.2s5.2,2.3,5.2,5.1v0c0,2.8-2.2,5.1-5.3,5.1S438.2,185.5,438.2,182.7L438.2,182.7z M446.4,182.7L446.4,182.7
		c0-1.8-1.2-3.2-3-3.2s-3,1.4-3,3.1v0c0,1.7,1.2,3.2,3,3.2S446.4,184.4,446.4,182.7L446.4,182.7z M450.8,184v-6.3h2.3v5.6
		c0,1.5,0.8,2.4,2.1,2.4s2.2-0.9,2.2-2.4v-5.6h2.3v9.9h-2.3v-1.5c-0.6,0.9-1.5,1.7-3.1,1.7C452.1,187.8,450.8,186.3,450.8,184
		L450.8,184z M472.9,179.7h-1.2v-1.9h1.2v-0.7c0-1.1,0.3-1.9,0.8-2.4s1.2-0.8,2.2-0.8c0.8,0,1.3,0.1,1.8,0.3v1.9
		c-0.5-0.1-0.8-0.2-1.3-0.2c-0.9,0-1.3,0.5-1.3,1.5v0.5h2.6v1.9h-2.6v7.9h-2.3L472.9,179.7L472.9,179.7z M478.7,182.7L478.7,182.7
		c0-2.9,2.2-5.2,5.3-5.2s5.2,2.3,5.2,5.1v0c0,2.8-2.2,5.1-5.3,5.1S478.7,185.5,478.7,182.7L478.7,182.7z M486.9,182.7L486.9,182.7
		c0-1.8-1.2-3.2-3-3.2s-3,1.4-3,3.1v0c0,1.7,1.2,3.2,3,3.2S486.9,184.4,486.9,182.7L486.9,182.7z M491.4,177.8h2.3v2.2
		c0.6-1.5,1.8-2.5,3.5-2.4v2.4h-0.1c-2,0-3.4,1.3-3.4,3.9v3.8h-2.3V177.8L491.4,177.8z M508.7,190.1c0.3-0.7,0.5-1,0.8-1.7
		c0.4,0.2,0.9,0.4,1.3,0.4c0.6,0,1-0.3,1.4-1.1c-1.6-3.9-2.5-5.9-4.1-9.9h2.4c1.1,2.9,1.7,4.4,2.8,7.3c1-2.9,1.5-4.4,2.5-7.3h2.3
		c-1.6,4.1-2.3,6.1-3.9,10.1c-0.8,2-1.7,2.8-3.2,2.8C510.1,190.6,509.4,190.4,508.7,190.1L508.7,190.1z M519,182.7L519,182.7
		c0-2.9,2.2-5.2,5.3-5.2s5.2,2.3,5.2,5.1v0c0,2.8-2.2,5.1-5.3,5.1S519,185.5,519,182.7L519,182.7z M527.2,182.7L527.2,182.7
		c0-1.8-1.2-3.2-3-3.2s-3,1.4-3,3.1v0c0,1.7,1.2,3.2,3,3.2S527.2,184.4,527.2,182.7L527.2,182.7z M531.7,184v-6.3h2.3v5.6
		c0,1.5,0.8,2.4,2.1,2.4s2.2-0.9,2.2-2.4v-5.6h2.3v9.9h-2.3v-1.5c-0.6,0.9-1.5,1.7-3.1,1.7C533,187.8,531.7,186.3,531.7,184
		L531.7,184z M543.4,177.8h2.3v2.2c0.6-1.5,1.8-2.5,3.5-2.4v2.4H549c-2,0-3.4,1.3-3.4,3.9v3.8h-2.3V177.8L543.4,177.8z M560.9,189.5
		c0.3-0.7,0.5-1,0.8-1.7c1,0.6,2.2,1,3.5,1c2,0,3.1-1,3.1-3V185c-0.8,1.1-1.8,1.8-3.5,1.8c-2.3,0-4.5-1.7-4.5-4.6v0
		c0-2.9,2.2-4.6,4.5-4.6c1.7,0,2.7,0.8,3.5,1.7v-1.5h2.3v7.8c0,1.7-0.4,2.9-1.2,3.7c-0.9,0.9-2.3,1.3-4,1.3
		C563.7,190.6,562.2,190.2,560.9,189.5L560.9,189.5z M568.4,182.2L568.4,182.2c0-1.7-1.3-2.8-2.9-2.8s-2.8,1.1-2.8,2.7v0
		c0,1.6,1.2,2.7,2.8,2.7S568.4,183.8,568.4,182.2z M572.9,182.7L572.9,182.7c0-2.9,2-5.2,4.8-5.2c3.1,0,4.7,2.5,4.7,5.3
		c0,0.2,0,0.4,0,0.6h-7.2c0.2,1.6,1.4,2.5,2.8,2.5c1.1,0,1.9-0.4,2.7-1.2c0.5,0.5,0.8,0.7,1.3,1.2c-0.9,1.1-2.2,1.9-4,1.9
		C575.1,187.8,572.9,185.8,572.9,182.7L572.9,182.7z M580.2,182c-0.2-1.5-1-2.6-2.5-2.6c-1.4,0-2.3,1.1-2.5,2.6H580.2z M584.7,177.8
		h2.3v1.5c0.6-0.9,1.5-1.7,3.1-1.7c2.2,0,3.5,1.5,3.5,3.8v6.3h-2.3V182c0-1.5-0.8-2.4-2.1-2.4s-2.2,0.9-2.2,2.4v5.6h-2.3
		L584.7,177.8L584.7,177.8z M595.7,182.7L595.7,182.7c0-2.9,2-5.2,4.8-5.2c3.1,0,4.7,2.5,4.7,5.3c0,0.2,0,0.4,0,0.6H598
		c0.2,1.6,1.4,2.5,2.8,2.5c1.1,0,1.9-0.4,2.7-1.2c0.5,0.5,0.8,0.7,1.3,1.2c-0.9,1.1-2.2,1.9-4,1.9
		C597.9,187.8,595.7,185.8,595.7,182.7L595.7,182.7z M603,182c-0.2-1.5-1-2.6-2.5-2.6c-1.4,0-2.3,1.1-2.5,2.6H603z M607.5,177.8h2.3
		v2.2c0.6-1.5,1.8-2.5,3.5-2.4v2.4h-0.1c-2,0-3.4,1.3-3.4,3.9v3.8h-2.3V177.8L607.5,177.8z M614.4,182.7L614.4,182.7
		c0-2.9,2.2-5.2,5.3-5.2s5.2,2.3,5.2,5.1v0c0,2.8-2.2,5.1-5.3,5.1S614.4,185.5,614.4,182.7L614.4,182.7z M622.6,182.7L622.6,182.7
		c0-1.8-1.2-3.2-3-3.2s-3,1.4-3,3.1v0c0,1.7,1.2,3.2,3,3.2S622.6,184.4,622.6,182.7L622.6,182.7z M626.3,186.3
		c0.4-0.6,0.6-0.9,1-1.5c1.1,0.8,2.2,1.2,3.2,1.2s1.5-0.4,1.5-1.1v0c0-0.8-1-1-2.2-1.4c-1.4-0.4-3.1-1-3.1-2.9v0c0-1.9,1.5-3,3.5-3
		c1.2,0,2.6,0.4,3.6,1.1c-0.4,0.6-0.5,1-0.9,1.6c-1-0.6-2-0.9-2.8-0.9c-0.9,0-1.4,0.4-1.4,1v0c0,0.7,1.1,1,2.2,1.4
		c1.4,0.4,3.1,1.1,3.1,2.9v0c0,2.1-1.6,3.1-3.7,3.1C629.1,187.8,627.6,187.3,626.3,186.3L626.3,186.3z M636.5,174.1h2.4v2.1h-2.4
		V174.1z M636.6,177.8h2.3v9.9h-2.3V177.8z M642.3,184.9v-5.2H641v-1.9h1.2v-2.7h2.3v2.7h2.7v1.9h-2.7v4.8c0,0.9,0.5,1.2,1.2,1.2
		c0.5,0,1-0.1,1.4-0.3v1.9c-0.6,0.3-1.2,0.5-2,0.5C643.5,187.8,642.3,187,642.3,184.9L642.3,184.9z M649.1,190
		c0.3-0.7,0.5-1,0.8-1.7c0.4,0.2,0.9,0.4,1.3,0.4c0.6,0,1-0.3,1.4-1.1c-1.6-3.9-2.5-5.9-4.1-9.9h2.4c1.1,2.9,1.7,4.4,2.8,7.3
		c1-2.9,1.5-4.4,2.5-7.3h2.3c-1.6,4.1-2.3,6.1-3.9,10.1c-0.8,2-1.7,2.8-3.2,2.8C650.5,190.6,649.8,190.4,649.1,190L649.1,190z
		 M676.4,187.6v-1.2c-0.7,0.8-1.7,1.4-3.2,1.4c-1.9,0-3.5-1.1-3.5-3v0c0-2.2,1.7-3.2,4-3.2c1.2,0,2,0.2,2.7,0.4v-0.2
		c0-1.4-0.9-2.1-2.4-2.1c-1.1,0-1.9,0.2-2.8,0.6c-0.2-0.7-0.4-1.1-0.6-1.8c1.1-0.5,2.1-0.8,3.8-0.8c2.9,0,4.3,1.5,4.3,4.2v5.8H676.4
		L676.4,187.6z M676.5,183.5c-0.6-0.2-1.4-0.4-2.3-0.4c-1.4,0-2.3,0.6-2.3,1.5v0c0,0.9,0.8,1.5,1.9,1.5c1.5,0,2.6-0.8,2.6-2.1
		L676.5,183.5L676.5,183.5z M681.4,177.8h2.3v1.5c0.6-0.9,1.5-1.7,3.1-1.7c2.2,0,3.5,1.5,3.5,3.8v6.3H688V182c0-1.5-0.8-2.4-2.1-2.4
		s-2.2,0.9-2.2,2.4v5.6h-2.3L681.4,177.8L681.4,177.8z M692.4,182.7L692.4,182.7c0-3.3,2.2-5.1,4.6-5.1c1.6,0,2.7,0.8,3.4,1.7V174
		h2.3v13.6h-2.3V186c-0.7,1-1.8,1.9-3.4,1.9C694.7,187.8,692.4,186,692.4,182.7L692.4,182.7z M700.4,182.7L700.4,182.7
		c0-1.9-1.3-3.2-2.8-3.2s-2.8,1.2-2.8,3.1v0c0,1.9,1.3,3.1,2.8,3.1S700.4,184.6,700.4,182.7z M715,190.1c0.3-0.7,0.5-1,0.8-1.7
		c0.4,0.2,0.9,0.4,1.3,0.4c0.6,0,1-0.3,1.4-1.1c-1.6-3.9-2.5-5.9-4.1-9.9h2.4c1.1,2.9,1.7,4.4,2.8,7.3c1-2.9,1.5-4.4,2.5-7.3h2.3
		c-1.6,4.1-2.3,6.1-3.9,10.1c-0.8,2-1.7,2.8-3.2,2.8C716.4,190.6,715.7,190.4,715,190.1L715,190.1z M725.3,182.7L725.3,182.7
		c0-2.9,2.2-5.2,5.3-5.2s5.2,2.3,5.2,5.1v0c0,2.8-2.2,5.1-5.3,5.1S725.3,185.5,725.3,182.7L725.3,182.7z M733.5,182.7L733.5,182.7
		c0-1.8-1.2-3.2-3-3.2s-3,1.4-3,3.1v0c0,1.7,1.2,3.2,3,3.2S733.5,184.4,733.5,182.7L733.5,182.7z M738,184v-6.3h2.3v5.6
		c0,1.5,0.8,2.4,2.1,2.4s2.2-0.9,2.2-2.4v-5.6h2.3v9.9h-2.3v-1.5c-0.6,0.9-1.5,1.7-3.1,1.7C739.3,187.8,738,186.3,738,184L738,184z
		 M749.7,177.8h2.3v2.2c0.6-1.5,1.8-2.5,3.5-2.4v2.4h-0.1c-2,0-3.4,1.3-3.4,3.9v3.8h-2.3V177.8L749.7,177.8z M472.3,205.1
		L472.3,205.1c0-2.8,2.2-5.2,5.1-5.2c1.9,0,3,0.7,3.9,1.7c-0.6,0.6-0.8,0.9-1.4,1.5c-0.7-0.7-1.4-1.2-2.5-1.2
		c-1.6,0-2.8,1.4-2.8,3.1v0c0,1.8,1.2,3.2,3,3.2c1.1,0,1.9-0.5,2.5-1.2c0.5,0.5,0.8,0.8,1.4,1.3c-1,1.1-2.1,1.9-4,1.9
		C474.4,210.2,472.3,207.9,472.3,205.1L472.3,205.1z M482.7,205.1L482.7,205.1c0-2.9,2.2-5.2,5.3-5.2s5.2,2.3,5.2,5.1v0
		c0,2.8-2.2,5.1-5.3,5.1S482.7,207.9,482.7,205.1L482.7,205.1z M490.9,205.1L490.9,205.1c0-1.8-1.2-3.2-3-3.2s-3,1.4-3,3.1v0
		c0,1.7,1.2,3.2,3,3.2S490.9,206.8,490.9,205.1L490.9,205.1z M495.4,200.1h2.3v1.5c0.6-0.9,1.5-1.7,3.1-1.7c2.2,0,3.5,1.5,3.5,3.8
		v6.3H502v-5.6c0-1.5-0.8-2.4-2.1-2.4s-2.2,0.9-2.2,2.4v5.6h-2.3V200.1L495.4,200.1z M507.5,207.3v-5.2h-1.2v-1.9h1.2v-2.7h2.3v2.7
		h2.6v1.9h-2.6v4.8c0,0.9,0.5,1.2,1.2,1.2c0.5,0,1-0.1,1.4-0.3v1.9c-0.6,0.3-1.2,0.5-2,0.5C508.7,210.2,507.5,209.4,507.5,207.3
		L507.5,207.3z M514.7,196.5h2.4v2.1h-2.4V196.5z M514.8,200.1h2.3v9.9h-2.3V200.1z M520,200.1h2.3v1.5c0.6-0.9,1.5-1.7,3.1-1.7
		c2.2,0,3.5,1.5,3.5,3.8v6.3h-2.3v-5.6c0-1.5-0.8-2.4-2.1-2.4s-2.2,0.9-2.2,2.4v5.6H520L520,200.1L520,200.1z M531.4,206.4v-6.3h2.3
		v5.6c0,1.5,0.8,2.4,2.1,2.4s2.2-0.9,2.2-2.4v-5.6h2.3v9.9H538v-1.5c-0.6,0.9-1.5,1.7-3.1,1.7C532.7,210.2,531.4,208.7,531.4,206.4
		L531.4,206.4z M542.6,205.1L542.6,205.1c0-2.9,2-5.2,4.8-5.2c3.1,0,4.7,2.5,4.7,5.3c0,0.2,0,0.4,0,0.6h-7.2
		c0.2,1.6,1.4,2.5,2.8,2.5c1.1,0,1.9-0.4,2.7-1.2c0.5,0.5,0.8,0.7,1.3,1.2c-0.9,1.1-2.2,1.9-4,1.9
		C544.8,210.2,542.6,208.1,542.6,205.1L542.6,205.1z M549.9,204.4c-0.2-1.5-1-2.6-2.5-2.6c-1.4,0-2.3,1.1-2.5,2.6H549.9z
		 M553.9,205.1L553.9,205.1c0-3.3,2.2-5.1,4.6-5.1c1.6,0,2.7,0.8,3.4,1.7v-5.3h2.3V210h-2.3v-1.6c-0.7,1-1.8,1.9-3.4,1.9
		C556.1,210.2,553.9,208.3,553.9,205.1L553.9,205.1z M561.8,205.1L561.8,205.1c0-1.9-1.3-3.2-2.8-3.2s-2.8,1.2-2.8,3.1v0
		c0,1.9,1.3,3.1,2.8,3.1S561.8,207,561.8,205.1z M571.7,208.7c0.4-0.6,0.6-0.9,1-1.5c1.1,0.8,2.2,1.2,3.2,1.2s1.5-0.4,1.5-1.1v0
		c0-0.8-1-1-2.2-1.4c-1.4-0.4-3.1-1-3.1-2.9v0c0-1.9,1.5-3,3.5-3c1.2,0,2.6,0.4,3.6,1.1c-0.4,0.6-0.5,1-0.9,1.6
		c-1-0.6-2-0.9-2.8-0.9c-0.9,0-1.4,0.4-1.4,1v0c0,0.7,1.1,1,2.2,1.4c1.4,0.4,3.1,1.1,3.1,2.9v0c0,2.1-1.6,3.1-3.7,3.1
		C574.5,210.2,572.9,209.7,571.7,208.7L571.7,208.7z M581.7,206.4v-6.3h2.3v5.6c0,1.5,0.8,2.4,2.1,2.4s2.2-0.9,2.2-2.4v-5.6h2.3v9.9
		h-2.3v-1.5c-0.6,0.9-1.5,1.7-3.1,1.7C583,210.2,581.7,208.7,581.7,206.4L581.7,206.4z M593.4,200.1h2.3v1.6c0.7-1,1.8-1.9,3.3-1.9
		c2.3,0,4.6,1.9,4.6,5.1v0c0,3.3-2.2,5.1-4.6,5.1c-1.6,0-2.7-0.8-3.3-1.7v4.5h-2.3V200.1L593.4,200.1z M601.3,205.1L601.3,205.1
		c0-1.9-1.3-3.2-2.8-3.2s-2.9,1.3-2.9,3.1v0c0,1.9,1.3,3.1,2.9,3.1S601.3,207,601.3,205.1z M605.9,200.1h2.3v1.6
		c0.7-1,1.8-1.9,3.3-1.9c2.3,0,4.6,1.9,4.6,5.1v0c0,3.3-2.2,5.1-4.6,5.1c-1.6,0-2.7-0.8-3.3-1.7v4.5h-2.3V200.1L605.9,200.1z
		 M613.8,205.1L613.8,205.1c0-1.9-1.3-3.2-2.8-3.2s-2.9,1.3-2.9,3.1v0c0,1.9,1.3,3.1,2.9,3.1S613.8,207,613.8,205.1z M617.8,205.1
		L617.8,205.1c0-2.9,2.2-5.2,5.3-5.2s5.2,2.3,5.2,5.1v0c0,2.8-2.2,5.1-5.3,5.1S617.8,207.9,617.8,205.1L617.8,205.1z M626.1,205.1
		L626.1,205.1c0-1.8-1.2-3.2-3-3.2s-3,1.4-3,3.1v0c0,1.7,1.2,3.2,3,3.2S626.1,206.8,626.1,205.1L626.1,205.1z M630.6,200.1h2.3v2.2
		c0.6-1.5,1.8-2.5,3.5-2.4v2.4h-0.1c-2,0-3.4,1.3-3.4,3.9v3.8h-2.3V200.1L630.6,200.1z M638.8,207.3v-5.2h-1.2v-1.9h1.2v-2.7h2.3
		v2.7h2.7v1.9h-2.7v4.8c0,0.9,0.5,1.2,1.2,1.2c0.5,0,1-0.1,1.4-0.3v1.9c-0.6,0.3-1.2,0.5-2,0.5C640,210.2,638.8,209.4,638.8,207.3
		L638.8,207.3z"/>
</g>
<g>
	<g class="st2">
		<path class="st1" d="M662.7,281.7H452.3c-8.3,0-15-6.7-15-15v-35h240.4v35C677.7,275,671,281.7,662.7,281.7z"/>
	</g>
	<g>
		<g>
			<path class="st0" d="M520.9,247.9c2.3,0,3.5,0,5.8,0c4.6,0,7.8,3.2,7.8,7.3c0,0,0,0,0,0c0,4.2-3.2,7.4-7.8,7.4
				c-2.3,0-3.5,0-5.8,0C520.9,256.7,520.9,253.8,520.9,247.9z M526.6,259.7c2.7,0,4.4-1.8,4.4-4.4c0,0,0,0,0,0
				c0-2.6-1.8-4.4-4.4-4.4c-1,0-1.5,0-2.5,0c0,3.6,0,5.3,0,8.9C525.1,259.7,525.6,259.7,526.6,259.7z"/>
			<path class="st0" d="M536.5,257.1C536.5,257,536.5,257,536.5,257.1c0-3.3,2.6-5.9,6.1-5.9c3.5,0,6.1,2.6,6.1,5.8c0,0,0,0,0,0
				c0,3.2-2.6,5.9-6.1,5.9C539.1,262.9,536.5,260.3,536.5,257.1z M545.5,257.1C545.5,257,545.5,257,545.5,257.1c0-1.7-1.2-3.2-3-3.2
				c-1.8,0-2.9,1.4-2.9,3.1c0,0,0,0,0,0c0,1.7,1.2,3.1,3,3.1C544.5,260.1,545.5,258.7,545.5,257.1z"/>
			<path class="st0" d="M551,251.4c1.3,0,1.9,0,3.2,0c0,0.6,0,1,0,1.6c0.7-0.9,1.7-1.8,3.3-1.8c2.4,0,3.8,1.6,3.8,4.2
				c0,2.9,0,4.4,0,7.3c-1.3,0-1.9,0-3.2,0c0-2.5,0-3.8,0-6.3c0-1.5-0.7-2.3-1.9-2.3s-2,0.8-2,2.3c0,2.5,0,3.8,0,6.3
				c-1.3,0-1.9,0-3.2,0C551,258.1,551,255.9,551,251.4z"/>
			<path class="st0" d="M563.5,259.4C563.5,259.4,563.5,259.4,563.5,259.4c0-2.5,1.9-3.6,4.6-3.6c1.1,0,2,0.2,2.8,0.5
				c0-0.1,0-0.1,0-0.2c0-1.3-0.8-2.1-2.4-2.1c-1.2,0-2.1,0.2-3.1,0.6c-0.3-1-0.5-1.5-0.8-2.4c1.2-0.5,2.5-0.9,4.4-0.9
				c1.7,0,3,0.5,3.8,1.3c0.8,0.8,1.2,2.1,1.2,3.6c0,2.6,0,3.9,0,6.6c-1.2,0-1.9,0-3.1,0c0-0.5,0-0.7,0-1.2c-0.8,0.9-1.9,1.4-3.4,1.4
				C565.2,262.9,563.5,261.6,563.5,259.4z M570.8,258.7c0-0.2,0-0.3,0-0.6c-0.5-0.3-1.3-0.4-2-0.4c-1.4,0-2.2,0.5-2.2,1.6
				c0,0,0,0,0,0c0,0.9,0.7,1.4,1.7,1.4C569.8,260.6,570.8,259.8,570.8,258.7z"/>
			<path class="st0" d="M577.1,259.4c0-2.1,0-3.2,0-5.4c-0.5,0-0.8,0-1.3,0c0-1.1,0-1.6,0-2.7c0.5,0,0.8,0,1.3,0c0-1.2,0-1.7,0-2.9
				c1.3,0,1.9,0,3.2,0c0,1.2,0,1.7,0,2.9c1.1,0,1.6,0,2.7,0c0,1.1,0,1.6,0,2.7c-1.1,0-1.6,0-2.7,0c0,1.9,0,2.9,0,4.8
				c0,0.7,0.3,1.1,1,1.1c0.6,0,1.1-0.1,1.6-0.4c0,1,0,1.5,0,2.6c-0.7,0.4-1.5,0.7-2.5,0.7C578.4,262.8,577.1,262.1,577.1,259.4z"/>
			<path class="st0" d="M584.4,257.1C584.4,257,584.4,257,584.4,257.1c0-3.3,2.3-5.9,5.6-5.9c3.8,0,5.5,2.9,5.5,6.1
				c0,0.3,0,0.5,0,0.8c-3.1,0-4.7,0-7.9,0c0.3,1.5,1.3,2.2,2.8,2.2c1.1,0,1.9-0.3,2.7-1.2c0.7,0.6,1.1,1,1.8,1.6
				c-1.1,1.3-2.6,2.1-4.6,2.1C586.9,262.9,584.4,260.5,584.4,257.1z M592.4,256.1c-0.2-1.4-1-2.4-2.4-2.4c-1.3,0-2.2,0.9-2.4,2.4
				C589.5,256.1,590.4,256.1,592.4,256.1z"/>
		</g>
	</g>
</g>
</svg>
