<?xml version="1.0" encoding="UTF-8"?><svg id="Layer_2" xmlns="http://www.w3.org/2000/svg" viewBox="0 0 820 300"><defs><style>.cls-1{fill:#eb5d3e;}.cls-2{fill:#fff;}</style></defs><g id="Layer_1-2"><path class="cls-1" d="m745.12,0H18.72C12.9,0,7.71,2.65,4.27,6.81c-1.53,1.85-2.7,4-3.43,6.34-.55,1.76-.84,3.63-.84,5.57h0v262.56c0,5.17,2.1,9.85,5.48,13.24,1.56,1.56,3.39,2.82,5.42,3.76.38.18.77.34,1.16.49,1.43.54,2.93.93,4.5,1.11.11.01.23.03.34.04.6.06,1.2.09,1.82.09h782.56c10.34,0,18.72-8.38,18.72-18.72V74.88c0-41.36-33.52-74.88-74.88-74.88Zm69.88,281.28c0,7.57-6.15,13.72-13.72,13.72h-501.28V5h445.12c38.53,0,69.88,31.35,69.88,69.88v206.4Z"/><path class="cls-2" d="m178.11,169.51c7.4-5.33,14.57-5.12,21.7.48,1.47-1.09,2.84-2.26,4.51-2.99,5.39-2.34,10.59-2.14,15.49,1.24.97.67,1.68.78,2.8.23,7.75-3.76,16.54-1.24,20.92,6.16,6.6,11.16,13.09,22.38,19.5,33.65,2.88,5.06,4.76,10.45,5.3,16.36.91,9.86-1.84,18.52-7.8,26.25-5.5,7.14-12.4,12.6-20.5,16.49-6.81,3.27-14.04,3.9-21.45,3.1-8.58-.93-16.52-3.88-24.05-7.98-8.76-4.77-17.88-8.79-26.97-12.87-5.76-2.59-11.62-4.98-16.99-8.36-1.9-1.2-3.61-2.63-5.18-4.21-3.91-3.96-4.73-8.73-3.2-13.9,1.55-5.23,5.31-8.22,10.54-9.36,3.95-.86,7.91-.51,11.84.22.88.16,1.75.34,2.77.54.1-.97-.44-1.54-.79-2.15-9.09-15.68-18.13-31.38-27.31-47.01-4.38-7.45-2.08-16.84,5.02-21.31,7.13-4.49,16.91-2.44,21.57,4.84,3.72,5.8,7,11.89,10.49,17.84.52.89.91,1.88,1.81,2.71Zm48.23,6.74c.06.69.51,1.24.85,1.83,2.16,3.74,4.34,7.48,6.49,11.22,1.72,2.99,1.38,5.43-.89,6.75-2.39,1.39-4.65.47-6.46-2.62-.67-1.14-1.32-2.3-1.98-3.44-2.42-4.16-4.85-8.31-7.26-12.47-2.96-5.09-8.74-4.12-11.39-1.28-.7.75-.96,1.37-.32,2.37,1.21,1.87,2.26,3.84,3.37,5.78,1.18,2.05,2.45,4.06,3.52,6.18.98,1.94.42,4.01-1.21,5.25-1.42,1.09-3.67,1.09-5.08-.02-.73-.57-1.19-1.37-1.64-2.15-1.48-2.53-2.94-5.06-4.41-7.59-1.58-2.71-3.09-5.47-4.74-8.13-2.64-4.26-8.13-5.09-11.5-1.84-.83.81-1.24,1.55-.45,2.71.98,1.43,1.75,3.01,2.62,4.52,1.28,2.24,2.64,4.44,3.82,6.72,1.06,2.05.35,4.34-1.51,5.48-1.96,1.19-4.32.67-5.71-1.28-.24-.34-.43-.72-.64-1.08-4.93-8.5-9.85-17.01-14.78-25.51-2.62-4.52-5.2-9.08-7.9-13.55-2.68-4.45-8.39-5.2-11.78-1.65-2.31,2.41-2.55,5.7-.61,9.07,5.66,9.77,11.33,19.53,17,29.3,5.64,9.7,11.29,19.4,16.91,29.11,1.27,2.2,1.15,4.1-.25,5.6-1.36,1.46-3.45,1.68-5.59.64-4.93-2.4-10.18-3.69-15.6-4.35-1.81-.22-3.63-.08-5.39.43-3.3.96-5.29,5.47-3.4,7.84,1.57,1.96,3.41,3.77,5.65,4.89,3.47,1.74,6.88,3.58,10.48,5.09,9.62,4.05,19.21,8.2,28.43,13.15,6.22,3.33,12.48,6.52,19.45,8.04,6.8,1.49,13.63,1.93,20.17-.78,9.55-3.96,17.15-10.36,22.29-19.42,2.89-5.11,4.1-10.7,3.19-16.51-.7-4.48-2.37-8.72-4.68-12.68-4.88-8.37-9.72-16.77-14.58-25.15-1.54-2.65-3.03-5.34-4.67-7.93-2.25-3.55-6.48-4.62-9.8-2.53Zm-91.79-57.81c-.4-1.03-1.03-1.98-1.58-2.94-2.27-3.92-4.51-7.86-6.86-11.74-1.3-2.15-3.57-2.73-5.59-1.62-2.06,1.12-2.94,3.46-1.78,5.54,2.75,4.93,5.63,9.79,8.5,14.65.73,1.23,1.96,1.72,3.17,1.79,3.16.02,5.22-2.89,4.13-5.67Zm-12.8,10.26c-5.16-1.43-10.33-2.82-15.52-4.13-2.64-.67-4.76.61-5.34,2.98-.58,2.39.69,4.39,3.32,5.17,1.47.43,2.95.79,4.43,1.18,3.7.97,7.38,2.02,11.1,2.9,2.76.65,5.12-1.26,5.15-3.97.02-2.01-1.05-3.54-3.15-4.13Zm50.31-12.92c-4.9,2.63-9.71,5.44-14.49,8.27-2.15,1.28-2.65,3.75-1.42,5.81,1.14,1.92,3.54,2.59,5.66,1.42,4.74-2.64,9.44-5.35,14.13-8.08,1.34-.78,2.14-1.97,2.1-3.6.05-3.15-3.16-5.32-5.96-3.82Zm-25.94,6.2c1.88.34,4-.84,4.6-2.8.94-3.06,1.73-6.17,2.56-9.26.63-2.35,1.31-4.7,1.83-7.08.4-1.84-.5-3.59-2.04-4.44-1.55-.85-3.54-.62-4.88.57-.88.78-1.22,1.85-1.51,2.93-1.29,4.77-2.56,9.56-3.83,14.34-.12.47-.22.94-.29,1.24-.03,2.24,1.54,4.13,3.57,4.5Zm-25.44,23.25c-4.92,2.72-9.75,5.61-14.61,8.45-.34.2-.6.57-.83.91-1.08,1.6-.97,3.6.24,5.03,1.27,1.51,3.41,2,5.29.95,4.8-2.67,9.54-5.44,14.29-8.2,1.38-.8,1.98-2.1,1.95-3.68-.05-3.24-3.33-5.12-6.33-3.46Zm122.18-65.61c0-27.81-22.63-50.44-50.44-50.44h-110.5c-27.81,0-50.44,22.63-50.44,50.44s22.63,50.44,50.44,50.44c2.31,0,4.19-1.87,4.19-4.19s-1.87-4.19-4.19-4.19c-23.19,0-42.06-18.87-42.06-42.06s18.87-42.06,42.06-42.06h110.5c23.19,0,42.06,18.87,42.06,42.06s-18.87,42.06-42.06,42.06c-2.31,0-4.19,1.87-4.19,4.19s1.87,4.19,4.19,4.19c27.81,0,50.44-22.63,50.44-50.44Zm-181.1-10.54h5.62c1.46,0,2.71.14,3.76.41,1.04.27,1.99.78,2.84,1.52,2.22,1.9,3.32,4.78,3.32,8.65,0,1.28-.11,2.44-.33,3.5-.22,1.05-.57,2.01-1.03,2.85-.46.85-1.06,1.61-1.79,2.27-.56.51-1.19.92-1.87,1.23s-1.41.53-2.18.65c-.78.13-1.66.19-2.63.19h-5.62c-.78,0-1.37-.12-1.77-.36s-.66-.57-.78-1-.18-.99-.18-1.68v-15.6c0-.93.21-1.6.62-2.02.42-.42,1.09-.62,2.02-.62Zm1.67,3.41v14.44h3.27c.72,0,1.28-.02,1.68-.06.41-.04.83-.14,1.26-.29.44-.15.81-.37,1.13-.65,1.44-1.22,2.16-3.32,2.16-6.3,0-2.1-.32-3.67-.95-4.72-.63-1.04-1.42-1.71-2.34-2-.93-.29-2.05-.43-3.37-.43h-2.84Zm27.02-3.77c2.21,0,4.1.45,5.68,1.34,1.58.9,2.78,2.17,3.59,3.82s1.22,3.59,1.22,5.81c0,1.64-.22,3.14-.67,4.48-.45,1.34-1.11,2.51-2,3.5-.89.99-1.98,1.74-3.28,2.26s-2.78.78-4.46.78-3.15-.27-4.47-.81c-1.32-.54-2.41-1.29-3.29-2.27-.88-.98-1.55-2.15-2-3.53-.45-1.37-.67-2.86-.67-4.45s.23-3.13.7-4.5c.47-1.36,1.15-2.52,2.04-3.48.89-.96,1.97-1.69,3.25-2.2,1.28-.51,2.73-.76,4.35-.76Zm6.12,10.94c0-1.56-.25-2.91-.75-4.05s-1.22-2-2.15-2.59c-.93-.59-2.01-.88-3.21-.88-.86,0-1.66.16-2.39.49-.73.32-1.36.8-1.89,1.42s-.94,1.41-1.25,2.37c-.3.96-.46,2.04-.46,3.24s.15,2.3.46,3.28c.3.98.74,1.79,1.29,2.43.56.64,1.19,1.12,1.92,1.44s1.51.48,2.37.48c1.1,0,2.12-.28,3.04-.83.92-.55,1.66-1.4,2.21-2.55.55-1.15.82-2.57.82-4.25Zm13.67-8.36c3.31,5.01,4.97,7.52,8.29,12.54v-12.65c0-.82.18-1.44.53-1.85s.83-.62,1.43-.62,1.11.21,1.47.62.54,1.03.54,1.85v16.73c0,1.87-.77,2.8-2.32,2.8-.39,0-.74-.06-1.04-.17-.31-.11-.6-.29-.87-.53-.27-.24-.52-.52-.75-.85-.23-.32-.46-.66-.7-.99-3.23-4.96-4.85-7.44-8.08-12.39v12.47c0,.81-.19,1.43-.57,1.84-.38.42-.86.62-1.45.62s-1.1-.21-1.47-.63c-.37-.42-.55-1.03-.55-1.84v-16.41c0-.7.07-1.25.23-1.64.18-.43.49-.79.91-1.07s.89-.41,1.38-.41c.39,0,.72.06.99.19.28.13.52.29.73.51s.42.49.64.83.44.69.67,1.06Zm30.19,16.64c-.41-1.07-.61-1.6-1.02-2.67h-8.65c-.41,1.09-.61,1.64-1.02,2.73-.4,1.06-.74,1.78-1.02,2.15-.28.37-.74.56-1.38.56-.54,0-1.02-.2-1.44-.6-.42-.4-.62-.85-.62-1.35,0-.29.05-.59.15-.9.1-.31.26-.74.48-1.29,2.18-5.53,3.27-8.29,5.44-13.81.15-.4.34-.87.56-1.43.22-.56.45-1.02.7-1.39.25-.37.57-.67.97-.89.4-.23.9-.34,1.49-.34s1.1.11,1.5.34.73.52.97.88c.25.36.46.74.62,1.15.17.41.38.96.65,1.65,2.22,5.49,3.33,8.24,5.56,13.73.44,1.04.65,1.8.65,2.28s-.21.95-.62,1.36-.91.62-1.49.62c-.34,0-.63-.06-.87-.18-.24-.12-.45-.29-.61-.49s-.34-.53-.53-.96c-.19-.43-.35-.81-.49-1.14Zm-8.53-5.91h6.36c-1.28-3.51-1.92-5.27-3.21-8.78-1.26,3.51-1.89,5.27-3.15,8.78Zm27.5-9.4h-4.7v15.45c0,.89-.2,1.55-.6,1.98-.4.43-.91.65-1.54.65s-1.16-.22-1.56-.65c-.4-.44-.6-1.09-.6-1.97v-15.45h-4.7c-.74,0-1.28-.16-1.64-.49-.36-.32-.54-.75-.54-1.28s.19-.99.56-1.31.91-.48,1.62-.48h13.7c.74,0,1.3.17,1.66.49.36.33.54.76.54,1.29s-.18.96-.55,1.28-.92.49-1.65.49Zm4.93,15.45v-16.76c0-.87.2-1.52.59-1.96.4-.44.91-.65,1.54-.65s1.17.22,1.57.65.6,1.09.6,1.97v16.76c0,.88-.2,1.54-.6,1.97s-.93.65-1.57.65-1.13-.22-1.53-.66c-.4-.44-.6-1.1-.6-1.97Zm18.49-19.37c2.21,0,4.1.45,5.68,1.34,1.58.9,2.78,2.17,3.59,3.82s1.22,3.59,1.22,5.81c0,1.64-.22,3.14-.67,4.48-.45,1.34-1.11,2.51-2,3.5-.89.99-1.98,1.74-3.28,2.26s-2.78.78-4.46.78-3.15-.27-4.47-.81c-1.32-.54-2.41-1.29-3.29-2.27-.88-.98-1.55-2.15-2-3.53-.45-1.37-.67-2.86-.67-4.45s.23-3.13.7-4.5c.47-1.36,1.15-2.52,2.04-3.48.89-.96,1.97-1.69,3.25-2.2,1.28-.51,2.73-.76,4.35-.76Zm6.12,10.94c0-1.56-.25-2.91-.75-4.05s-1.22-2-2.15-2.59c-.93-.59-2.01-.88-3.21-.88-.86,0-1.66.16-2.39.49-.73.32-1.36.8-1.89,1.42s-.94,1.41-1.25,2.37c-.3.96-.46,2.04-.46,3.24s.15,2.3.46,3.28c.3.98.74,1.79,1.29,2.43.56.64,1.19,1.12,1.92,1.44s1.51.48,2.37.48c1.1,0,2.12-.28,3.04-.83.92-.55,1.66-1.4,2.21-2.55.55-1.15.82-2.57.82-4.25Zm13.67-8.36c3.31,5.01,4.97,7.52,8.29,12.54v-12.65c0-.82.18-1.44.53-1.85s.83-.62,1.43-.62,1.11.21,1.47.62.54,1.03.54,1.85v16.73c0,1.87-.77,2.8-2.32,2.8-.39,0-.74-.06-1.04-.17-.31-.11-.6-.29-.87-.53-.27-.24-.52-.52-.75-.85-.23-.32-.46-.66-.7-.99-3.23-4.96-4.85-7.44-8.08-12.39v12.47c0,.81-.19,1.43-.57,1.84-.38.42-.86.62-1.45.62s-1.1-.21-1.47-.63c-.37-.42-.55-1.03-.55-1.84v-16.41c0-.7.07-1.25.23-1.64.18-.43.49-.79.91-1.07s.89-.41,1.38-.41c.39,0,.72.06.99.19.28.13.52.29.73.51s.42.49.64.83.44.69.67,1.06Z"/><path class="cls-2" d="m350.98,28.2h9.89c4.98,0,8.53,2.57,8.53,7.13,0,2.57-1.25,4.79-3.35,5.92v.08c3.04.9,4.48,3.7,4.48,6.5,0,5.53-4.44,8.02-9.54,8.02h-10.01v-27.65Zm9.89,11.29c2.18,0,3.43-1.56,3.43-3.54s-1.17-3.43-3.5-3.43h-4.79v6.97h4.87Zm.51,12.03c2.57,0,4.01-1.68,4.01-4.01s-1.48-3.97-4.01-3.97h-5.37v7.98h5.37Zm18.49-23.33h16.55v4.32h-11.53v7.24h9.31v4.32h-9.31v7.44h12.15v4.32h-17.17v-27.65Zm32.04,13.63c-3.3-5.45-4.95-8.18-8.25-13.63h5.72c1.51,2.71,2.27,4.07,3.78,6.78.9,1.6,1.75,3.39,1.75,3.39h.08s.78-1.75,1.67-3.39c1.54-2.71,2.31-4.07,3.85-6.78h5.76c-3.33,5.45-5,8.18-8.33,13.63,3.46,5.61,5.19,8.41,8.64,14.02h-5.65c-1.71-2.98-2.57-4.46-4.28-7.44-.9-1.6-1.71-3.27-1.71-3.27h-.08s-.78,1.67-1.71,3.27c-1.7,2.98-2.55,4.46-4.24,7.44h-5.61c3.44-5.61,5.16-8.41,8.61-14.02Zm22.78-13.63h5.02v23.33h11.96v4.32h-16.98v-27.65Zm24.88,0h16.55v4.32h-11.53v7.24h9.31v4.32h-9.31v7.44h12.15v4.32h-17.17v-27.65Zm32.04,16.08c-3.68-6.43-5.51-9.65-9.19-16.08h5.69c1.73,3.26,2.59,4.88,4.32,8.14.9,1.71,1.64,3.74,1.67,3.7h.08s.78-1.99,1.67-3.7c1.71-3.26,2.57-4.88,4.28-8.14h5.69c-3.68,6.43-5.51,9.65-9.19,16.08v11.57h-5.02v-11.57Zm36.44-16.08h5.37c2.17,5.47,3.25,8.2,5.41,13.67.62,1.64,1.4,4.05,1.4,4.05h.08s.74-2.41,1.36-4.05c2.17-5.47,3.25-8.2,5.41-13.67h5.37c.89,11.06,1.33,16.59,2.22,27.65h-4.98c-.47-6.18-.7-9.28-1.17-15.46-.12-1.83-.04-4.28-.04-4.28h-.08s-.82,2.69-1.48,4.28c-1.79,4.28-2.69,6.42-4.48,10.71h-4.4c-1.78-4.28-2.66-6.43-4.44-10.71-.66-1.6-1.52-4.32-1.52-4.32h-.08s.08,2.49-.04,4.32c-.47,6.18-.7,9.28-1.17,15.46h-5.02c.9-11.06,1.35-16.59,2.26-27.65Zm49.06-.47c8.14,0,14.29,6.19,14.29,14.1s-6.15,14.49-14.29,14.49-14.29-6.35-14.29-14.49,6.15-14.1,14.29-14.1Zm0,23.99c5.06,0,9.11-4.21,9.11-9.89s-4.05-9.5-9.11-9.5-9.11,4.05-9.11,9.5,4.05,9.89,9.11,9.89Zm35.66-23.99c8.14,0,14.29,6.19,14.29,14.1s-6.15,14.49-14.29,14.49-14.29-6.35-14.29-14.49,6.15-14.1,14.29-14.1Zm0,23.99c5.06,0,9.11-4.21,9.11-9.89s-4.05-9.5-9.11-9.5-9.11,4.05-9.11,9.5,4.05,9.89,9.11,9.89Zm23.28-23.52h8.92c3,0,4.36.23,5.57.78,2.77,1.25,4.52,3.89,4.52,7.55,0,3.31-1.75,6.39-4.67,7.55v.08s.39.39.93,1.36c2.27,4.13,3.41,6.19,5.69,10.32h-5.61c-2.2-4.13-3.29-6.19-5.49-10.32h-4.83v10.32h-5.02v-27.65Zm9.54,12.97c2.69,0,4.36-1.6,4.36-4.36s-1.13-4.28-5.06-4.28h-3.82v8.64h4.52Zm19.97-12.97h5.02v27.65h-5.02v-27.65Zm15.92,0h5.02c4.19,6.39,6.29,9.58,10.48,15.97,1.05,1.6,2.3,4.28,2.3,4.28h.08s-.27-2.65-.27-4.28v-15.97h4.98v27.65h-4.98c-4.19-6.37-6.29-9.56-10.48-15.93-1.05-1.6-2.3-4.28-2.3-4.28h-.08s.27,2.65.27,4.28v15.93h-5.02v-27.65Zm45.87-.47c6.78,0,10.28,3.5,10.28,3.5-1,1.5-1.5,2.24-2.49,3.74,0,0-2.96-2.65-7.36-2.65-6.19,0-9.5,4.28-9.5,9.5,0,6,4.09,9.89,9.27,9.89,4.17,0,6.93-2.88,6.93-2.88v-3.23h-4.24v-4.32h8.76v14.56h-4.28v-1.32c0-.58.04-1.17.04-1.17h-.08s-2.88,2.96-8.02,2.96c-7.28,0-13.55-5.65-13.55-14.33,0-8.02,6.04-14.25,14.25-14.25Zm21.72,21.03s3,2.92,6.89,2.92c2.1,0,4.01-1.09,4.01-3.35,0-4.95-13.04-4.09-13.04-12.58,0-4.59,3.97-8.02,9.27-8.02s8.26,2.96,8.26,2.96c-.87,1.64-1.31,2.45-2.18,4.09,0,0-2.65-2.42-6.11-2.42-2.34,0-4.17,1.36-4.17,3.31,0,4.91,13.01,3.7,13.01,12.54,0,4.4-3.35,8.1-9.11,8.1-6.15,0-9.54-3.78-9.54-3.78,1.09-1.51,1.64-2.27,2.73-3.78Zm-266.11,19.68h6.6c3.42,0,5.89,2.23,5.89,5.76s-2.47,5.84-5.89,5.84h-4.73v7.5h-1.87v-19.09Zm6.36,9.91c2.55,0,4.21-1.55,4.21-4.16s-1.66-4.07-4.18-4.07h-4.51v8.23h4.48Zm15.32-9.91h5.65c1.96,0,2.82.19,3.58.52,1.79.79,2.88,2.61,2.88,4.92,0,2.58-1.47,4.56-3.61,5.16v.05s.19.25.49.76c1.66,3.07,2.49,4.61,4.16,7.69h-2.15c-1.73-3.22-2.59-4.82-4.32-8.04h-4.81v8.04h-1.87v-19.09Zm6.41,9.37c2.31,0,3.78-1.49,3.78-3.88,0-1.58-.62-2.74-1.74-3.34-.57-.3-1.25-.46-2.72-.46h-3.86v7.69h4.54Zm24.5-9.7c5.41,0,9.72,4.26,9.72,9.75s-4.32,10-9.72,10-9.72-4.4-9.72-10,4.32-9.75,9.72-9.75Zm0,18.01c4.29,0,7.77-3.59,7.77-8.26s-3.48-8.01-7.77-8.01-7.77,3.45-7.77,8.01,3.45,8.26,7.77,8.26Zm17.57-4.7h1.87v.71c0,2.93,1.77,3.99,3.5,3.99s3.48-.98,3.48-3.94v-12.06h-4.67v-1.68h6.55v13.74c0,4.13-2.74,5.68-5.38,5.68s-5.35-1.58-5.35-5.68v-.76Zm21.48-12.98h10.76v1.68h-8.88v6.95h7.25v1.68h-7.25v7.09h9.37v1.68h-11.24v-19.09Zm29.09-.33c4.56,0,6.87,2.47,6.87,2.47-.4.55-.6.83-1,1.38,0,0-2.23-2.12-5.81-2.12-4.48,0-7.69,3.48-7.69,7.99s3.21,8.28,7.74,8.28c3.86,0,6.19-2.55,6.19-2.55.43.53.65.8,1.09,1.33,0,0-2.61,2.96-7.31,2.96-5.65,0-9.67-4.43-9.67-10s4.13-9.75,9.59-9.75Zm21.18,2.01h-6.87v-1.68h15.59v1.68h-6.84v17.41h-1.87v-17.41Zm-264.18,51.17h2.48c1.25,3.87,1.87,5.81,3.11,9.68,1.28-3.89,1.92-5.83,3.21-9.72h1.94c1.28,3.89,1.92,5.83,3.21,9.72,1.25-3.87,1.87-5.81,3.11-9.68h2.41c-1.82,5.26-2.73,7.89-4.55,13.15h-1.98c-1.28-3.75-1.92-5.63-3.21-9.38-1.28,3.75-1.92,5.63-3.21,9.38h-1.98c-1.82-5.26-2.73-7.89-4.55-13.15Zm19.81,8.17v-.04c0-2.82,2-5.13,4.81-5.13,3.13,0,4.72,2.46,4.72,5.3,0,.21-.02.41-.04.63h-7.23c.24,1.6,1.38,2.5,2.83,2.5,1.1,0,1.88-.41,2.67-1.18.53.47.79.7,1.32,1.18-.93,1.12-2.22,1.85-4.03,1.85-2.85,0-5.05-2.07-5.05-5.11Zm7.29-.73c-.15-1.46-1.01-2.59-2.5-2.59-1.38,0-2.35,1.06-2.55,2.59h5.05Zm11.13,7.46c.34-.68.5-1.02.84-1.7,1.04.65,2.16,1.04,3.51,1.04,2.01,0,3.11-1.04,3.11-3.02v-.76c-.82,1.06-1.85,1.81-3.47,1.81-2.31,0-4.48-1.72-4.48-4.61v-.04c0-2.91,2.18-4.63,4.48-4.63,1.66,0,2.69.76,3.45,1.68v-1.47h2.26v7.83c0,1.66-.43,2.89-1.25,3.71-.9.89-2.27,1.32-4.05,1.32-1.62,0-3.13-.41-4.4-1.17Zm7.48-7.24v-.04c0-1.62-1.32-2.72-2.89-2.72s-2.8,1.08-2.8,2.7v.04c0,1.62,1.25,2.72,2.8,2.72s2.89-1.12,2.89-2.7Zm5.04-4.46h2.26v2.22c.62-1.47,1.75-2.48,3.49-2.41v2.39h-.13c-1.98,0-3.36,1.29-3.36,3.9v3.75h-2.26v-9.85Zm6.83,4.96v-.04c0-2.82,2-5.13,4.81-5.13,3.13,0,4.72,2.46,4.72,5.3,0,.21-.02.41-.04.63h-7.23c.24,1.6,1.38,2.5,2.83,2.5,1.1,0,1.88-.41,2.67-1.18.53.47.79.7,1.32,1.18-.93,1.12-2.22,1.85-4.03,1.85-2.85,0-5.05-2.07-5.05-5.11Zm7.29-.73c-.15-1.46-1.01-2.59-2.5-2.59-1.38,0-2.35,1.06-2.55,2.59h5.05Zm10.54,5.61v-1.21c-.67.8-1.7,1.42-3.19,1.42-1.86,0-3.51-1.06-3.51-3.04v-.04c0-2.18,1.7-3.23,3.99-3.23,1.19,0,1.96.17,2.72.41v-.19c0-1.36-.86-2.11-2.42-2.11-1.1,0-1.92.24-2.82.62-.25-.72-.37-1.09-.62-1.81,1.08-.49,2.14-.82,3.75-.82,2.91,0,4.33,1.53,4.33,4.16v5.84h-2.24Zm.06-4.12c-.58-.22-1.38-.39-2.26-.39-1.42,0-2.26.58-2.26,1.53v.04c0,.93.84,1.46,1.9,1.46,1.49,0,2.61-.84,2.61-2.07v-.56Zm5.24,1.4v-5.18h-1.25v-1.94h1.25v-2.7h2.26v2.7h2.65v1.94h-2.65v4.83c0,.88.45,1.23,1.21,1.23.5,0,.95-.11,1.4-.34v1.85c-.56.32-1.19.5-2.03.5-1.66,0-2.83-.73-2.83-2.89Zm7.31-10.89h2.26v13.61h-2.26v-13.61Zm4.89,16.06c.31-.67.46-1.01.76-1.68.41.22.86.37,1.32.37.63,0,1.03-.28,1.4-1.14-1.64-3.94-2.46-5.91-4.1-9.85h2.41c1.12,2.92,1.68,4.39,2.8,7.31,1.02-2.92,1.53-4.39,2.55-7.31h2.35c-1.57,4.05-2.35,6.08-3.92,10.12-.78,2.01-1.66,2.76-3.24,2.76-.95,0-1.64-.22-2.33-.6Zm24.09-2.44v-1.21c-.67.8-1.7,1.42-3.19,1.42-1.86,0-3.51-1.06-3.51-3.04v-.04c0-2.18,1.7-3.23,3.99-3.23,1.19,0,1.96.17,2.72.41v-.19c0-1.36-.86-2.11-2.42-2.11-1.1,0-1.92.24-2.82.62-.25-.72-.37-1.09-.62-1.81,1.08-.49,2.14-.82,3.75-.82,2.91,0,4.33,1.53,4.33,4.16v5.84h-2.24Zm.06-4.12c-.58-.22-1.38-.39-2.26-.39-1.42,0-2.26.58-2.26,1.53v.04c0,.93.84,1.46,1.9,1.46,1.49,0,2.61-.84,2.61-2.07v-.56Zm4.87-5.72h2.26v1.64c.73-1.03,1.75-1.85,3.34-1.85,2.33,0,4.59,1.85,4.59,5.11v.04c0,3.26-2.24,5.11-4.59,5.11-1.62,0-2.65-.82-3.34-1.73v4.51h-2.26v-12.83Zm7.89,4.94v-.04c0-1.9-1.29-3.15-2.82-3.15s-2.87,1.27-2.87,3.15v.04c0,1.9,1.34,3.15,2.87,3.15s2.82-1.21,2.82-3.15Zm4.61-4.94h2.26v1.64c.73-1.03,1.75-1.85,3.34-1.85,2.33,0,4.59,1.85,4.59,5.11v.04c0,3.26-2.24,5.11-4.59,5.11-1.62,0-2.65-.82-3.34-1.73v4.51h-2.26v-12.83Zm7.89,4.94v-.04c0-1.9-1.29-3.15-2.82-3.15s-2.87,1.27-2.87,3.15v.04c0,1.9,1.34,3.15,2.87,3.15s2.82-1.21,2.82-3.15Zm4.61-4.94h2.26v2.22c.62-1.47,1.75-2.48,3.49-2.41v2.39h-.13c-1.98,0-3.36,1.29-3.36,3.9v3.75h-2.26v-9.85Zm7.74-3.66h2.42v2.14h-2.42v-2.14Zm.09,3.66h2.26v9.85h-2.26v-9.85Zm4.66,4.98v-.04c0-2.8,2.16-5.15,5.11-5.15,1.86,0,3.02.69,3.93,1.7-.56.6-.84.91-1.4,1.51-.69-.73-1.42-1.23-2.55-1.23-1.64,0-2.83,1.42-2.83,3.13v.04c0,1.75,1.21,3.17,2.95,3.17,1.06,0,1.85-.5,2.55-1.23.54.54.82.81,1.36,1.34-.97,1.08-2.11,1.85-4.03,1.85-2.93,0-5.09-2.29-5.09-5.09Zm11.23-8.63h2.42v2.14h-2.42v-2.14Zm.09,3.66h2.26v9.85h-2.26v-9.85Zm11.23,9.85v-1.21c-.67.8-1.7,1.42-3.19,1.42-1.86,0-3.51-1.06-3.51-3.04v-.04c0-2.18,1.7-3.23,3.99-3.23,1.19,0,1.96.17,2.72.41v-.19c0-1.36-.86-2.11-2.42-2.11-1.1,0-1.92.24-2.82.62-.25-.72-.37-1.09-.62-1.81,1.08-.49,2.14-.82,3.75-.82,2.91,0,4.33,1.53,4.33,4.16v5.84h-2.24Zm.06-4.12c-.58-.22-1.38-.39-2.26-.39-1.42,0-2.26.58-2.26,1.53v.04c0,.93.84,1.46,1.9,1.46,1.49,0,2.61-.84,2.61-2.07v-.56Zm5.24,1.4v-5.18h-1.25v-1.94h1.25v-2.7h2.26v2.7h2.65v1.94h-2.65v4.83c0,.88.45,1.23,1.21,1.23.5,0,.95-.11,1.4-.34v1.85c-.56.32-1.19.5-2.03.5-1.66,0-2.83-.73-2.83-2.89Zm6.36-2.16v-.04c0-2.82,2-5.13,4.81-5.13,3.13,0,4.72,2.46,4.72,5.3,0,.21-.02.41-.04.63h-7.23c.24,1.6,1.38,2.5,2.83,2.5,1.1,0,1.88-.41,2.67-1.18.53.47.79.7,1.32,1.18-.93,1.12-2.22,1.85-4.03,1.85-2.85,0-5.05-2.07-5.05-5.11Zm7.29-.73c-.15-1.46-1.01-2.59-2.5-2.59-1.38,0-2.35,1.06-2.55,2.59h5.05Zm17.17,5.61v-1.21c-.67.8-1.7,1.42-3.19,1.42-1.86,0-3.51-1.06-3.51-3.04v-.04c0-2.18,1.7-3.23,3.99-3.23,1.19,0,1.96.17,2.72.41v-.19c0-1.36-.86-2.11-2.42-2.11-1.1,0-1.92.24-2.82.62-.25-.72-.37-1.09-.62-1.81,1.08-.49,2.14-.82,3.75-.82,2.91,0,4.33,1.53,4.33,4.16v5.84h-2.24Zm.06-4.12c-.58-.22-1.38-.39-2.26-.39-1.42,0-2.26.58-2.26,1.53v.04c0,.93.84,1.46,1.9,1.46,1.49,0,2.61-.84,2.61-2.07v-.56Zm5-9.49h2.26v13.61h-2.26v-13.61Zm5.33,0h2.26v13.61h-2.26v-13.61Zm11.34,8.71v-.04c0-3.26,2.22-5.11,4.57-5.11,1.62,0,2.65.82,3.36,1.73v-5.3h2.26v13.61h-2.26v-1.64c-.73,1.03-1.75,1.85-3.36,1.85-2.31,0-4.57-1.85-4.57-5.11Zm7.96,0v-.04c0-1.9-1.34-3.15-2.85-3.15s-2.83,1.19-2.83,3.15v.04c0,1.9,1.31,3.15,2.83,3.15s2.85-1.27,2.85-3.15Zm4.5.04v-.04c0-2.82,2.24-5.15,5.26-5.15s5.24,2.29,5.24,5.11v.04c0,2.8-2.24,5.13-5.28,5.13s-5.22-2.29-5.22-5.09Zm8.24,0v-.04c0-1.73-1.25-3.17-3.02-3.17s-2.96,1.42-2.96,3.13v.04c0,1.72,1.25,3.17,3,3.17s2.98-1.44,2.98-3.13Zm4.55-4.98h2.26v1.53c.63-.93,1.55-1.73,3.08-1.73,2.22,0,3.51,1.49,3.51,3.79v6.27h-2.26v-5.59c0-1.53-.76-2.41-2.11-2.41s-2.22.91-2.22,2.44v5.56h-2.26v-9.85Zm17.59,9.85v-1.21c-.67.8-1.7,1.42-3.19,1.42-1.86,0-3.51-1.06-3.51-3.04v-.04c0-2.18,1.7-3.23,3.99-3.23,1.19,0,1.96.17,2.72.41v-.19c0-1.36-.86-2.11-2.42-2.11-1.1,0-1.92.24-2.82.62-.25-.72-.37-1.09-.62-1.81,1.08-.49,2.14-.82,3.75-.82,2.91,0,4.33,1.53,4.33,4.16v5.84h-2.24Zm.06-4.12c-.58-.22-1.38-.39-2.26-.39-1.42,0-2.26.58-2.26,1.53v.04c0,.93.84,1.46,1.9,1.46,1.49,0,2.61-.84,2.61-2.07v-.56Zm5.24,1.4v-5.18h-1.25v-1.94h1.25v-2.7h2.26v2.7h2.65v1.94h-2.65v4.83c0,.88.45,1.23,1.21,1.23.5,0,.95-.11,1.4-.34v1.85c-.56.32-1.19.5-2.03.5-1.66,0-2.83-.73-2.83-2.89Zm7.22-10.78h2.42v2.14h-2.42v-2.14Zm.09,3.66h2.26v9.85h-2.26v-9.85Zm4.66,4.98v-.04c0-2.82,2.24-5.15,5.26-5.15s5.24,2.29,5.24,5.11v.04c0,2.8-2.24,5.13-5.28,5.13s-5.22-2.29-5.22-5.09Zm8.24,0v-.04c0-1.73-1.25-3.17-3.02-3.17s-2.96,1.42-2.96,3.13v.04c0,1.72,1.25,3.17,3,3.17s2.98-1.44,2.98-3.13Zm4.55-4.98h2.26v1.53c.63-.93,1.55-1.73,3.08-1.73,2.22,0,3.51,1.49,3.51,3.79v6.27h-2.26v-5.59c0-1.53-.76-2.41-2.11-2.41s-2.22.91-2.22,2.44v5.56h-2.26v-9.85Zm10.76,8.56c.4-.61.6-.92,1.01-1.53,1.06.8,2.22,1.21,3.23,1.21s1.53-.41,1.53-1.06v-.04c0-.76-1.05-1.04-2.2-1.38-1.43-.42-3.08-1.01-3.08-2.89v-.04c0-1.87,1.55-3,3.51-3,1.23,0,2.57.43,3.62,1.12-.36.64-.54.96-.9,1.6-.95-.58-1.96-.93-2.78-.93-.88,0-1.38.41-1.38.99v.04c0,.71,1.07,1.01,2.22,1.38,1.43.45,3.06,1.1,3.06,2.87v.04c0,2.07-1.6,3.1-3.65,3.1-1.4,0-2.95-.5-4.18-1.47Zm9.34,3.04c1.14-.22,1.68-.8,1.58-1.75h-.95v-2.55h2.48v2.16c0,2.07-.99,2.95-2.87,3.1-.1-.38-.15-.57-.24-.95Zm11.9-6.64v-.04c0-2.82,2-5.13,4.81-5.13,3.13,0,4.72,2.46,4.72,5.3,0,.21-.02.41-.04.63h-7.23c.24,1.6,1.38,2.5,2.83,2.5,1.1,0,1.88-.41,2.67-1.18.53.47.79.7,1.32,1.18-.93,1.12-2.22,1.85-4.03,1.85-2.85,0-5.05-2.07-5.05-5.11Zm7.29-.73c-.15-1.46-1.01-2.59-2.5-2.59-1.38,0-2.35,1.06-2.55,2.59h5.05Zm3.12-4.23h2.42c1.06,2.89,1.59,4.34,2.65,7.24,1.07-2.89,1.6-4.34,2.67-7.24h2.37c-1.61,3.97-2.42,5.95-4.03,9.92h-2.03c-1.62-3.97-2.43-5.95-4.05-9.92Zm10.93,4.96v-.04c0-2.82,2-5.13,4.81-5.13,3.13,0,4.72,2.46,4.72,5.3,0,.21-.02.41-.04.63h-7.23c.24,1.6,1.38,2.5,2.83,2.5,1.1,0,1.88-.41,2.67-1.18.53.47.79.7,1.32,1.18-.93,1.12-2.22,1.85-4.03,1.85-2.85,0-5.05-2.07-5.05-5.11Zm7.29-.73c-.15-1.46-1.01-2.59-2.5-2.59-1.38,0-2.35,1.06-2.55,2.59h5.05Zm4.52-4.23h2.26v2.22c.62-1.47,1.75-2.48,3.49-2.41v2.39h-.13c-1.98,0-3.36,1.29-3.36,3.9v3.75h-2.26v-9.85Zm7.39,12.29c.31-.67.46-1.01.76-1.68.41.22.86.37,1.32.37.63,0,1.03-.28,1.4-1.14-1.64-3.94-2.46-5.91-4.1-9.85h2.41c1.12,2.92,1.68,4.39,2.8,7.31,1.02-2.92,1.53-4.39,2.55-7.31h2.35c-1.57,4.05-2.35,6.08-3.92,10.12-.78,2.01-1.66,2.76-3.24,2.76-.95,0-1.64-.22-2.33-.6Zm-362.54,10.1h2.26v1.64c.73-1.03,1.75-1.85,3.34-1.85,2.33,0,4.59,1.85,4.59,5.11v.04c0,3.26-2.24,5.11-4.59,5.11-1.62,0-2.65-.82-3.34-1.73v4.51h-2.26v-12.83Zm7.89,4.94v-.04c0-1.9-1.29-3.15-2.82-3.15s-2.87,1.27-2.87,3.15v.04c0,1.9,1.34,3.15,2.87,3.15s2.82-1.21,2.82-3.15Zm4.07.02v-.04c0-2.82,2-5.13,4.81-5.13,3.13,0,4.72,2.46,4.72,5.3,0,.21-.02.41-.04.63h-7.23c.24,1.6,1.38,2.5,2.83,2.5,1.1,0,1.88-.41,2.67-1.17.53.47.79.7,1.32,1.17-.93,1.12-2.22,1.85-4.03,1.85-2.85,0-5.05-2.07-5.05-5.11Zm7.29-.73c-.15-1.46-1.01-2.59-2.5-2.59-1.38,0-2.35,1.06-2.55,2.59h5.05Zm4.52-4.23h2.26v1.53c.63-.93,1.55-1.73,3.08-1.73,2.22,0,3.51,1.49,3.51,3.79v6.27h-2.26v-5.59c0-1.53-.76-2.41-2.11-2.41s-2.22.91-2.22,2.44v5.56h-2.26v-9.85Zm11.56,0h2.26v1.53c.63-.93,1.55-1.73,3.08-1.73,2.22,0,3.51,1.49,3.51,3.79v6.27h-2.26v-5.59c0-1.53-.76-2.41-2.11-2.41s-2.22.91-2.22,2.44v5.56h-2.26v-9.85Zm10.97,12.29c.31-.67.46-1.01.76-1.68.41.22.86.37,1.32.37.63,0,1.03-.28,1.4-1.14-1.64-3.94-2.46-5.91-4.1-9.85h2.41c1.12,2.92,1.68,4.39,2.8,7.31,1.02-2.92,1.53-4.39,2.55-7.31h2.35c-1.57,4.05-2.35,6.08-3.92,10.12-.78,2.01-1.66,2.76-3.24,2.76-.95,0-1.64-.22-2.33-.6Zm16.21-12.29h2.31c.79,2.7,1.19,4.05,1.98,6.75.87-2.72,1.31-4.07,2.18-6.79h1.92c.88,2.72,1.32,4.07,2.2,6.79.81-2.7,1.21-4.05,2.01-6.75h2.26c-1.29,3.97-1.94,5.95-3.23,9.92h-2.01c-.88-2.69-1.32-4.04-2.2-6.73-.89,2.69-1.33,4.04-2.22,6.73h-2.01c-1.28-3.97-1.91-5.95-3.19-9.92Zm16.92-3.66h2.42v2.14h-2.42v-2.14Zm.09,3.66h2.26v9.85h-2.26v-9.85Zm5.33-3.77h2.26v13.61h-2.26v-13.61Zm5.33,0h2.26v13.61h-2.26v-13.61Zm10.78,15.46c.34-.68.5-1.02.84-1.7,1.04.65,2.16,1.04,3.51,1.04,2.01,0,3.11-1.04,3.11-3.02v-.76c-.82,1.06-1.85,1.81-3.47,1.81-2.31,0-4.48-1.72-4.48-4.61v-.04c0-2.91,2.18-4.63,4.48-4.63,1.66,0,2.69.76,3.45,1.68v-1.47h2.26v7.83c0,1.66-.43,2.89-1.25,3.71-.9.89-2.27,1.32-4.05,1.32-1.62,0-3.13-.41-4.4-1.17Zm7.48-7.24v-.04c0-1.62-1.32-2.72-2.89-2.72s-2.8,1.08-2.8,2.7v.04c0,1.62,1.25,2.72,2.8,2.72s2.89-1.12,2.89-2.7Zm4.5.52v-.04c0-2.82,2.24-5.15,5.26-5.15s5.24,2.29,5.24,5.11v.04c0,2.8-2.24,5.13-5.28,5.13s-5.22-2.29-5.22-5.09Zm8.24,0v-.04c0-1.73-1.25-3.17-3.02-3.17s-2.96,1.42-2.96,3.13v.04c0,1.72,1.25,3.17,3,3.17s2.98-1.44,2.98-3.13Zm10.62,2.14v-5.18h-1.25v-1.94h1.25v-2.7h2.26v2.7h2.65v1.94h-2.65v4.83c0,.88.45,1.23,1.21,1.23.5,0,.95-.11,1.4-.34v1.85c-.56.32-1.19.5-2.03.5-1.66,0-2.83-.73-2.83-2.89Zm6.36-2.14v-.04c0-2.82,2.24-5.15,5.26-5.15s5.24,2.29,5.24,5.11v.04c0,2.8-2.24,5.13-5.28,5.13s-5.22-2.29-5.22-5.09Zm8.24,0v-.04c0-1.73-1.25-3.17-3.02-3.17s-2.96,1.42-2.96,3.13v.04c0,1.72,1.25,3.17,3,3.17s2.98-1.44,2.98-3.13Zm10.65-3.04h-1.25v-1.88h1.25v-.71c0-1.1.28-1.92.8-2.44.52-.52,1.25-.78,2.22-.78.78,0,1.32.11,1.83.26v1.9c-.45-.15-.84-.24-1.32-.24-.86,0-1.31.47-1.31,1.49v.54h2.61v1.86h-2.57v7.91h-2.26v-7.91Zm6.4,4.33v-6.27h2.26v5.59c0,1.53.76,2.41,2.11,2.41s2.22-.91,2.22-2.44v-5.56h2.26v9.85h-2.26v-1.53c-.63.93-1.55,1.73-3.08,1.73-2.22,0-3.51-1.49-3.51-3.79Zm11.68-6.27h2.26v1.53c.63-.93,1.55-1.73,3.08-1.73,2.22,0,3.51,1.49,3.51,3.79v6.27h-2.26v-5.59c0-1.53-.76-2.41-2.11-2.41s-2.22.91-2.22,2.44v5.56h-2.26v-9.85Zm11.06,4.94v-.04c0-3.26,2.22-5.11,4.57-5.11,1.62,0,2.65.82,3.36,1.73v-5.3h2.26v13.61h-2.26v-1.64c-.73,1.03-1.75,1.85-3.36,1.85-2.31,0-4.57-1.85-4.57-5.11Zm7.96,0v-.04c0-1.9-1.34-3.15-2.85-3.15s-2.83,1.19-2.83,3.15v.04c0,1.9,1.31,3.15,2.83,3.15s2.85-1.27,2.85-3.15Zm5.08-8.6h2.42v2.14h-2.42v-2.14Zm.09,3.66h2.26v9.85h-2.26v-9.85Zm5.2,0h2.26v1.53c.63-.93,1.55-1.73,3.08-1.73,2.22,0,3.51,1.49,3.51,3.79v6.27h-2.26v-5.59c0-1.53-.76-2.41-2.11-2.41s-2.22.91-2.22,2.44v5.56h-2.26v-9.85Zm11.55,11.69c.34-.68.5-1.02.84-1.7,1.04.65,2.16,1.04,3.51,1.04,2.01,0,3.11-1.04,3.11-3.02v-.76c-.82,1.06-1.85,1.81-3.47,1.81-2.31,0-4.48-1.72-4.48-4.61v-.04c0-2.91,2.18-4.63,4.48-4.63,1.66,0,2.69.76,3.45,1.68v-1.47h2.26v7.83c0,1.66-.43,2.89-1.25,3.71-.9.89-2.27,1.32-4.05,1.32-1.62,0-3.13-.41-4.4-1.17Zm7.48-7.24v-.04c0-1.62-1.32-2.72-2.89-2.72s-2.8,1.08-2.8,2.7v.04c0,1.62,1.25,2.72,2.8,2.72s2.89-1.12,2.89-2.7Zm10.09.52v-.04c0-2.82,2.24-5.15,5.26-5.15s5.24,2.29,5.24,5.11v.04c0,2.8-2.24,5.13-5.28,5.13s-5.22-2.29-5.22-5.09Zm8.24,0v-.04c0-1.73-1.25-3.17-3.02-3.17s-2.96,1.42-2.96,3.13v.04c0,1.72,1.25,3.17,3,3.17s2.98-1.44,2.98-3.13Zm4.44,1.29v-6.27h2.26v5.59c0,1.53.76,2.41,2.11,2.41s2.22-.91,2.22-2.44v-5.56h2.26v9.85h-2.26v-1.53c-.63.93-1.55,1.73-3.08,1.73-2.22,0-3.51-1.49-3.51-3.79Zm11.68-6.27h2.26v2.22c.62-1.47,1.75-2.48,3.49-2.41v2.39h-.13c-1.98,0-3.36,1.29-3.36,3.9v3.75h-2.26v-9.85Zm12.5,8.56c.4-.61.6-.92,1.01-1.53,1.06.8,2.22,1.21,3.23,1.21s1.53-.41,1.53-1.06v-.04c0-.76-1.05-1.04-2.2-1.38-1.43-.42-3.08-1.01-3.08-2.89v-.04c0-1.87,1.55-3,3.51-3,1.23,0,2.57.43,3.62,1.12-.36.64-.54.96-.9,1.6-.95-.58-1.96-.93-2.78-.93-.88,0-1.38.41-1.38.99v.04c0,.71,1.07,1.02,2.22,1.38,1.43.45,3.06,1.1,3.06,2.87v.04c0,2.07-1.6,3.1-3.65,3.1-1.4,0-2.95-.5-4.18-1.47Zm9.59-3.6v-.04c0-2.82,2-5.13,4.81-5.13,3.13,0,4.72,2.46,4.72,5.3,0,.21-.02.41-.04.63h-7.23c.24,1.6,1.38,2.5,2.83,2.5,1.1,0,1.88-.41,2.67-1.17.53.47.79.7,1.32,1.17-.93,1.12-2.22,1.85-4.03,1.85-2.85,0-5.05-2.07-5.05-5.11Zm7.29-.73c-.15-1.46-1.01-2.59-2.5-2.59-1.38,0-2.35,1.06-2.55,2.59h5.05Zm4.52-4.23h2.26v2.22c.62-1.47,1.75-2.48,3.49-2.41v2.39h-.13c-1.98,0-3.36,1.29-3.36,3.9v3.75h-2.26v-9.85Zm6.77,0h2.42c1.06,2.89,1.59,4.34,2.65,7.24,1.07-2.89,1.6-4.34,2.67-7.24h2.37c-1.61,3.97-2.42,5.95-4.03,9.92h-2.03c-1.62-3.97-2.43-5.95-4.05-9.92Zm12.07-3.66h2.42v2.14h-2.42v-2.14Zm.09,3.66h2.26v9.85h-2.26v-9.85Zm4.66,4.98v-.04c0-2.8,2.16-5.15,5.11-5.15,1.86,0,3.02.69,3.93,1.7-.56.6-.84.91-1.4,1.51-.69-.73-1.42-1.23-2.55-1.23-1.64,0-2.83,1.42-2.83,3.13v.04c0,1.75,1.21,3.17,2.95,3.17,1.06,0,1.85-.5,2.55-1.23.54.54.82.81,1.36,1.34-.97,1.08-2.11,1.85-4.03,1.85-2.93,0-5.09-2.29-5.09-5.09Zm10.37-.02v-.04c0-2.82,2-5.13,4.81-5.13,3.13,0,4.72,2.46,4.72,5.3,0,.21-.02.41-.04.63h-7.23c.24,1.6,1.38,2.5,2.83,2.5,1.1,0,1.88-.41,2.67-1.17.53.47.79.7,1.32,1.17-.93,1.12-2.22,1.85-4.03,1.85-2.85,0-5.05-2.07-5.05-5.11Zm7.29-.73c-.15-1.46-1.01-2.59-2.5-2.59-1.38,0-2.35,1.06-2.55,2.59h5.05Zm3.71,4.33c.4-.61.6-.92,1.01-1.53,1.06.8,2.22,1.21,3.23,1.21s1.53-.41,1.53-1.06v-.04c0-.76-1.05-1.04-2.2-1.38-1.43-.42-3.08-1.01-3.08-2.89v-.04c0-1.87,1.55-3,3.51-3,1.23,0,2.57.43,3.62,1.12-.36.64-.54.96-.9,1.6-.95-.58-1.96-.93-2.78-.93-.88,0-1.38.41-1.38.99v.04c0,.71,1.07,1.02,2.22,1.38,1.43.45,3.06,1.1,3.06,2.87v.04c0,2.07-1.6,3.1-3.65,3.1-1.4,0-2.95-.5-4.18-1.47Zm9.98-1.27h2.48v2.55h-2.48v-2.55Zm-365.34,22.49h-4.14v-2.13h10.59v2.13h-4.14v10.93h-2.31v-10.93Zm8.43-2.68h2.26v5.3c.63-.93,1.55-1.73,3.08-1.73,2.22,0,3.51,1.49,3.51,3.79v6.27h-2.26v-5.59c0-1.53-.76-2.41-2.11-2.41s-2.22.91-2.22,2.44v5.56h-2.26v-13.61Zm17.59,13.61v-1.21c-.67.8-1.7,1.42-3.19,1.42-1.86,0-3.51-1.06-3.51-3.04v-.04c0-2.18,1.7-3.23,3.99-3.23,1.19,0,1.96.17,2.72.41v-.19c0-1.36-.86-2.11-2.42-2.11-1.1,0-1.92.24-2.82.62-.25-.72-.37-1.09-.62-1.81,1.08-.49,2.14-.82,3.75-.82,2.91,0,4.33,1.53,4.33,4.16v5.84h-2.24Zm.06-4.12c-.58-.22-1.38-.39-2.26-.39-1.42,0-2.26.58-2.26,1.53v.04c0,.93.84,1.46,1.9,1.46,1.49,0,2.61-.84,2.61-2.07v-.56Zm4.87-5.72h2.26v1.53c.63-.93,1.55-1.73,3.08-1.73,2.22,0,3.51,1.49,3.51,3.79v6.27h-2.26v-5.59c0-1.53-.76-2.41-2.11-2.41s-2.22.91-2.22,2.44v5.56h-2.26v-9.85Zm11.56-3.77h2.26v8.13c1.63-1.75,2.45-2.62,4.08-4.36h2.74c-1.57,1.6-2.35,2.41-3.92,4.01,1.62,2.33,2.43,3.5,4.05,5.84h-2.61c-1.19-1.7-1.78-2.55-2.96-4.25-.55.57-.83.86-1.38,1.44v2.82h-2.26v-13.61Zm20.4,16.06c.31-.67.46-1.01.76-1.68.41.22.86.37,1.32.37.63,0,1.03-.28,1.4-1.14-1.64-3.94-2.46-5.91-4.1-9.85h2.41c1.12,2.92,1.68,4.39,2.8,7.31,1.02-2.92,1.53-4.39,2.55-7.31h2.35c-1.57,4.05-2.35,6.08-3.92,10.12-.78,2.01-1.66,2.76-3.24,2.76-.95,0-1.64-.22-2.33-.6Zm10.33-7.31v-.04c0-2.82,2.24-5.15,5.26-5.15s5.24,2.29,5.24,5.11v.04c0,2.8-2.24,5.13-5.28,5.13s-5.22-2.29-5.22-5.09Zm8.24,0v-.04c0-1.73-1.25-3.17-3.02-3.17s-2.96,1.42-2.96,3.13v.04c0,1.72,1.25,3.17,3,3.17s2.98-1.44,2.98-3.13Zm4.44,1.29v-6.27h2.26v5.59c0,1.53.76,2.41,2.11,2.41s2.22-.91,2.22-2.44v-5.56h2.26v9.85h-2.26v-1.53c-.63.93-1.55,1.73-3.08,1.73-2.22,0-3.51-1.49-3.51-3.79Zm22.04-4.33h-1.25v-1.88h1.25v-.71c0-1.1.28-1.92.8-2.44.52-.52,1.25-.78,2.22-.78.78,0,1.32.11,1.83.26v1.9c-.45-.15-.84-.24-1.32-.24-.86,0-1.31.47-1.31,1.49v.54h2.61v1.86h-2.57v7.91h-2.26v-7.91Zm5.78,3.04v-.04c0-2.82,2.24-5.15,5.26-5.15s5.24,2.29,5.24,5.11v.04c0,2.8-2.24,5.13-5.28,5.13s-5.22-2.29-5.22-5.09Zm8.24,0v-.04c0-1.73-1.25-3.17-3.02-3.17s-2.96,1.42-2.96,3.13v.04c0,1.72,1.25,3.17,3,3.17s2.98-1.44,2.98-3.13Zm4.55-4.98h2.26v2.22c.62-1.47,1.75-2.48,3.49-2.41v2.39h-.13c-1.98,0-3.36,1.29-3.36,3.9v3.75h-2.26v-9.85Zm17.24,12.29c.31-.67.46-1.01.76-1.68.41.22.86.37,1.32.37.63,0,1.03-.28,1.4-1.14-1.64-3.94-2.46-5.91-4.1-9.85h2.41c1.12,2.92,1.68,4.39,2.8,7.31,1.02-2.92,1.53-4.39,2.55-7.31h2.35c-1.57,4.05-2.35,6.08-3.92,10.12-.78,2.01-1.66,2.76-3.24,2.76-.95,0-1.64-.22-2.33-.6Zm10.33-7.31v-.04c0-2.82,2.24-5.15,5.26-5.15s5.24,2.29,5.24,5.11v.04c0,2.8-2.24,5.13-5.28,5.13s-5.22-2.29-5.22-5.09Zm8.24,0v-.04c0-1.73-1.25-3.17-3.02-3.17s-2.96,1.42-2.96,3.13v.04c0,1.72,1.25,3.17,3,3.17s2.98-1.44,2.98-3.13Zm4.44,1.29v-6.27h2.26v5.59c0,1.53.76,2.41,2.11,2.41s2.22-.91,2.22-2.44v-5.56h2.26v9.85h-2.26v-1.53c-.63.93-1.55,1.73-3.08,1.73-2.22,0-3.51-1.49-3.51-3.79Zm11.68-6.27h2.26v2.22c.62-1.47,1.75-2.48,3.49-2.41v2.39h-.13c-1.98,0-3.36,1.29-3.36,3.9v3.75h-2.26v-9.85Zm17.54,11.69c.34-.68.5-1.02.84-1.7,1.04.65,2.16,1.04,3.51,1.04,2.01,0,3.11-1.04,3.11-3.02v-.76c-.82,1.06-1.85,1.81-3.47,1.81-2.31,0-4.48-1.72-4.48-4.61v-.04c0-2.91,2.18-4.63,4.48-4.63,1.66,0,2.69.76,3.45,1.68v-1.47h2.26v7.83c0,1.66-.43,2.89-1.25,3.71-.9.89-2.27,1.32-4.05,1.32-1.62,0-3.13-.41-4.4-1.17Zm7.48-7.24v-.04c0-1.62-1.32-2.72-2.89-2.72s-2.8,1.08-2.8,2.7v.04c0,1.62,1.25,2.72,2.8,2.72s2.89-1.12,2.89-2.7Zm4.5.5v-.04c0-2.82,2-5.13,4.81-5.13,3.13,0,4.72,2.46,4.72,5.3,0,.21-.02.41-.04.63h-7.23c.24,1.6,1.38,2.5,2.83,2.5,1.1,0,1.88-.41,2.67-1.17.53.47.79.7,1.32,1.17-.93,1.12-2.22,1.85-4.03,1.85-2.85,0-5.05-2.07-5.05-5.11Zm7.29-.73c-.15-1.46-1.01-2.59-2.5-2.59-1.38,0-2.35,1.06-2.55,2.59h5.05Zm4.52-4.23h2.26v1.53c.63-.93,1.55-1.73,3.08-1.73,2.22,0,3.51,1.49,3.51,3.79v6.27h-2.26v-5.59c0-1.53-.76-2.41-2.11-2.41s-2.22.91-2.22,2.44v5.56h-2.26v-9.85Zm11.02,4.96v-.04c0-2.82,2-5.13,4.81-5.13,3.13,0,4.72,2.46,4.72,5.3,0,.21-.02.41-.04.63h-7.23c.24,1.6,1.38,2.5,2.83,2.5,1.1,0,1.88-.41,2.67-1.17.53.47.79.7,1.32,1.17-.93,1.12-2.22,1.85-4.03,1.85-2.85,0-5.05-2.07-5.05-5.11Zm7.29-.73c-.15-1.46-1.01-2.59-2.5-2.59-1.38,0-2.35,1.06-2.55,2.59h5.05Zm4.52-4.23h2.26v2.22c.62-1.47,1.75-2.48,3.49-2.41v2.39h-.13c-1.98,0-3.36,1.29-3.36,3.9v3.75h-2.26v-9.85Zm6.83,4.98v-.04c0-2.82,2.24-5.15,5.26-5.15s5.24,2.29,5.24,5.11v.04c0,2.8-2.24,5.13-5.28,5.13s-5.22-2.29-5.22-5.09Zm8.24,0v-.04c0-1.73-1.25-3.17-3.02-3.17s-2.96,1.42-2.96,3.13v.04c0,1.72,1.25,3.17,3,3.17s2.98-1.44,2.98-3.13Zm3.75,3.58c.4-.61.6-.92,1.01-1.53,1.06.8,2.22,1.21,3.23,1.21s1.53-.41,1.53-1.06v-.04c0-.76-1.05-1.04-2.2-1.38-1.43-.42-3.08-1.01-3.08-2.89v-.04c0-1.87,1.55-3,3.51-3,1.23,0,2.57.43,3.62,1.12-.36.64-.54.96-.9,1.6-.95-.58-1.96-.93-2.78-.93-.88,0-1.38.41-1.38.99v.04c0,.71,1.07,1.02,2.22,1.38,1.43.45,3.06,1.1,3.06,2.87v.04c0,2.07-1.6,3.1-3.65,3.1-1.4,0-2.95-.5-4.18-1.47Zm10.17-12.22h2.42v2.14h-2.42v-2.14Zm.09,3.66h2.26v9.85h-2.26v-9.85Zm5.67,7.12v-5.18h-1.25v-1.94h1.25v-2.7h2.26v2.7h2.65v1.94h-2.65v4.83c0,.88.45,1.23,1.21,1.23.5,0,.95-.11,1.4-.34v1.85c-.56.32-1.19.5-2.03.5-1.66,0-2.83-.73-2.83-2.89Zm6.86,5.17c.31-.67.46-1.01.76-1.68.41.22.86.37,1.32.37.63,0,1.03-.28,1.4-1.14-1.64-3.94-2.46-5.91-4.1-9.85h2.41c1.12,2.92,1.68,4.39,2.8,7.31,1.02-2.92,1.53-4.39,2.55-7.31h2.35c-1.57,4.05-2.35,6.08-3.92,10.12-.78,2.01-1.66,2.76-3.24,2.76-.95,0-1.64-.22-2.33-.6Zm27.31-2.44v-1.21c-.67.8-1.7,1.42-3.19,1.42-1.86,0-3.51-1.06-3.51-3.04v-.04c0-2.18,1.7-3.23,3.99-3.23,1.19,0,1.96.17,2.72.41v-.19c0-1.36-.86-2.11-2.42-2.11-1.1,0-1.92.24-2.82.62-.25-.72-.37-1.09-.62-1.81,1.08-.49,2.14-.82,3.75-.82,2.91,0,4.33,1.53,4.33,4.16v5.84h-2.24Zm.06-4.12c-.58-.22-1.38-.39-2.26-.39-1.42,0-2.26.58-2.26,1.53v.04c0,.93.84,1.46,1.9,1.46,1.49,0,2.61-.84,2.61-2.07v-.56Zm4.87-5.72h2.26v1.53c.63-.93,1.55-1.73,3.08-1.73,2.22,0,3.51,1.49,3.51,3.79v6.27h-2.26v-5.59c0-1.53-.76-2.41-2.11-2.41s-2.22.91-2.22,2.44v5.56h-2.26v-9.85Zm11.06,4.94v-.04c0-3.26,2.22-5.11,4.57-5.11,1.62,0,2.65.82,3.36,1.73v-5.3h2.26v13.61h-2.26v-1.64c-.73,1.03-1.75,1.85-3.36,1.85-2.31,0-4.57-1.85-4.57-5.11Zm7.96,0v-.04c0-1.9-1.34-3.15-2.85-3.15s-2.83,1.19-2.83,3.15v.04c0,1.9,1.31,3.15,2.83,3.15s2.85-1.27,2.85-3.15Zm14.58,7.35c.31-.67.46-1.01.76-1.68.41.22.86.37,1.32.37.63,0,1.03-.28,1.4-1.14-1.64-3.94-2.46-5.91-4.1-9.85h2.41c1.12,2.92,1.68,4.39,2.8,7.31,1.02-2.92,1.53-4.39,2.55-7.31h2.35c-1.57,4.05-2.35,6.08-3.92,10.12-.78,2.01-1.66,2.76-3.24,2.76-.95,0-1.64-.22-2.33-.6Zm10.33-7.31v-.04c0-2.82,2.24-5.15,5.26-5.15s5.24,2.29,5.24,5.11v.04c0,2.8-2.24,5.13-5.28,5.13s-5.22-2.29-5.22-5.09Zm8.24,0v-.04c0-1.73-1.25-3.17-3.02-3.17s-2.96,1.42-2.96,3.13v.04c0,1.72,1.25,3.17,3,3.17s2.98-1.44,2.98-3.13Zm4.44,1.29v-6.27h2.26v5.59c0,1.53.76,2.41,2.11,2.41s2.22-.91,2.22-2.44v-5.56h2.26v9.85h-2.26v-1.53c-.63.93-1.55,1.73-3.08,1.73-2.22,0-3.51-1.49-3.51-3.79Zm11.68-6.27h2.26v2.22c.62-1.47,1.75-2.48,3.49-2.41v2.39h-.13c-1.98,0-3.36,1.29-3.36,3.9v3.75h-2.26v-9.85Zm-277.38,27.36v-.04c0-2.8,2.16-5.15,5.11-5.15,1.86,0,3.02.69,3.93,1.7-.56.6-.84.91-1.4,1.51-.69-.73-1.42-1.23-2.55-1.23-1.64,0-2.83,1.42-2.83,3.13v.04c0,1.75,1.21,3.17,2.95,3.17,1.06,0,1.85-.5,2.55-1.23.54.54.82.81,1.36,1.34-.97,1.08-2.11,1.85-4.03,1.85-2.93,0-5.09-2.29-5.09-5.09Zm10.37,0v-.04c0-2.82,2.24-5.15,5.26-5.15s5.24,2.29,5.24,5.11v.04c0,2.8-2.24,5.13-5.28,5.13s-5.22-2.29-5.22-5.09Zm8.24,0v-.04c0-1.73-1.25-3.17-3.02-3.17s-2.96,1.42-2.96,3.13v.04c0,1.72,1.25,3.17,3,3.17s2.98-1.44,2.98-3.13Zm4.55-4.98h2.26v1.53c.63-.93,1.55-1.73,3.08-1.73,2.22,0,3.51,1.49,3.51,3.79v6.27h-2.26v-5.59c0-1.53-.76-2.41-2.11-2.41s-2.22.91-2.22,2.44v5.56h-2.26v-9.85Zm12.03,7.12v-5.18h-1.25v-1.94h1.25v-2.7h2.26v2.7h2.65v1.94h-2.65v4.83c0,.88.45,1.23,1.21,1.23.5,0,.95-.11,1.4-.34v1.85c-.56.32-1.19.5-2.03.5-1.66,0-2.83-.73-2.83-2.89Zm7.22-10.78h2.42v2.14h-2.42v-2.14Zm.09,3.66h2.26v9.85h-2.26v-9.85Zm5.2,0h2.26v1.53c.63-.93,1.55-1.73,3.08-1.73,2.22,0,3.51,1.49,3.51,3.79v6.27h-2.26v-5.59c0-1.53-.76-2.41-2.11-2.41s-2.22.91-2.22,2.44v5.56h-2.26v-9.85Zm11.45,6.27v-6.27h2.26v5.59c0,1.53.76,2.41,2.11,2.41s2.22-.91,2.22-2.44v-5.56h2.26v9.85h-2.26v-1.53c-.63.93-1.55,1.73-3.08,1.73-2.22,0-3.51-1.49-3.51-3.79Zm11.14-1.31v-.04c0-2.82,2-5.13,4.81-5.13,3.13,0,4.72,2.46,4.72,5.3,0,.21-.02.41-.04.63h-7.23c.24,1.6,1.38,2.5,2.83,2.5,1.1,0,1.88-.41,2.67-1.17.53.47.79.7,1.32,1.17-.93,1.12-2.22,1.85-4.03,1.85-2.85,0-5.05-2.07-5.05-5.11Zm7.29-.73c-.15-1.46-1.01-2.59-2.5-2.59-1.38,0-2.35,1.06-2.55,2.59h5.05Zm4.01.71v-.04c0-3.26,2.22-5.11,4.57-5.11,1.62,0,2.65.82,3.36,1.73v-5.3h2.26v13.61h-2.26v-1.64c-.73,1.03-1.75,1.85-3.36,1.85-2.31,0-4.57-1.85-4.57-5.11Zm7.96,0v-.04c0-1.9-1.34-3.15-2.85-3.15s-2.83,1.19-2.83,3.15v.04c0,1.9,1.31,3.15,2.83,3.15s2.85-1.27,2.85-3.15Zm9.83,3.62c.4-.61.6-.92,1.01-1.53,1.06.8,2.22,1.21,3.23,1.21s1.53-.41,1.53-1.06v-.04c0-.76-1.05-1.04-2.2-1.38-1.43-.42-3.08-1.01-3.08-2.89v-.04c0-1.87,1.55-3,3.51-3,1.23,0,2.57.43,3.62,1.12-.36.64-.54.96-.9,1.6-.95-.58-1.96-.93-2.78-.93-.88,0-1.38.41-1.38.99v.04c0,.71,1.07,1.01,2.22,1.38,1.43.45,3.06,1.1,3.06,2.87v.04c0,2.07-1.6,3.1-3.65,3.1-1.4,0-2.95-.5-4.18-1.47Zm10.02-2.29v-6.27h2.26v5.59c0,1.53.76,2.41,2.11,2.41s2.22-.91,2.22-2.44v-5.56h2.26v9.85h-2.26v-1.53c-.63.93-1.55,1.73-3.08,1.73-2.22,0-3.51-1.49-3.51-3.79Zm11.68-6.27h2.26v1.64c.73-1.03,1.75-1.85,3.34-1.85,2.33,0,4.59,1.85,4.59,5.11v.04c0,3.26-2.24,5.11-4.59,5.11-1.62,0-2.65-.82-3.34-1.73v4.51h-2.26v-12.83Zm7.89,4.94v-.04c0-1.9-1.29-3.15-2.82-3.15s-2.87,1.27-2.87,3.15v.04c0,1.9,1.34,3.15,2.87,3.15s2.82-1.21,2.82-3.15Zm4.61-4.94h2.26v1.64c.73-1.03,1.75-1.85,3.34-1.85,2.33,0,4.59,1.85,4.59,5.11v.04c0,3.26-2.24,5.11-4.59,5.11-1.62,0-2.65-.82-3.34-1.73v4.51h-2.26v-12.83Zm7.89,4.94v-.04c0-1.9-1.29-3.15-2.82-3.15s-2.87,1.27-2.87,3.15v.04c0,1.9,1.34,3.15,2.87,3.15s2.82-1.21,2.82-3.15Zm4.07.04v-.04c0-2.82,2.24-5.15,5.26-5.15s5.24,2.29,5.24,5.11v.04c0,2.8-2.24,5.13-5.28,5.13s-5.22-2.29-5.22-5.09Zm8.24,0v-.04c0-1.73-1.25-3.17-3.02-3.17s-2.96,1.42-2.96,3.13v.04c0,1.72,1.25,3.17,3,3.17s2.98-1.44,2.98-3.13Zm4.55-4.98h2.26v2.22c.62-1.47,1.75-2.48,3.49-2.41v2.39h-.13c-1.98,0-3.36,1.29-3.36,3.9v3.75h-2.26v-9.85Zm8.17,7.12v-5.18h-1.25v-1.94h1.25v-2.7h2.26v2.7h2.65v1.94h-2.65v4.83c0,.88.45,1.23,1.21,1.23.5,0,.95-.11,1.4-.34v1.85c-.56.32-1.19.5-2.03.5-1.66,0-2.83-.73-2.83-2.89Z"/></g></svg>