<?xml version="1.0" encoding="UTF-8"?><svg id="Layer_2" xmlns="http://www.w3.org/2000/svg" viewBox="0 0 100 100"><defs><style>.cls-1{fill:#fff;stroke-width:0px;}</style></defs><g id="Layer_1-2"><path class="cls-1" d="m29,26.79c0-1.36.05-2.64-.02-3.92-.07-1.21,1.05-2.28,2.21-2.29,1.35-.01,2.38.91,2.39,2.23.02,3.39.02,6.79,0,10.18,0,.99-.95,2.21-2.38,2.13-1.21-.07-2.18-.94-2.21-2.15-.02-.62,0-1.24,0-1.91h-4.17c-.01.14-.03.28-.03.42,0,2.48,0,4.97-.01,7.45,0,.49.14.64.63.64,14.01-.01,28.02-.01,42.03,0,.5,0,.68-.13.68-.66-.03-2.6-.01-5.21-.01-7.88h-4.51v-4.35c2.06.12,4.04.09,5.97.4,1.55.25,2.63,1.85,2.64,3.42.02,6.52.01,13.04.01,19.56,0,.1-.02.19-.03.22-1.29-.39-2.57-.75-3.84-1.17-.13-.04-.24-.36-.24-.54-.02-1.84-.01-3.68-.01-5.53,0-.22,0-.44,0-.7H24.8v.67c0,7.78,0,15.56-.01,23.34,0,.65.2.78.81.78,7.45-.02,14.9-.01,22.35-.01h.68c.36,1.39.7,2.72,1.05,4.09-.17,0-.36.03-.56.03-8.24,0-16.47,0-24.71,0-1.93,0-3.72-1.8-3.72-3.73,0-12.29,0-24.59,0-36.88,0-1.82,1.39-3.45,3.18-3.71.5-.07,1.02-.12,1.53-.12,1.18-.02,2.35,0,3.61,0Zm35.1,52.65c8.91.45,14.89-6.55,15.19-13.63.37-8.52-6.57-14.93-14.18-14.99-7.97-.06-14.59,6.59-14.4,14.24-.16,8.02,6.31,14.01,13.39,14.37Zm.99-24.44c5.78.1,10.07,4.59,10.03,10.19-.03,5.81-4.5,10.07-10.13,10.11-5.64.04-10.12-4.45-10.17-10.16.02-5.58,4.55-10.23,10.27-10.14Zm-22.56-22.43c.02,1.4.98,2.49,2.22,2.55,1.4.06,2.49-1.03,2.5-2.5,0-3.1,0-6.21,0-9.31,0-.36-.04-.74-.13-1.09-.41-1.6-2.51-2.18-3.73-1.07-.68.62-.82,1.39-.84,2.21-.03,1.13,0,2.26,0,3.44-.29,0-.52,0-.74,0-1.63,0-3.27-.01-4.9.01-.19,0-.53.19-.54.3-.04,1.29-.02,2.59-.02,3.91h6.2c0,.54,0,1.04,0,1.55Zm7.5-5.75v4.22h6.1c.06.84.07,1.64.2,2.42.16,1,1.15,1.8,2.55,1.66.78-.08,1.93-.97,1.92-2.13-.02-3.43,0-6.86-.02-10.29,0-.33-.12-.68-.28-.97-.52-.89-1.61-1.35-2.52-1.11-1.09.29-1.78,1.17-1.79,2.31,0,1.26,0,2.52,0,3.89h-6.16Zm-1.01,26.07c.72,0,1.18-.44,1.21-1.17.03-.74.02-1.49,0-2.23-.02-.68-.53-1.19-1.21-1.2-1.67-.01-3.35-.01-5.02,0-.67,0-1.19.53-1.21,1.2-.02.74-.03,1.49,0,2.23.03.73.48,1.16,1.21,1.17.83.01,1.65,0,2.48,0,.85,0,1.7,0,2.54,0Zm-11.54,8.32c.71,0,1.19-.48,1.2-1.17.01-.72.01-1.45,0-2.17-.01-.72-.5-1.25-1.21-1.26-1.67-.02-3.35-.02-5.02,0-.54,0-1.05.24-1.09.85-.07.95-.1,1.92-.04,2.87.04.6.52.88,1.14.88.85,0,1.69,0,2.54,0,.83,0,1.65,0,2.48,0Zm-2.5-8.32c.83,0,1.65.01,2.48,0,.72-.01,1.19-.46,1.22-1.19.03-.72.03-1.45,0-2.17-.03-.7-.59-1.25-1.26-1.25-1.61,0-3.22-.01-4.83,0-.79,0-1.33.56-1.35,1.35-.02.64-.03,1.28,0,1.92.04.74.42,1.39,1.39,1.34.78-.04,1.57,0,2.35,0h0Zm15.13,5.36c.31-.85-.21-1.64-1.12-1.64-1.65-.02-3.31-.02-4.96,0-.57,0-1.09.24-1.13.89-.06.94-.11,1.88-.04,2.82.03.46.35.88.94.88,1.74,0,3.47,0,5.22,0,.38-1.02.75-1.98,1.1-2.95Zm4.5-5.81c2.1-1.65,4.46-2.76,7.07-3.36-.22-.6-.64-.8-1.17-.8-1.63-.01-3.27,0-4.9,0-.63,0-1.2.37-1.24.96-.07,1.03-.02,2.08-.02,3.12.09.03.17.05.26.08Zm10.53,10.6c-.21-.01-.46-.15-.62-.31-1.07-1.04-2.11-2.1-3.17-3.15-.56-.55-1.3-.55-1.86-.02-.69.66-.64,1.48.17,2.3.96.97,1.93,1.92,2.88,2.9.17.17.29.43.34.67.29,1.27,1.2,1.87,2.2,1.8,1.14-.08,1.99-.83,1.92-2.1.14-.98-.81-2.03-1.88-2.1ZM50,0C22.43,0,0,22.43,0,50s22.43,50,50,50,50-22.43,50-50S77.57,0,50,0Zm0,95.13c-24.88,0-45.13-20.24-45.13-45.13S25.12,4.87,50,4.87s45.13,20.24,45.13,45.13-20.24,45.13-45.13,45.13Z"/></g></svg>