<?xml version="1.0" encoding="UTF-8"?><svg id="Layer_2" xmlns="http://www.w3.org/2000/svg" viewBox="0 0 100 100"><defs><style>.cls-1{fill:#fff;stroke-width:0px;}</style></defs><g id="Layer_1-2"><path class="cls-1" d="m44.91,25.27c7.24,0,14.5-.2,21.73.11,2.64.11,4.25-.76,5.79-2.56,1.37-1.61,3.15-2.53,5.31-2.56,2.84-.05,5.43,1.58,6.51,4.18,1.14,2.76.72,5.34-1.34,7.51-2.4,2.53-4.89,4.98-7.39,7.42-.58.57-.82,1.14-.82,1.96.03,7.73.02,15.46.02,23.2,0,4.78-2.86,7.64-7.63,7.64-10.66,0-21.32.01-31.98-.02-.85,0-1.36.19-1.78.99-.86,1.66-1.85,3.26-2.77,4.89-.49.86-.94,1.74-2.14,1.72-1.19-.02-1.61-.93-2.1-1.78-.96-1.7-1.9-3.41-2.93-5.06-.22-.36-.78-.69-1.2-.72-4.34-.28-7.04-3.1-7.05-7.46,0-10.7,0-21.4,0-32.09,0-4.36,2.98-7.35,7.36-7.36,7.47-.01,14.94,0,22.41,0Zm21.09,3.86c-.36-.03-.47-.05-.58-.05-14.34,0-28.68,0-43.02,0-2.18,0-3.45,1.32-3.46,3.55,0,3.94,0,7.88,0,11.83,0,6.79,0,13.59,0,20.38,0,1.78.88,3.06,2.37,3.39.58.13,1.2.19,1.79.13,1.5-.15,2.49.38,3.14,1.78.61,1.3,1.42,2.51,2.21,3.88.83-1.42,1.64-2.65,2.27-3.96.63-1.3,1.55-1.71,2.96-1.71,11.15.04,22.3.03,33.45.02,2.59,0,3.78-1.21,3.78-3.8,0-6.46,0-12.91,0-19.37,0-.31-.04-.61-.09-1.2-1.43,1.46-2.6,2.77-3.91,3.95-.51.46-1.29.8-1.97.83-2.13.1-4.28.05-6.42.03-1.56-.01-2.24-.72-2.25-2.3-.01-2.1-.08-4.21.04-6.3.04-.74.39-1.63.89-2.16,2.59-2.71,5.28-5.33,7.93-7.99.25-.25.49-.53.87-.93Zm-5.87,15.8c1.14,0,2.18-.05,3.22.02.81.05,1.39-.2,1.97-.78,4.95-4.96,9.95-9.88,14.88-14.85.46-.46.74-1.22.85-1.88.2-1.31-.58-2.52-1.78-3.09-1.25-.59-2.57-.34-3.69.78-5,4.97-9.98,9.95-14.96,14.94-.22.22-.45.55-.46.84-.05,1.31-.02,2.61-.02,4.04Zm1.79,15.84c.41,0,.83,0,1.22-.1.97-.25,1.45-.97,1.4-1.92-.05-.96-.64-1.58-1.62-1.75-.33-.06-.67-.03-1.01-.03-11.33,0-22.67,0-34,0-.3,0-.6-.02-.9.01-.97.11-1.72.84-1.73,1.77-.01.97.47,1.65,1.41,1.93.35.1.74.09,1.11.09,5.7,0,11.41,0,17.11,0,5.67,0,11.33,0,17,0Zm-14.6-10.14c1.19,0,1.98-.78,2.01-1.84.03-1.09-.72-1.95-1.88-1.95-6.75-.02-13.5-.02-20.26,0-1.06,0-1.8.73-1.91,1.71-.13,1.15.77,2.07,2.11,2.08,3.3.02,6.6,0,9.9,0,3.34,0,6.68.02,10.02,0Zm-19.74-13.93c-1.43,0-2.31.75-2.31,1.9,0,1.15.89,1.9,2.31,1.91,6.49,0,12.98,0,19.47,0,1.46,0,2.29-.71,2.28-1.91,0-1.19-.83-1.89-2.28-1.9-3.23,0-6.45,0-9.68,0-3.26,0-6.53,0-9.79,0ZM50,0C22.43,0,0,22.43,0,50s22.43,50,50,50,50-22.43,50-50S77.57,0,50,0Zm0,95.13c-24.88,0-45.13-20.24-45.13-45.13S25.12,4.87,50,4.87s45.13,20.24,45.13,45.13-20.24,45.13-45.13,45.13Z"/></g></svg>