<?xml version="1.0" encoding="UTF-8"?><svg id="Layer_2" xmlns="http://www.w3.org/2000/svg" viewBox="0 0 100 100"><defs><style>.cls-1{fill:#fff;stroke-width:0px;}</style></defs><g id="Layer_1-2"><path class="cls-1" d="m50,100C22.43,100,0,77.57,0,50S22.43,0,50,0s50,22.43,50,50-22.43,50-50,50Zm0-95.13C25.12,4.87,4.87,25.12,4.87,50s20.24,45.13,45.13,45.13,45.13-20.24,45.13-45.13S74.88,4.87,50,4.87Zm-24.47,44.96c0-7.75,0-15.5,0-23.26,0-.59,0-1.18.16-1.75.47-1.63,1.75-2.65,3.45-2.73.2,0,.41-.01.61-.01,12.46,0,24.92,0,37.38,0,1.49,0,2.65.58,3.4,1.89.35.62.48,1.31.48,2.03,0,3.56,0,7.11,0,10.67,0,.36.11.58.4.79,1.29.96,2.55,1.97,3.84,2.94,1.42,1.07,2.4,3.43.75,5.5-1.4,1.75-2.72,3.56-4.16,5.27-.23.27-.44.57-.67.84-.18.21-.15.45-.15.69,0,4.08,0,8.16,0,12.24,0,2.88,0,5.76,0,8.63,0,2.17-1.51,3.73-3.67,3.81-.14,0-.28,0-.42,0-12.5,0-24.99,0-37.49,0-1.44,0-2.58-.54-3.36-1.77-.38-.6-.53-1.27-.53-1.97,0-3.42,0-6.83,0-10.25,0-4.53,0-9.06,0-13.58h0Zm42.98,5.76c-.24.12-.33.3-.45.45-3.15,4.05-6.29,8.1-9.49,12.11-.66.83-1.49,1.33-2.51,1.57-2.1.49-4.2,1-6.3,1.5-1.01.24-1.72-.3-1.74-1.35-.03-2.15-.03-4.3-.1-6.44-.03-1.16.32-2.14,1.04-3.04,1.91-2.38,3.79-4.79,5.69-7.19.07-.08.2-.16.14-.29-.06-.12-.21-.07-.32-.07-1.6,0-3.2,0-4.8,0-.67,0-1.33.01-2,0-.67-.02-1.22-.53-1.27-1.16-.06-.64.39-1.19,1.09-1.31.19-.03.38-.03.57-.03,2.8,0,5.6,0,8.4,0,.3,0,.51-.08.68-.33.67-1,1.47-1.9,2.21-2.85.09-.11.27-.22.18-.39-.07-.14-.26-.07-.39-.07-3.7,0-7.39,0-11.09,0-.15,0-.31,0-.46,0-.65-.06-1.17-.58-1.2-1.19-.03-.61.37-1.1,1.02-1.26.23-.06.46-.05.69-.05,4.37,0,8.75,0,13.12,0,.25,0,.46,0,.64-.25,1.4-1.93,2.93-3.75,4.39-5.62.48-.62,1.07-1.11,1.83-1.34.34-.1.42-.27.42-.6-.01-2.71,0-5.42,0-8.13,0-.81,0-1.61,0-2.42-.01-.76-.47-1.21-1.23-1.24-.1,0-.2,0-.31,0-12.45,0-24.89,0-37.34,0-.1,0-.2,0-.31,0-.78.02-1.24.45-1.29,1.23-.01.2,0,.41,0,.61,0,15.48,0,30.95,0,46.43,0,.26,0,.51.01.77.07.82.52,1.24,1.35,1.25.15,0,.31,0,.46,0,12.2,0,24.41,0,36.61,0,.29,0,.59.01.88,0,.69-.03,1.14-.49,1.17-1.18,0-.11,0-.23,0-.35,0-5.77,0-11.54,0-17.31,0-.14,0-.28,0-.47Zm-18.1,7.65c.14,1.77.1,3.29.11,4.81,0,.31.07.42.4.34,1.59-.39,3.18-.75,4.77-1.13.36-.09.63-.29.88-.58.55-.64,1.02-1.34,1.54-2.01,2.47-3.15,4.92-6.31,7.39-9.46,1.76-2.26,3.52-4.52,5.29-6.77.17-.21.19-.34-.05-.52-1.72-1.33-3.43-2.67-5.13-4.02-.25-.2-.39-.17-.58.08-1.6,2.07-3.22,4.14-4.83,6.2-1.46,1.86-2.93,3.71-4.38,5.58-1.57,2.03-3.12,4.08-4.76,6.06-.41.49-.74.99-.64,1.42Zm18.83-23.99c-.34,0-.64.16-.88.43-.5.56-.93,1.19-1.39,1.78-.14.17-.06.26.08.37.38.29.75.58,1.12.87,1.37,1.07,2.73,2.15,4.1,3.22.16.13.31.29.51.02.43-.57.88-1.13,1.3-1.71.42-.58.34-1.22-.22-1.67-1.24-1-2.5-1.99-3.75-2.99-.24-.19-.52-.33-.87-.34Zm-37.57,26.26c.03-.62-.09-1.46.05-2.28.31-1.79,1.73-3.03,3.54-3.07,1.3-.03,2.61-.03,3.91,0,1.96.03,3.53,1.6,3.57,3.6.03,1.36.03,2.71,0,4.07-.03,1.61-1.36,3.07-3.02,3.36-.78.14-1.56.08-2.33.07-.92,0-1.84.09-2.76-.07-1.68-.3-2.94-1.76-2.98-3.47-.02-.66,0-1.33,0-2.2Zm8.59.2h0c0-.61.01-1.23,0-1.84-.02-.72-.47-1.19-1.18-1.2-1.24-.02-2.48-.02-3.72,0-.67,0-1.16.47-1.18,1.12-.02,1.24-.03,2.48,0,3.72.02.8.52,1.23,1.32,1.23,1.16,0,2.33,0,3.49,0,.8,0,1.25-.47,1.26-1.28,0-.59,0-1.18,0-1.76Zm20.34-33.75c.97,0,1.94.01,2.91,0,.97-.02,1.6-.9,1.23-1.73-.27-.61-.79-.78-1.41-.78-5.13,0-10.25,0-15.38,0-.25,0-.49.02-.72.1-.77.26-1.08,1.18-.6,1.85.3.42.73.57,1.23.57,2.58,0,5.16,0,7.75,0,1.66,0,3.32,0,4.99,0Zm0,6.14c.97,0,1.94.01,2.91,0,.98-.02,1.6-.89,1.23-1.73-.27-.61-.79-.78-1.41-.78-5.13,0-10.25,0-15.38,0-.25,0-.49.02-.72.1-.78.26-1.08,1.18-.6,1.85.3.42.73.57,1.23.57,2.58,0,5.16,0,7.75,0,1.66,0,3.32,0,4.99,0Zm-23.99-.64c1.11-1.15,2.23-2.29,3.37-3.41.84-.82,1.7-1.63,2.45-2.54.58-.69.31-1.67-.53-1.97-.57-.2-1.02.01-1.41.41-1.57,1.6-3.18,3.15-4.71,4.78-.22.24-.39.27-.62,0-.43-.48-.87-.94-1.32-1.39-.54-.54-1.24-.55-1.75-.07-.54.5-.59,1.17-.07,1.74.83.92,1.7,1.8,2.57,2.69.23.23.5.4.82.38.55.01.88-.31,1.2-.64Zm0,14.73c1.11-1.15,2.23-2.29,3.37-3.41.84-.82,1.7-1.63,2.45-2.54.61-.73.29-1.72-.61-1.99-.55-.17-.97.06-1.34.44-1.57,1.6-3.18,3.15-4.71,4.78-.22.24-.39.26-.62,0-.45-.49-.9-.98-1.38-1.44-.51-.49-1.2-.48-1.69-.02-.52.49-.6,1.15-.12,1.68.86.95,1.75,1.86,2.64,2.78.22.22.5.36.82.35.51,0,.85-.31,1.17-.65Z"/></g></svg>