<?xml version="1.0" encoding="UTF-8"?><svg id="Layer_2" xmlns="http://www.w3.org/2000/svg" viewBox="0 0 80 30"><defs><style>.cls-1{fill:#eb5d3e;}.cls-2{fill:#fff;}.cls-3{fill:#7b549e;fill-rule:evenodd;}</style></defs><g id="Layer_1-2"><path class="cls-3" d="m65,30H15C6.72,30,0,23.28,0,15h0C0,6.72,6.72,0,15,0h50c8.28,0,15,6.72,15,15h0c0,8.28-6.72,15-15,15Zm13-15c0,7.17-5.83,13-13,13s-13-5.83-13-13,5.83-13,13-13,13,5.83,13,13Z"/><path class="cls-2" d="m8.68,9.91h6.03v.88h-5.09v3h4.55v.86h-4.55v3.66h-.95v-8.4Zm7.15,5.33v-.02c0-1.75,1.37-3.24,3.24-3.24s3.23,1.46,3.23,3.21v.02c0,1.75-1.38,3.24-3.25,3.24s-3.21-1.46-3.21-3.21Zm5.52,0v-.02c0-1.33-1-2.42-2.3-2.42s-2.27,1.09-2.27,2.4v.02c0,1.33.98,2.41,2.29,2.41s2.28-1.08,2.28-2.39Zm2.7-5.69h.92v8.76h-.92v-8.76Zm3.16,0h.92v8.76h-.92v-8.76Zm2.69,5.69v-.02c0-1.75,1.37-3.24,3.24-3.24s3.23,1.46,3.23,3.21v.02c0,1.75-1.38,3.24-3.25,3.24s-3.21-1.46-3.21-3.21Zm5.52,0v-.02c0-1.33-1-2.42-2.3-2.42s-2.27,1.09-2.27,2.4v.02c0,1.33.98,2.41,2.29,2.41s2.28-1.08,2.28-2.39Zm1.79-3.13h.98c.65,1.99.98,2.99,1.63,4.98.67-2,1-3,1.67-5h.77c.67,2,1.01,3,1.68,5,.65-1.99.98-2.99,1.63-4.98h.96c-.87,2.5-1.31,3.75-2.18,6.25h-.8c-.67-1.96-1-2.94-1.67-4.89-.67,1.96-1.01,2.94-1.68,4.89h-.82c-.87-2.5-1.3-3.75-2.17-6.25Z"/><path class="cls-1" d="m59.13,15.96v-3.85h.92v3.62c0,1.15.62,1.87,1.72,1.87s1.86-.78,1.86-1.94v-3.55h.91v6.2h-.91v-1.08c-.42.67-1.06,1.21-2.12,1.21-1.5,0-2.37-1.01-2.37-2.48Zm6.97,1.56c.19-.26.28-.4.47-.66.67.5,1.42.79,2.15.79s1.28-.38,1.28-.98v-.02c0-.62-.73-.86-1.55-1.09-.97-.27-2.05-.61-2.05-1.75v-.02c0-1.07.89-1.77,2.11-1.77.76,0,1.6.26,2.23.68l-.42.7c-.58-.37-1.24-.6-1.83-.6-.73,0-1.2.38-1.2.9v.02c0,.59.77.82,1.6,1.07.96.29,1.99.66,1.99,1.77v.02c0,1.18-.97,1.86-2.21,1.86-.89,0-1.87-.35-2.57-.91Z"/></g></svg>