<?xml version="1.0" encoding="UTF-8"?><svg id="Layer_2" xmlns="http://www.w3.org/2000/svg" viewBox="0 0 30 30"><defs><style>.cls-1{fill:#eb5d3e;fill-rule:evenodd;}</style></defs><g id="Layer_1-2"><path class="cls-1" d="m15.02,11.57h-.05c-1.87,0-3.43,1.55-3.43,3.43s1.55,3.47,3.43,3.47h.05c1.87,0,3.43-1.55,3.43-3.47s-1.55-3.43-3.43-3.43Z"/><path class="cls-1" d="m19.37,7.09h-8.73c-1.97,0-3.57,1.6-3.57,3.57v8.69c0,1.97,1.6,3.57,3.57,3.57h8.73c1.97,0,3.57-1.6,3.57-3.57v-8.69c0-1.97-1.6-3.57-3.57-3.57Zm-4.34,13.12h-.05c-2.83,0-5.17-2.33-5.17-5.21s2.33-5.21,5.17-5.21h.05c2.83,0,5.21,2.38,5.21,5.21s-2.38,5.21-5.21,5.21Zm5.12-9.24c-.64,0-1.1-.5-1.1-1.1s.46-1.1,1.1-1.1c.59,0,1.1.5,1.1,1.1s-.5,1.1-1.1,1.1Z"/><path class="cls-1" d="m15,0C6.72,0,0,6.72,0,15s6.72,15,15,15,15-6.72,15-15S23.28,0,15,0Zm9.58,19.39c0,2.83-2.33,5.17-5.17,5.17h-8.82c-2.83,0-5.17-2.33-5.17-5.17v-8.78c0-2.83,2.33-5.17,5.17-5.17h8.82c2.83,0,5.17,2.33,5.17,5.17v8.78Z"/></g></svg>