<?xml version="1.0" encoding="UTF-8"?><svg id="Layer_2" xmlns="http://www.w3.org/2000/svg" viewBox="0 0 30 30"><defs><style>.cls-1{fill:#7b549e;fill-rule:evenodd;}</style></defs><g id="Layer_1-2"><path class="cls-1" d="m15,0C6.72,0,0,6.72,0,15s6.72,15,15,15,15-6.72,15-15S23.28,0,15,0Zm-4.96,23.33h-3.38v-11.34h3.38v11.34Zm-1.71-13.01c-1.13,0-2-.92-2-2.04s.88-2.04,2-2.04,2.04.92,2.04,2.04-.92,2.04-2.04,2.04Zm15.01,7.09v5.92h-3.34v-6.13c-.04-1.29-.92-2.29-2.21-2.29s-2.38,1-2.42,2.29v6.13h-3.34v-11.34h3.34v1.58c.71-1.04,1.88-1.71,3.21-1.71h.92c2.13,0,3.84,1.75,3.84,3.84v1.71Z"/></g></svg>