<?xml version="1.0" encoding="UTF-8"?><svg id="Layer_2" xmlns="http://www.w3.org/2000/svg" viewBox="0 0 100 100"><defs><style>.cls-1{fill:#fff;stroke-width:0px;}</style></defs><g id="Layer_1-2"><path class="cls-1" d="m50,100C22.43,100,0,77.57,0,50S22.43,0,50,0s50,22.43,50,50-22.43,50-50,50Zm0-95.13C25.12,4.87,4.87,25.12,4.87,50s20.24,45.13,45.13,45.13,45.13-20.24,45.13-45.13S74.88,4.87,50,4.87Zm13.45,51.09c3.21-3.19,6.41-6.38,9.59-9.59,2.95-2.98,4.34-6.57,4.05-10.77-.23-3.35-1.54-6.25-3.9-8.6-2.91-2.9-6.46-4.28-10.59-4.04-3.24.19-6.07,1.39-8.43,3.59-1.83,1.7-3.56,3.5-5.31,5.29-1.29,1.33-1.24,3.47.05,4.79,1.34,1.36,3.53,1.38,4.9.03,1.62-1.6,3.2-3.23,4.83-4.81,1.58-1.54,3.48-2.23,5.68-1.92,2.65.38,4.53,1.85,5.45,4.35.96,2.6.45,5.04-1.48,7.04-3.22,3.32-6.49,6.58-9.8,9.8-1.76,1.72-3.92,2.26-6.34,1.7-1.26-.29-2.3-.96-3.23-1.84-.46-.43-1.01-.73-1.63-.86-1.52-.32-3.04.38-3.79,1.75-.71,1.29-.47,3.03.61,4.1,2.68,2.63,5.92,3.93,9.74,4.02,3.66-.09,6.92-1.36,9.58-4.01Zm-40.15,8.73c.53,3.99,2.37,7.21,5.65,9.56,2.83,2.03,6.01,2.86,9.48,2.48,2.97-.32,5.59-1.5,7.76-3.54,1.82-1.71,3.56-3.5,5.31-5.29.82-.84,1.1-1.89.86-3.03-.28-1.34-1.1-2.25-2.42-2.63-1.3-.38-2.47-.06-3.43.89-1.61,1.58-3.19,3.21-4.81,4.79-1.58,1.55-3.51,2.22-5.69,1.91-2.71-.39-4.6-1.92-5.49-4.5-.87-2.52-.38-4.89,1.47-6.81,3.26-3.37,6.57-6.68,9.94-9.94,1.89-1.82,4.2-2.24,6.72-1.51,1.11.32,2,1.02,2.86,1.76,1.35,1.17,3.32,1.15,4.6,0,1.33-1.19,1.52-3.09.48-4.6-.54-.78-1.3-1.34-2.05-1.87-2.84-2.02-6.01-2.84-9.48-2.48-3.06.32-5.73,1.54-7.92,3.69-3.35,3.28-6.65,6.6-9.94,9.93-2.63,2.66-3.92,5.9-3.98,9.63.02.53.02,1.05.09,1.57Z"/></g></svg>