<?xml version="1.0" encoding="UTF-8"?><svg xmlns="http://www.w3.org/2000/svg" xmlns:xlink="http://www.w3.org/1999/xlink" viewBox="0 0 251.43 80"><defs><style>.cls-1{fill:url(#linear-gradient);}.cls-2{fill:none;isolation:isolate;}.cls-3{fill:#eb5d3e;}.cls-4{fill:#7b549e;}.cls-5{fill:url(#linear-gradient-2);mix-blend-mode:multiply;}.cls-6{fill:url(#linear-gradient-3);}</style><linearGradient id="linear-gradient" x1="66.94" y1="47.19" x2="70.82" y2="32.71" gradientUnits="userSpaceOnUse"><stop offset=".2" stop-color="#7b549e"/><stop offset=".8" stop-color="#eb5d3e"/></linearGradient><linearGradient id="linear-gradient-2" x1="51.25" y1="35.28" x2="86.47" y2="44.72" gradientUnits="userSpaceOnUse"><stop offset=".25" stop-color="#8a67a9" stop-opacity="0"/><stop offset=".5" stop-color="#8a67a9"/><stop offset=".75" stop-color="#8a67a9" stop-opacity="0"/></linearGradient><linearGradient id="linear-gradient-3" x1="3532.82" y1="59.53" x2="3522.35" y2="20.47" gradientTransform="translate(3596.44) rotate(-180) scale(1 -1)" gradientUnits="userSpaceOnUse"><stop offset=".1" stop-color="#7b549e"/><stop offset=".9" stop-color="#eb5d3e"/></linearGradient></defs><g class="cls-2"><g id="Layer_2"><g id="Layer_1-2"><path class="cls-4" d="m54.67,51.76c-6.57,0-11.24-5.34-11.24-11.76v-.09c0-6.43,4.58-11.67,11.15-11.67s11.24,5.34,11.24,11.76c0-3.67,1.11-7.09,3.09-9.91-3-4.34-8.05-7.2-14.24-7.2-10.16,0-17.34,7.79-17.34,17.1v.09c0,9.31,7.09,17.01,17.24,17.01,6.16,0,11.22-2.87,14.25-7.2-1.93-2.78-3.01-6.17-3.01-9.81,0,6.42-4.58,11.67-11.15,11.67Z"/><path class="cls-3" d="m83.15,22.9c-6.16,0-11.22,2.87-14.25,7.2,1.93,2.78,3.01,6.17,3.01,9.81,0-6.43,4.58-11.67,11.15-11.67s11.24,5.34,11.24,11.76v.09c0,6.42-4.58,11.67-11.15,11.67s-11.24-5.34-11.24-11.76c0,3.67-1.11,7.09-3.09,9.91,3,4.34,8.05,7.2,14.24,7.2,10.16,0,17.33-7.8,17.33-17.1v-.09c0-9.31-7.08-17.01-17.24-17.01Z"/><path class="cls-1" d="m71.91,39.91v.09c0,3.67-1.11,7.09-3.09,9.91-1.93-2.78-3.01-6.17-3.01-9.81v-.09c0-3.67,1.11-7.09,3.09-9.91,1.93,2.78,3.01,6.17,3.01,9.81Z"/><path class="cls-4" d="m0,22.9h6.4c3.47,5.39,6.94,10.78,10.41,16.17,3.47-5.39,6.94-10.78,10.41-16.17h6.4v34.2h-6.01v-24.53c-3.6,5.37-7.2,10.75-10.8,16.12h-.2c-3.57-5.34-7.13-10.68-10.7-16.03v24.43H0V22.9Z"/><path class="cls-4" d="m0,22.9h6.4c3.47,5.39,6.94,10.78,10.41,16.17,3.47-5.39,6.94-10.78,10.41-16.17h6.4v34.2h-6.01v-24.53c-3.6,5.37-7.2,10.75-10.8,16.12h-.2c-3.57-5.34-7.13-10.68-10.7-16.03v24.43H0V22.9Z"/><path class="cls-3" d="m104.54,23.47h14.74c4.16,0,7.47,1.23,9.54,3.31,1.75,1.75,2.74,4.25,2.74,7.13v.09c.29,4.93-3.46,8.69-7.89,10.02,2.98,4.17,5.95,8.35,8.93,12.52h-6.85c-2.71-3.84-5.42-7.68-8.13-11.53h-7.28v11.53h-5.81V23.47Zm14.32,16.39c4.16,0,6.8-2.17,6.8-5.53v-.09c0-3.54-2.55-5.48-6.85-5.48h-8.46v11.1h8.5Z"/><path class="cls-3" d="m139.03,23.47h5.81v33.07h-5.81V23.47Z"/><path class="cls-3" d="m153.68,23.47h5.39c5.91,7.62,11.81,15.24,17.72,22.87v-22.87h5.72v33.07h-4.87c-6.08-7.84-12.16-15.68-18.24-23.53v23.53h-5.72V23.47Z"/><path class="cls-3" d="m189.53,40.09v-.09c0-9.42,7.72-17.02,17.06-17.1,4.63-.04,9.18,1.38,12.71,4.49-1.47,1.76-2.21,2.64-3.69,4.39-2.55-2.17-5.14-3.46-9.26-3.54-6.19-.13-10.52,6.01-10.72,11.67v.09c-.3,6.39,4.87,11.84,11.24,11.81,3.1-.01,5.95-.99,7.98-2.5v-6.19h-8.46v-5.05h14.08v13.89c-3.83,3.28-8.75,5.13-13.8,5.15-9.62.03-17.2-7.32-17.15-17.01Z"/><path class="cls-3" d="m225.82,51.72c1.4-1.66,2.1-2.49,3.5-4.16,2.52,2.48,6.94,4.38,10.44,4.3,3.51-.08,5.86-1.65,5.86-4.16v-.09c0-2.36-1.35-3.69-7.47-5.05-5.33-1.19-11.05-3.54-11.01-9.87v-.09c.23-5.84,5.75-9.72,11.29-9.59,4.23.1,8.61,1.4,12,4.16-1.25,1.76-1.87,2.64-3.12,4.39-2.98-2.22-5.95-3.4-8.98-3.4-3.4,0-5.39,1.75-5.39,3.92v.09c0,2.55,1.6,3.83,7.84,5.2,4.9,1.08,10.79,3.74,10.63,9.68v.09c.08,6.35-6.1,10-11.81,9.87-4.96-.11-10.01-1.89-13.8-5.29Z"/><path class="cls-3" d="m104.54,23.47h14.74c4.16,0,7.47,1.23,9.54,3.31,1.75,1.75,2.74,4.25,2.74,7.13v.09c.29,4.93-3.46,8.69-7.89,10.02,2.98,4.17,5.95,8.35,8.93,12.52h-6.85c-2.71-3.84-5.42-7.68-8.13-11.53h-7.28v11.53h-5.81V23.47Zm14.32,16.39c4.16,0,6.8-2.17,6.8-5.53v-.09c0-3.54-2.55-5.48-6.85-5.48h-8.46v11.1h8.5Z"/><path class="cls-3" d="m139.03,23.47h5.81v33.07h-5.81V23.47Z"/><path class="cls-3" d="m153.68,23.47h5.39c5.91,7.62,11.81,15.24,17.72,22.87v-22.87h5.72v33.07h-4.87c-6.08-7.84-12.16-15.68-18.24-23.53v23.53h-5.72V23.47Z"/><path class="cls-3" d="m189.53,40.09v-.09c0-9.42,7.72-17.02,17.06-17.1,4.63-.04,9.18,1.38,12.71,4.49-1.47,1.76-2.21,2.64-3.69,4.39-2.55-2.17-5.14-3.46-9.26-3.54-6.19-.13-10.52,6.01-10.72,11.67v.09c-.3,6.39,4.87,11.84,11.24,11.81,3.1-.01,5.95-.99,7.98-2.5v-6.19h-8.46v-5.05h14.08v13.89c-3.83,3.28-8.75,5.13-13.8,5.15-9.62.03-17.2-7.32-17.15-17.01Z"/><path class="cls-3" d="m225.82,51.72c1.4-1.66,2.1-2.49,3.5-4.16,2.52,2.48,6.94,4.38,10.44,4.3,3.51-.08,5.86-1.65,5.86-4.16v-.09c0-2.36-1.35-3.69-7.47-5.05-5.33-1.19-11.05-3.54-11.01-9.87v-.09c.23-5.84,5.75-9.72,11.29-9.59,4.23.1,8.61,1.4,12,4.16-1.25,1.76-1.87,2.64-3.12,4.39-2.98-2.22-5.95-3.4-8.98-3.4-3.4,0-5.39,1.75-5.39,3.92v.09c0,2.55,1.6,3.83,7.84,5.2,4.9,1.08,10.79,3.74,10.63,9.68v.09c.08,6.35-6.1,10-11.81,9.87-4.96-.11-10.01-1.89-13.8-5.29Z"/><path class="cls-5" d="m54.57,22.9c6.16,0,11.22,2.87,14.25,7.2,1.97,2.81,3.09,6.24,3.09,9.91v.09c0,6.42,4.58,11.67,11.15,11.67l.09,5.34c-6.16,0-11.22-2.87-14.25-7.2-1.97-2.81-3.09-6.24-3.09-9.91v-.09c0-6.43-4.58-11.67-11.15-11.67l-.09-5.34Z"/><path class="cls-6" d="m83.15,22.9c-6.16,0-11.22,2.87-14.25,7.2-1.97,2.81-3.09,6.24-3.09,9.91v.09c0,6.42-4.58,11.67-11.15,11.67l-.09,5.34c6.16,0,11.22-2.87,14.25-7.2,1.97-2.81,3.09-6.24,3.09-9.91v-.09c0-6.43,4.58-11.67,11.15-11.67l.09-5.34Z"/><path class="cls-4" d="m0,0h4.55c2.11,0,3.6,1.27,3.6,3.36,0,1.38-.66,2.39-1.69,2.9v.04c1.37.38,2.24,1.69,2.24,3.3,0,2.37-1.76,3.74-4,3.74H0V0Zm4.55,5.78c1.35,0,2.26-.95,2.26-2.33s-.85-2.28-2.28-2.28H1.31v4.61h3.24Zm.17,6.37c1.61,0,2.62-1.01,2.62-2.6s-1.08-2.64-2.64-2.64H1.31v5.23h3.41Z"/><path class="cls-4" d="m15.67,0h7.51v1.18h-6.2v4.86h5.06v1.18h-5.06v4.95h6.54v1.18h-7.85V0Z"/><path class="cls-4" d="m33.09,6.37c-1.55-2.55-2.32-3.82-3.87-6.37h1.54c.93,1.58,1.4,2.37,2.33,3.95.4.68.87,1.54.87,1.54h.04s.38-.85.8-1.54c.94-1.58,1.41-2.37,2.35-3.95h1.56c-1.56,2.55-2.34,3.82-3.91,6.37,1.71,2.78,2.56,4.18,4.27,6.96h-1.52c-1.11-1.84-1.66-2.77-2.77-4.61-.42-.68-.83-1.48-.83-1.48h-.04s-.4.8-.82,1.5c-1.09,1.84-1.64,2.75-2.73,4.59h-1.52c1.7-2.78,2.55-4.18,4.25-6.96Z"/><path class="cls-4" d="m45.31,0h1.31v12.16h6.18v1.18h-7.49V0Z"/><path class="cls-4" d="m58.92,0h7.51v1.18h-6.2v4.86h5.06v1.18h-5.06v4.95h6.54v1.18h-7.85V0Z"/><path class="cls-4" d="m76.39,7.61c-1.8-3.04-2.7-4.56-4.49-7.61h1.5c1.13,1.93,1.7,2.9,2.83,4.84.4.68.82,1.59.82,1.59h.04s.4-.89.82-1.59c1.13-1.93,1.7-2.9,2.83-4.84h1.48c-1.79,3.04-2.69,4.56-4.48,7.61v5.73h-1.33v-5.73Z"/><path class="cls-3" d="m149.72,66.89h4.46c2.31,0,3.98,1.5,3.98,3.89s-1.67,3.94-3.98,3.94h-3.19v5.06h-1.27v-12.89Zm4.29,6.69c1.72,0,2.84-1.05,2.84-2.81s-1.12-2.75-2.82-2.75h-3.04v5.56h3.03Z"/><path class="cls-3" d="m164.35,66.89h3.81c1.32,0,1.91.13,2.42.35,1.21.53,1.94,1.76,1.94,3.32,0,1.74-.99,3.08-2.44,3.48v.04s.13.17.33.51c1.12,2.08,1.68,3.11,2.81,5.19h-1.45c-1.17-2.17-1.75-3.26-2.92-5.43h-3.25v5.43h-1.27v-12.89Zm4.33,6.33c1.56,0,2.55-1.01,2.55-2.62,0-1.06-.42-1.85-1.17-2.26-.39-.2-.84-.31-1.83-.31h-2.6v5.19h3.06Z"/><path class="cls-3" d="m185.22,66.67c3.61,0,6.56,2.97,6.57,6.58,0,3.64-2.91,6.75-6.57,6.75s-6.57-3.11-6.57-6.75c0-3.62,2.95-6.58,6.57-6.58Zm0,12.16c2.9,0,5.25-2.42,5.25-5.58s-2.35-5.41-5.25-5.41-5.25,2.33-5.25,5.41,2.33,5.58,5.25,5.58Z"/><path class="cls-3" d="m197.09,75.65h1.27v.48c0,1.98,1.19,2.7,2.37,2.7s2.35-.66,2.35-2.66v-8.14h-3.15v-1.14h4.42v9.28c0,2.79-1.85,3.83-3.63,3.83s-3.61-1.06-3.61-3.83v-.51Z"/><path class="cls-3" d="m211.6,66.89h7.26v1.14h-6v4.7h4.9v1.14h-4.9v4.79h6.33v1.14h-7.59v-12.89Z"/><path class="cls-3" d="m231.24,66.67c3.08,0,4.64,1.67,4.64,1.67-.27.37-.41.56-.68.94,0,0-1.5-1.43-3.92-1.43-3.03,0-5.19,2.35-5.19,5.39s2.16,5.59,5.23,5.59c2.6,0,4.18-1.72,4.18-1.72.29.36.44.54.73.9,0,0-1.76,2-4.93,2-3.74,0-6.53-3.07-6.53-6.75,0-3.63,2.82-6.58,6.47-6.58Z"/><path class="cls-3" d="m245.54,68.02h-4.64v-1.14h10.53v1.14h-4.62v11.76h-1.27v-11.76Z"/></g></g></g></svg>