<?xml version="1.0" encoding="UTF-8"?><svg id="Layer_2" xmlns="http://www.w3.org/2000/svg" viewBox="0 0 100 100"><defs><style>.cls-1{fill:#fff;stroke-width:0px;}</style></defs><g id="Layer_1-2"><path class="cls-1" d="m50,0C22.43,0,0,22.43,0,50s22.43,50,50,50,50-22.43,50-50S77.57,0,50,0Zm0,95.13c-24.88,0-45.13-20.24-45.13-45.13S25.12,4.87,50,4.87s45.13,20.24,45.13,45.13-20.24,45.13-45.13,45.13Zm18.94-51.54c0,.61.24,1.15.39,1.71,1.63,6.4,3.28,12.79,4.92,19.19.16.62.31,1.24.5,1.86.14.44-.02.55-.44.55-1.66-.01-3.33,0-4.99,0-.7,0-.7,0-.7.68,0,4.35,0,8.71,0,13.06,0,.84-.11,1.65-.56,2.4-.76,1.27-1.92,1.92-3.35,1.95-2.37.06-4.75,0-7.13.02-.41,0-.53-.15-.53-.55,0-7.49,0-14.98,0-22.48,0-.43.06-.86.07-1.3.01-.3.16-.53.34-.74,1.75-2.11,3.5-4.21,5.26-6.31.5-.6,1.02-1.2.93-2.07-.1-.85-.53-1.46-1.37-1.71-.91-.27-1.69-.03-2.29.69-1.36,1.62-2.71,3.25-4.05,4.88-1.21,1.48-1.2,1.49-3.11,1.49-2.19,0-4.37,0-6.56,0-.41,0-.68-.14-.93-.45-1.64-1.99-3.3-3.97-4.96-5.96-.71-.85-1.95-1.03-2.8-.4-.93.67-1.16,1.83-.48,2.8.94,1.35,2.11,2.53,3.14,3.81.76.94,1.56,1.86,2.34,2.79.23.27.36.57.36.94,0,8.03,0,16.06,0,24.09,0,.38-.13.47-.48.47-2.12-.01-4.23.01-6.35-.01-2.25-.03-3.9-1.85-3.94-4.32-.03-1.92,0-3.85,0-5.78,0-10.75,0-21.51,0-32.26,0-.19,0-.38,0-.63-.27.12-.32.34-.4.5-1.75,3.45-3.44,6.92-5.1,10.42-.5,1.06-1.41,1.55-2.44,1.29-1.35-.34-1.97-1.65-1.36-2.98.45-.99.97-1.96,1.45-2.94,2.28-4.66,4.58-9.3,6.82-13.97.71-1.49,1.8-2.22,3.43-2.22,3.94,0,7.87-.01,11.81,0,1.41,0,2.46.64,3.04,1.97.16.37.32.73.5,1.09.08.16.11.44.31.45.24,0,.25-.29.35-.46.19-.35.37-.71.53-1.07.59-1.35,1.66-1.97,3.08-1.97,4.01-.01,8.01-.01,12.02,0,1.38,0,2.39.65,2.97,1.9,1.45,3.11,2.88,6.23,4.32,9.35,1.18,2.55,2.35,5.1,3.55,7.64.41.87.48,1.69-.12,2.5-.73.98-2.75,1.12-3.45-.36-.52-1.11-1.04-2.23-1.55-3.35-.9-1.95-1.8-3.9-2.7-5.85-.05-.12-.06-.28-.28-.32Zm-25.5,5.17c-.03,3.42,2.89,6.31,6.34,6.42,3.91.13,6.74-2.98,6.78-6.34.04-3.95-2.95-6.64-6.49-6.71-3.67-.07-6.6,2.9-6.63,6.63Zm4.39-25.83c-.02,4.46-3.51,7.87-8.04,7.85-4.25-.02-7.81-3.67-7.74-8.03.08-4.33,3.72-7.87,8.15-7.74,4.53.14,7.66,3.93,7.63,7.92Zm4.1-.04c0-4.34,3.54-7.89,7.86-7.89,4.25,0,7.92,3.61,7.86,7.93-.06,4.33-3.26,7.86-8,7.82-4.65-.04-7.69-3.68-7.72-7.86Zm-2.7,56.41c0-1.7.01-3.4,0-5.1,0-.49.12-.67.65-.63.94.08.94.04.94.97,0,3.22,0,6.45,0,9.67q0,.77-.79.77c-.14,0-.28,0-.42,0-.32.02-.41-.11-.4-.43.02-1.75,0-3.5,0-5.25h0Z"/></g></svg>