<?xml version="1.0" encoding="UTF-8"?><svg id="Layer_2" xmlns="http://www.w3.org/2000/svg" viewBox="0 0 132.9 170"><defs><style>.cls-1{fill:#fff;stroke-width:0px;}</style></defs><g id="Layer_1-2"><g id="L0beoi"><path class="cls-1" d="m112.44,69.43c0,1.49.59,2.8.94,4.16,3.97,15.54,7.97,31.06,11.96,46.59.39,1.51.76,3.02,1.22,4.51.33,1.06-.05,1.34-1.06,1.33-4.04-.03-8.09-.02-12.13-.02-1.7,0-1.71,0-1.71,1.64,0,10.57,0,21.14-.01,31.72,0,2.04-.27,4.01-1.36,5.82-1.86,3.09-4.65,4.66-8.14,4.74-5.77.14-11.54.02-17.31.06-1,0-1.29-.36-1.29-1.34.02-18.2,0-36.39.01-54.59,0-1.05.13-2.1.17-3.15.03-.73.39-1.28.82-1.8,4.25-5.11,8.51-10.23,12.77-15.34,1.22-1.47,2.49-2.92,2.25-5.02-.24-2.07-1.29-3.54-3.34-4.15-2.2-.66-4.09-.06-5.56,1.68-3.3,3.93-6.58,7.89-9.84,11.86-2.94,3.59-2.91,3.61-7.55,3.61-5.31,0-10.61-.02-15.92.02-.99,0-1.65-.34-2.26-1.08-3.99-4.84-8.02-9.65-12.04-14.47-1.72-2.07-4.72-2.49-6.81-.98-2.26,1.64-2.82,4.44-1.18,6.8,2.29,3.29,5.12,6.14,7.63,9.25,1.85,2.29,3.78,4.52,5.69,6.77.57.67.88,1.37.88,2.28-.01,19.5-.01,39,.01,58.5,0,.92-.32,1.15-1.17,1.14-5.14-.03-10.28.03-15.42-.04-5.45-.07-9.47-4.48-9.56-10.49-.07-4.67-.02-9.35-.02-14.03,0-26.11,0-52.23.01-78.34,0-.46,0-.92,0-1.53-.66.3-.77.82-.97,1.22-4.25,8.37-8.36,16.81-12.39,25.3-1.22,2.58-3.42,3.77-5.92,3.14-3.29-.82-4.78-4-3.31-7.25,1.1-2.41,2.35-4.76,3.51-7.14,5.54-11.31,11.13-22.58,16.57-33.94,1.74-3.62,4.38-5.39,8.33-5.38,9.56,0,19.12-.03,28.68.02,3.41.02,5.97,1.56,7.38,4.77.39.89.78,1.77,1.21,2.64.2.4.26,1.07.74,1.08.57.01.61-.71.84-1.13.46-.85.89-1.72,1.28-2.61,1.42-3.29,4.02-4.78,7.49-4.79,9.73-.03,19.46-.03,29.19,0,3.35,0,5.8,1.58,7.22,4.63,3.52,7.56,6.99,15.14,10.49,22.7,2.86,6.19,5.71,12.39,8.62,18.55,1,2.12,1.17,4.11-.29,6.06-1.78,2.39-6.68,2.73-8.38-.88-1.27-2.7-2.52-5.42-3.77-8.13-2.19-4.74-4.37-9.48-6.56-14.22-.13-.28-.16-.67-.69-.77Zm-61.93,12.56c-.07,8.31,7.03,15.32,15.4,15.59,9.5.3,16.38-7.24,16.46-15.39.1-9.59-7.17-16.13-15.76-16.3-8.91-.18-16.03,7.05-16.1,16.1Z"/><path class="cls-1" d="m61.16,19.27c-.06,10.84-8.53,19.12-19.52,19.06-10.31-.06-18.98-8.92-18.79-19.5C23.04,8.32,31.89-.29,42.64.03c11,.33,18.6,9.54,18.52,19.23Z"/><path class="cls-1" d="m71.12,19.16C71.12,8.62,79.71,0,90.2,0c10.33,0,19.24,8.78,19.09,19.25-.15,10.53-7.92,19.09-19.43,19-11.29-.09-18.69-8.94-18.74-19.09Z"/><path class="cls-1" d="m64.55,156.16c0-4.13.03-8.25-.02-12.38-.01-1.19.29-1.64,1.59-1.53,2.28.18,2.28.1,2.28,2.35,0,7.83,0,15.66,0,23.49q0,1.86-1.91,1.87c-.34,0-.67-.02-1.01,0-.77.05-.99-.28-.98-1.05.04-4.25.02-8.5.02-12.76h.02Z"/></g></g></svg>