<?xml version="1.0" encoding="UTF-8"?><svg id="Layer_2" xmlns="http://www.w3.org/2000/svg" viewBox="0 0 100 100"><defs><style>.cls-1{fill:#fff;stroke-width:0px;}</style></defs><g id="Layer_1-2"><path class="cls-1" d="m50,0C22.43,0,0,22.43,0,50s22.43,50,50,50,50-22.43,50-50S77.57,0,50,0Zm0,95.13c-24.88,0-45.13-20.24-45.13-45.13S25.12,4.87,50,4.87s45.13,20.24,45.13,45.13-20.24,45.13-45.13,45.13Z"/><path id="zXqDRL" class="cls-1" d="m69.83,34.22c0,.65,0,1.11,0,1.57,0,11.55,0,23.11,0,34.66,0,5.65-3.62,9.25-9.27,9.25-11.13,0-22.26.02-33.39,0-5.75-.01-10.39-4.38-10.75-10.03-.1-1.55.24-1.93,1.77-1.93,2.2,0,4.4,0,6.72,0,.02-.43.05-.81.05-1.19,0-12.37.1-24.75-.05-37.12-.06-5.29,4.01-9.2,9.16-9.14,13.62.14,27.24.05,40.86.05,5.31,0,8.66,3.35,8.68,8.65,0,1.21.02,2.42,0,3.63-.02,1.2-.41,1.59-1.62,1.59-3.63,0-7.25,0-10.88,0-.38,0-.76,0-1.26,0Zm-42.49,33.52c.46,0,.81,0,1.16,0,8.07,0,16.15,0,24.22,0,.25,0,.5,0,.75,0,.96-.01,1.46.44,1.45,1.42,0,.68-.02,1.35,0,2.03.19,4.33,4.12,7.06,8.26,5.75,2.74-.87,4.25-3.14,4.25-6.43,0-13.9.01-27.81,0-41.71,0-1.84.42-3.51,1.47-5.02.21-.31.43-.61.75-1.04-.49,0-.8,0-1.11,0-11.49,0-22.98,0-34.47,0-4.32,0-6.73,2.43-6.73,6.74,0,12.3,0,24.61,0,36.91,0,.39,0,.78,0,1.36Zm27.84,9.58c-1.99-2.12-2.78-4.48-2.7-7.11H18.94c0,.18-.02.28,0,.38.73,3.9,4.17,6.72,8.32,6.73,8.99.02,17.98,0,26.97,0h.95Zm25.99-45.55c0-1.22.02-2.38,0-3.53-.06-2.36-1.55-4.38-3.77-5.17-2.28-.8-4.7-.12-6.26,1.72-1.78,2.1-1.28,4.56-1.27,6.98h11.3Zm-43.32,5.21c0-1.46-.01-2.91,0-4.37.01-1.13.4-1.53,1.53-1.57,2.73-.1,5.24-.89,7.48-2.45.65-.45,1.24-.48,1.86-.05,2.35,1.6,4.93,2.48,7.79,2.51.81,0,1.29.49,1.29,1.26,0,3.3.1,6.61-.14,9.9-.21,2.89-1.93,4.99-4.5,6.3-1.48.76-3,1.47-4.54,2.1-.46.19-1.13.18-1.59,0-1.51-.62-2.98-1.33-4.44-2.06-3.04-1.53-4.58-4.04-4.73-7.41-.06-1.38,0-2.77-.01-4.16Zm2.52-3.58c0,3-.15,5.91.05,8.8.13,1.86,1.37,3.26,3.05,4.11,1.42.72,2.88,1.79,4.36,1.86,1.29.06,2.65-1.03,3.96-1.65,2.33-1.11,3.57-2.96,3.59-5.57.01-1.95,0-3.91,0-5.86,0-.55,0-1.11,0-1.68-2.64-.27-4.95-1-7.09-2.27-.24-.14-.7-.15-.93-.01-2.14,1.29-4.46,2.01-7,2.28Zm10.66,24.11c2.98,0,5.97,0,8.95,0,.79,0,1.35-.33,1.37-1.15.02-.87-.54-1.25-1.38-1.24-.18,0-.36,0-.53,0-5.36,0-10.73,0-16.09,0-2.56,0-5.11,0-7.67,0-.79,0-1.36.34-1.38,1.15-.02.86.54,1.26,1.39,1.24.25,0,.5,0,.75,0,3.76,0,7.53,0,11.29,0,1.1,0,2.2,0,3.3,0Zm8.21,5.16c.35,0,.79.11,1.05-.05.42-.27,1-.72,1-1.1,0-.4-.54-.87-.94-1.19-.2-.16-.62-.05-.94-.05-7.74,0-15.48,0-23.22,0-.28,0-.65-.1-.83.03-.41.31-.95.7-1.04,1.14-.12.63.32,1.14,1.06,1.2.32.03.64.02.96.02,3.83,0,7.67,0,11.5,0,3.8,0,7.6,0,11.4,0Zm-14.8-23.89c-.3-.79-.85-1.19-1.66-.85-.75.31-.87.95-.58,1.69.44,1.16.85,2.33,1.29,3.49.57,1.5,1.36,1.69,2.52.58,1.95-1.87,3.89-3.74,5.83-5.62.51-.49,1.14-.93,1.47-1.52.21-.38.18-1.2-.09-1.48-.27-.28-1-.25-1.49-.15-.33.07-.58.49-.87.76-1.81,1.74-3.62,3.49-5.56,5.36-.33-.88-.59-1.57-.85-2.27Z"/></g></svg>