<?xml version="1.0" encoding="UTF-8"?><svg id="Layer_2" xmlns="http://www.w3.org/2000/svg" viewBox="0 0 100 100"><defs><style>.cls-1{fill:#fff;stroke-width:0px;}</style></defs><g id="Layer_1-2"><path class="cls-1" d="m50,0C22.43,0,0,22.43,0,50s22.43,50,50,50,50-22.43,50-50S77.57,0,50,0Zm0,95.13c-24.88,0-45.13-20.24-45.13-45.13S25.12,4.87,50,4.87s45.13,20.24,45.13,45.13-20.24,45.13-45.13,45.13Zm23.23-35.28c-1.25-4.46-2.46-8.76-3.72-13.25-1.97-.55-4.33-1.21-7.28-2.04,3.57-2.77,3.28-6.03,3.13-9.35-.09-1.9.12-3.86.49-5.74.51-2.53,2.01-4.22,4.8-4.44.4-.03.81-.22,1.18-.42,4.35-2.29,9.3-.45,10.68,4.28.67,2.29.67,4.79.84,7.21.2,2.94.16,5.92,3.4,8.4-2.83.85-5.16,1.55-7.41,2.23-1.14,4.3-2.31,8.75-3.49,13.2.08.07.17.14.25.21.72-.8,1.44-1.6,2.16-2.4q2.19-2.47,5.37-2.34c-.82-1.95-1.59-3.8-2.59-6.19,2.87,1.03,5.29,1.77,7.61,2.76,2.22.95,2.21,3.01,2.34,5.09.12,1.94-.79,2.92-2.31,3.65-4.94,2.37-10.19,3.24-15.63,2.98-.53-.03-1.29-.77-1.49-1.34-.83-2.27-2.33-3.58-4.65-4.32-2.84-.91-5.56-2.17-8.59-3.38,2.01-4.13,6.15-3.59,9.44-5.01-.71,1.89-1.41,3.77-2.23,5.97,4.38-1.8,4.97,2.84,7.7,4.23Zm-36.06-15.84c-2.3-1.7-2.73-4.09-2.63-6.71.07-1.71.18-3.44.07-5.15-.32-4.71-1.23-5.77-5.75-7.15-.2-.06-.38-.2-.57-.29-4.92-2.46-9.69-.47-10.98,4.86-.62,2.54-.57,5.24-.74,7.87-.16,2.55-.6,4.95-3.31,7.08,2.91.85,5.31,1.56,7.41,2.17,1.17,4.47,2.32,8.86,3.48,13.33-2.75-1.45-3.3-5.99-7.82-4.43.86-2.2,1.61-4.1,2.5-6.34-2.65.92-4.82,1.61-6.96,2.42-1.95.74-2.76,2.22-2.86,4.34-.1,2.19.25,3.84,2.51,4.84,4.88,2.15,9.96,3.07,15.24,2.84.59-.03,1.44-.78,1.67-1.39.87-2.26,2.37-3.55,4.68-4.29,2.87-.92,5.63-2.22,8.66-3.45-2.36-3.97-6.29-3.61-9.56-4.79.71,1.85,1.43,3.69,2.33,6.02-2.91-1.55-4.18.3-5.55,1.97-.6.73-1.27,1.4-1.91,2.1-.09-.08-.18-.15-.27-.23,1.22-4.36,2.44-8.72,3.64-13.02,2.17-.62,4.45-1.27,6.74-1.93-.01-.23-.02-.46-.03-.69Zm1.62,14.37c-1.37.61-2.79,1.11-4.21,1.58-2.95.96-4.19,2.49-4.34,5.62-.06,1.28.03,2.58.01,3.86-.03,1.53.56,2.65,2.07,3.1,4.03,1.17,8.01,2.76,12.12,3.36,8,1.17,15.85.17,23.21-3.39.83-.4,1.79-1.38,1.93-2.21.3-1.81.43-3.78.01-5.54-.34-1.47-1.24-3.34-2.45-3.98-3.22-1.72-6.75-2.87-10.23-4.27-1.31,4.1-2.65,8.28-4.11,12.82-.98-2.48-2.19-4.42-.56-6.78.42-.6.07-2.61-.35-2.75-1.16-.4-2.64-.45-3.77-.03-.45.17-.77,2.26-.33,2.92,1.58,2.37.36,4.2-.67,6.51-1.43-4.47-2.76-8.62-4.16-13-1.54.81-2.83,1.57-4.19,2.18Zm1.27-19.72c.06.7.32,1.84.01,2.04-1.99,1.31-1.01,3.02-.57,4.42.51,1.63,1.75,3.01,2.33,4.63,1.46,4.01,4.33,6.28,8.27,6.26,3.71-.02,6.62-2.37,7.99-6.34.23-.68.97-1.19,1.16-1.86.6-2.06,1.66-4.27,1.32-6.2-.2-1.17-.66-2.33-.49-3.61.08-.64.04-1.28.1-1.92.36-3.83-3.57-4.35-5.24-6.63-.65-.89-2.37-1.29-3.63-1.38-2.7-.19-5.42-.02-8.13.01-.11,0-.21.13-.43.28.2.49.41,1,.67,1.63-3.06,2.25-3.65,5.29-3.37,8.68Z"/></g></svg>