<?xml version="1.0" encoding="UTF-8"?><svg id="Layer_2" xmlns="http://www.w3.org/2000/svg" viewBox="0 0 100 100"><defs><style>.cls-1{fill:#fff;stroke-width:0px;}</style></defs><g id="Layer_1-2"><path class="cls-1" d="m29.6,36.17c0-2.58.83-5.2,2.49-7.86,1.66-2.65,4.08-4.85,7.26-6.59,3.19-1.74,6.9-2.61,11.14-2.61,3.94,0,7.43.73,10.44,2.18,3.02,1.46,5.35,3.43,7,5.94,1.64,2.5,2.47,5.22,2.47,8.16,0,2.31-.47,4.34-1.41,6.08-.94,1.74-2.06,3.24-3.35,4.51-1.29,1.26-3.61,3.39-6.96,6.38-.93.84-1.67,1.59-2.23,2.22-.56.64-.97,1.22-1.24,1.76-.27.53-.48,1.06-.63,1.59-.15.53-.37,1.46-.67,2.79-.52,2.83-2.13,4.24-4.85,4.24-1.42,0-2.61-.46-3.57-1.38-.97-.93-1.45-2.3-1.45-4.12,0-2.28.35-4.26,1.06-5.94.71-1.67,1.64-3.14,2.82-4.41,1.17-1.26,2.74-2.77,4.73-4.51,1.74-1.52,3-2.67,3.77-3.45.77-.78,1.43-1.64,1.96-2.59.53-.95.8-1.98.8-3.1,0-2.18-.81-4.01-2.43-5.51-1.62-1.5-3.71-2.25-6.26-2.25-2.99,0-5.2.75-6.61,2.27-1.41,1.51-2.61,3.73-3.59,6.67-.92,3.07-2.68,4.61-5.26,4.61-1.52,0-2.81-.54-3.86-1.61-1.05-1.07-1.57-2.24-1.57-3.49Zm19.91,44.71c-1.66,0-3.11-.54-4.34-1.61-1.24-1.07-1.86-2.58-1.86-4.51,0-1.71.6-3.15,1.8-4.32,1.2-1.17,2.67-1.76,4.41-1.76s3.16.58,4.32,1.76c1.17,1.17,1.76,2.61,1.76,4.32,0,1.91-.61,3.4-1.84,4.49-1.22,1.09-2.64,1.63-4.24,1.63Zm.49,19.11C22.43,100,0,77.57,0,50S22.43,0,50,0s50,22.43,50,50-22.43,50-50,50Zm0-95.13C25.12,4.87,4.87,25.12,4.87,50s20.24,45.13,45.13,45.13,45.13-20.24,45.13-45.13S74.88,4.87,50,4.87Z"/></g></svg>