<?xml version="1.0" encoding="UTF-8"?><svg id="Layer_2" xmlns="http://www.w3.org/2000/svg" viewBox="0 0 100 100"><defs><style>.cls-1{fill:#fff;stroke-width:0px;}</style></defs><g id="Layer_1-2"><path class="cls-1" d="m50,0C22.43,0,0,22.43,0,50s22.43,50,50,50,50-22.43,50-50S77.57,0,50,0Zm0,95.13c-24.88,0-45.13-20.24-45.13-45.13S25.12,4.87,50,4.87s45.13,20.24,45.13,45.13-20.24,45.13-45.13,45.13Zm-9.53-47.45c1.56-.55,3.09-1.09,4.62-1.63,1.46-.52,2.93-1.03,4.39-1.56.36-.13.68-.13,1.04,0,3.17,1.13,6.35,2.25,9.53,3.37.13.04.26.08.45.14,0-.19,0-.32,0-.46,0-2.57.02-5.15.02-7.72,0-.29-.02-.58-.02-.87,0-1.15.84-2.07,2-2.14.9-.05,1.81-.02,2.71-.03,2.83,0,5.66,0,8.49,0,.8,0,1.52.22,1.97.9.23.35.4.81.41,1.22.04,2.39-.03,4.78.03,7.17.04,1.6-1.15,2.43-2.43,2.43-2.69,0-5.38.03-8.07-.02-.68-.01-1.08.25-1.42.83.46.17.9.33,1.36.49,2.72.96,5.45,1.91,8.16,2.89.21.08.35.37.51.58.09.12.12.27.2.39,2.37,3.25,4.75,6.5,7.12,9.75.05.07.1.15.17.27-.95.33-1.88.65-2.8.97-1.45.5-2.89,1.01-4.34,1.5-.26.09-.36.21-.35.49.01,3.34,0,6.68.01,10.02,0,.48-.18.73-.63.9-3.8,1.43-7.58,2.88-11.37,4.33-3.93,1.5-7.86,3-11.8,4.48-.26.1-.63.08-.89-.02-5.51-2.08-11.01-4.18-16.51-6.28-2.24-.85-4.48-1.71-6.73-2.55-.33-.13-.5-.35-.5-.71,0-2.15.02-4.29.02-6.44,0-1.27-.02-2.55-.01-3.82,0-.29-.18-.34-.38-.4-2.29-.79-4.58-1.59-6.86-2.38-.07-.03-.15-.06-.26-.1.62-.86,1.23-1.69,1.83-2.52,1.94-2.65,3.87-5.3,5.83-7.93.24-.32.62-.6,1-.74,1.7-.64,3.42-1.23,5.14-1.84.06-.02.12-.06.23-.1-.97-1.55-1.12-3.16-.24-4.78.56-1.05,1.45-1.73,2.58-2.1,2.11-.68,5.41.43,5.82,4.02Zm21.29,2.3c.09-.07.19-.13.26-.21.63-.68,1.27-1.35,1.88-2.05.27-.31.56-.46.99-.46,1.89.02,3.78,0,5.67,0,1.02,0,2.04,0,3.06,0,.91,0,1.25-.32,1.25-1.23.01-2.26,0-4.52,0-6.78,0-.9-.35-1.25-1.27-1.25-3.56,0-7.12,0-10.68,0-.28,0-.6.06-.82.21-.2.14-.38.43-.4.66-.05.75,0,1.5,0,2.26,0,2.54,0,5.08,0,7.62,0,.4.03.81.05,1.21,0,.01,0,.02-.01.03,0,0,.01-.02.02-.03Zm-12.4,13.36c-.13.17-.2.25-.27.34-1.99,2.72-3.99,5.44-5.97,8.17-.2.27-.36.33-.68.21-2.25-.8-4.51-1.57-6.76-2.35-2.12-.74-4.24-1.49-6.36-2.23-.74-.26-1.48-.5-2.27-.76-.01.17-.02.3-.02.42,0,.93,0,1.87,0,2.8,0,2.01.01,4.01,0,6.02,0,.38.09.57.47.7,1.27.45,2.52.94,3.77,1.42,5.58,2.13,11.15,4.26,16.73,6.39.45.17.9.33,1.38.51v-21.65Zm1.27,21.63c.15-.05.26-.07.35-.11,2.14-.82,4.29-1.64,6.43-2.45,5.05-1.92,10.09-3.85,15.14-5.76.31-.12.43-.26.42-.59-.01-2.97,0-5.94,0-8.91,0-.12-.01-.25-.02-.4-.15.04-.26.07-.37.1-5.04,1.75-10.07,3.49-15.11,5.24-.25.09-.39.06-.55-.16-1.63-2.24-3.26-4.48-4.9-6.71-.45-.61-.9-1.23-1.39-1.9v21.66Zm-1.64-23.26c-.28-.1-.49-.19-.71-.26-7.01-2.43-14.02-4.85-21.02-7.29-.32-.11-.49-.04-.68.22-1.59,2.2-3.2,4.38-4.8,6.57-.5.69-1.01,1.38-1.54,2.1.19.07.33.13.47.18,3.4,1.18,6.81,2.35,10.21,3.53,3.7,1.28,7.4,2.56,11.1,3.85.27.1.42.07.6-.18,1.49-2.07,3.01-4.12,4.51-6.18.61-.83,1.21-1.66,1.86-2.54Zm30.71,1.37c-.03-.08-.04-.12-.06-.14-2.13-2.91-4.25-5.82-6.39-8.72-.06-.08-.29-.12-.4-.08-1.04.35-2.08.72-3.12,1.08-6.11,2.11-12.22,4.23-18.33,6.34-.12.04-.24.1-.38.16.08.12.12.2.18.27,1.94,2.66,3.88,5.32,5.83,7.97.57.77.57.77,1.47.46,5.77-1.99,11.54-3.99,17.31-5.98,1.29-.45,2.58-.9,3.9-1.35Zm-8.17-9.81c-.07-.05-.09-.08-.12-.09-2.64-.94-5.29-1.87-7.93-2.79-.13-.04-.36.03-.47.13-.48.49-.91,1.02-1.41,1.49-.17.16-.53.26-.73.19-.18-.06-.34-.39-.36-.62-.05-.65,0-1.3-.03-1.95,0-.15-.16-.36-.29-.41-3.3-1.18-6.61-2.35-9.93-3.51-.16-.06-.37-.06-.53,0-3.06,1.07-6.12,2.15-9.18,3.24-.14.05-.29.2-.34.34-1.03,2.85-4.12,3.95-6.7,2.38-.13-.08-.35-.1-.5-.05-.89.29-1.77.61-2.66.92-.62.22-1.25.45-1.97.71.55.19.98.35,1.42.5,6.63,2.3,13.27,4.59,19.91,6.88.18.06.41.05.59,0,6.42-2.21,12.83-4.43,19.25-6.65.65-.23,1.3-.46,1.98-.7Zm-35.6-2.11c1.77.01,3.25-1.44,3.26-3.21,0-1.8-1.44-3.26-3.24-3.27-1.76,0-3.22,1.44-3.23,3.2-.01,1.81,1.41,3.27,3.21,3.28Zm3.14-20.29c-.57-.6-1.2-1.09-1.61-1.72-1.23-1.87-.44-4.52,1.58-5.48.26-.12.28-.21.14-.45-1.35-2.46.14-5.47,2.91-5.89.33-.05.48-.14.55-.5.35-1.67,1.38-2.75,3.03-3.13,1.67-.38,3.06.17,4.13,1.51.05.06.1.13.12.16.46-.4.88-.88,1.39-1.19,2.43-1.48,5.51-.08,6.03,2.71.05.28.15.38.42.43,2.97.48,4.38,3.39,2.94,6.06-.02.04-.03.08-.05.15,1.49.72,2.38,1.87,2.42,3.56.04,1.68-.81,2.85-2.26,3.66.44.72.69,1.47.66,2.31-.06,1.78-1.5,3.33-3.28,3.49-.25.02-.33.09-.33.35,0,2.02-1.1,3.6-2.88,4.19-1.82.6-3.64,0-4.86-1.62-.04-.05-.08-.11-.06-.08-.59.48-1.11,1.06-1.75,1.41-2.8,1.52-6.17-.49-6.21-3.68,0-.4-.07-.53-.5-.59-2.53-.37-3.9-3.19-2.65-5.43.06-.11.12-.22.11-.21Zm10.29-3.58c0-3.27,0-6.54,0-9.81,0-1.51-1.31-2.69-2.89-2.67-1.45.02-2.69,1.3-2.68,2.75,0,.89-.08.97-.97.94-1.19-.04-2.24.62-2.68,1.68-.47,1.14-.21,2.28.67,3.16.17.16.29.51.23.72-.05.18-.36.38-.58.42-1.35.23-2.32,1.28-2.36,2.65-.04,1.24.9,2.36,2.18,2.66.24.06.52.24.63.44.16.3-.05.55-.3.77-.86.74-1.13,1.92-.68,2.87.52,1.09,1.55,1.62,2.74,1.41.65-.11.95.24.79.89-.09.38-.17.78-.13,1.16.17,1.63,1.57,2.83,3.14,2.74,1.65-.1,2.89-1.43,2.89-3.11,0-3.22,0-6.45,0-9.67Zm1.24-.01c0,3.23-.01,6.47,0,9.7,0,1.29.61,2.26,1.77,2.8,1.15.54,2.26.36,3.21-.46.96-.83,1.28-1.9.92-3.14-.19-.66.13-1.02.81-.9,1.16.21,2.2-.33,2.71-1.4.46-.96.19-2.14-.66-2.87-.25-.21-.48-.47-.31-.76.12-.21.41-.4.65-.46,1.28-.31,2.21-1.45,2.15-2.68-.07-1.37-1.02-2.41-2.35-2.63-.23-.04-.54-.25-.6-.44-.06-.2.09-.53.25-.71.65-.68,1-1.45.86-2.39-.23-1.56-1.46-2.51-3.08-2.42-.59.04-.8-.18-.78-.77,0-.22,0-.44-.04-.66-.29-1.48-1.58-2.42-3.11-2.26-1.36.14-2.42,1.37-2.42,2.82,0,3.21,0,6.42,0,9.63Zm15.74,1.94c-.1-.07-.22-.14-.31-.22-.27-.26-.33-.58-.09-.87.41-.49.84-.99,1.32-1.42.46-.41.73-.36,1.17.06.06.05.12.09.21.16.02-.11.05-.19.05-.26.06-.71.22-.88.94-.92.48-.03.97-.03,1.46,0,.66.04.83.26.81.9,0,.08,0,.16,0,.27.07-.03.11-.04.15-.07.78-.57.86-.58,1.6.06.31.27.6.58.85.91.41.51.37.77-.12,1.22-.08.07-.16.13-.21.29.17,0,.35.03.52.02.42-.02.69.19.72.59.04.62.06,1.25,0,1.87-.06.57-.25.68-.84.69-.08,0-.15.01-.22.02,0,.04-.01.05,0,.06.61.79.62.88-.06,1.65-.31.35-.68.66-1.06.95-.45.35-.67.31-1.08-.12-.05-.05-.1-.09-.15-.13-.03.03-.06.04-.06.06.05.96-.35,1-1.09,1.06-.45.04-.91.02-1.35-.04-.65-.09-.77-.24-.78-.91,0-.07-.01-.13-.02-.24-.09.05-.16.08-.22.13-.6.48-.7.49-1.31,0-.32-.26-.63-.55-.89-.87-.58-.69-.56-.84.04-1.5-.06-.02-.11-.05-.16-.06-.84-.17-.89-.2-.97-1.07-.04-.46-.01-.93.03-1.38.06-.6.21-.72.83-.73.08,0,.15-.01.23-.02.02-.04.05-.08.07-.12Zm4.52-1.18h0c-.08-.25-.19-.5-.24-.75-.03-.16.08-.38-.22-.35-.21.02-.5-.13-.53.29-.02.29-.14.58-.2.82h1.19Zm-.56,1.2c-.94,0-1.7.76-1.71,1.7,0,.9.77,1.68,1.69,1.68.92,0,1.69-.78,1.69-1.72,0-.88-.78-1.66-1.67-1.67Zm-2.58-1.32s-.11.09-.17.14c-.3.23-.35.44,0,.69.15.11.21.34.27.45.24-.25.51-.54.7-.75-.2-.13-.49-.32-.81-.54Zm4.91,1.25c.17-.21.35-.41.49-.63.06-.1.09-.3.03-.37-.12-.14-.21-.43-.51-.19-.23.19-.5.34-.73.51.22.21.49.46.72.68Zm-1.78,4.65h-1.09c.07.25.17.48.18.72.01.27.12.34.36.33.22,0,.41.01.42-.31,0-.25.09-.5.14-.73Zm-3.46-3.35c-.25.04-.48.12-.71.11-.27,0-.34.1-.33.35,0,.27.07.43.38.45.22.01.44.09.67.13v-1.05Zm5.79.91c.29-.04.55-.09.81-.09.28,0,.28-.17.28-.37,0-.19-.02-.33-.27-.33-.28,0-.55-.06-.82-.09v.88Zm-.32,2.51c.53-.35.53-.37.11-.81-.11-.12-.19-.28-.23-.35-.23.2-.48.43-.67.6.24.17.5.35.79.56Zm-4.9-1.13c-.2.25-.39.5-.59.76.21.31.44.53.8.1.11-.13.33-.15.49-.22-.24-.22-.49-.45-.7-.64Zm-39.32,6.57c-.8,0-1.6,0-2.4,0-.52,0-.74-.22-.75-.74,0-.99,0-1.97-.02-2.96,0-.16-.14-.39-.28-.48-2.94-1.71-4.17-5.47-2.78-8.55.7-1.55,1.77-2.74,3.31-3.45,4.56-2.11,9.55,1.07,9.7,5.88.09,2.68-1.1,4.72-3.37,6.15-.13.08-.25.3-.25.46-.02.95,0,1.9-.01,2.85,0,.63-.21.84-.83.84-.78,0-1.55,0-2.33,0Zm0-1.24c.52,0,1.04-.02,1.57,0,.3.01.38-.1.37-.38-.01-.87,0-1.74,0-2.61,0-.4.15-.64.5-.82,1.85-.95,2.92-2.46,3.13-4.54.23-2.31-1.12-4.6-3.25-5.54-2.19-.97-4.76-.48-6.33,1.23-2.61,2.82-1.82,7.15,1.62,8.86.35.17.5.4.5.79-.01.89,0,1.79,0,2.68,0,.26.09.34.34.34.52-.01,1.04,0,1.57,0Zm-2.45,1.53c-.47,0-.72.22-.72.61,0,.38.26.62.72.62,1.62,0,3.24,0,4.86,0,.44,0,.74-.26.74-.62,0-.37-.28-.61-.73-.61-.81,0-1.62,0-2.43,0-.81,0-1.62,0-2.43,0Zm2.41,2.64c.82,0,1.65,0,2.47,0,.44,0,.7-.23.7-.61,0-.38-.24-.62-.68-.62-1.64,0-3.27,0-4.91,0-.49,0-.71.22-.71.62,0,.38.26.6.73.6.8,0,1.6,0,2.4,0h0Zm.01,1.4c.51,0,1.02,0,1.53,0,.39,0,.6-.21.63-.59.02-.33-.24-.6-.62-.61-1.02-.01-2.04-.01-3.05,0-.38,0-.63.22-.63.6,0,.38.22.6.61.6.51,0,1.02,0,1.53,0,0,0,0,0,0,0Zm33.13,6.32s0,.02-.01.03l.02-.03s0,0,0,0Zm9.12-21.92s0,0,0,0c0,0,0,0,0,0Zm-16.54,51.45c.11-.03.23-.05.33-.09,1.67-.59,3.34-1.17,5.01-1.76.44-.16.61-.46.48-.82-.13-.35-.47-.48-.89-.33-.59.2-1.18.41-1.77.62-1.11.39-2.23.78-3.34,1.18-.33.12-.52.38-.4.7.08.22.31.39.48.58.03-.02.07-.05.1-.07Zm.59-26.18c0,1.39,0,2.78,0,4.17,0,.52-.22.75-.73.75-2.81,0-5.61,0-8.42,0-.49,0-.72-.24-.72-.73,0-2.79,0-5.59,0-8.38,0-.55.21-.76.76-.76,2.79,0,5.58,0,8.37,0,.53,0,.74.21.74.74,0,1.4,0,2.81,0,4.21Zm-1.23-.01c0-1.11,0-2.23,0-3.34,0-.28-.06-.39-.36-.39-2.24.01-4.47.01-6.71,0-.28,0-.35.1-.35.36,0,2.24,0,4.48,0,6.71,0,.28.09.36.36.36,2.23,0,4.45-.01,6.68,0,.32,0,.38-.12.38-.41-.01-1.1,0-2.2,0-3.31Zm18.14-8.98c.48,0,.74-.25.73-.65-.01-.38-.27-.58-.75-.59-.85,0-1.69,0-2.54,0-1.49,0-2.99,0-4.48,0-.49,0-.79.37-.65.79.11.36.41.44.75.44,1.15,0,2.29,0,3.44,0,1.17,0,2.34,0,3.51,0Zm-.05-3.19c.52,0,.76-.19.77-.59,0-.42-.24-.64-.77-.64-2.31,0-4.61,0-6.92,0-.5,0-.76.22-.76.62,0,.4.26.61.75.61,1.16,0,2.32,0,3.48,0,1.15,0,2.29,0,3.44,0Zm-34.28,5.98c-.19,0-.37-.02-.56,0-.31.03-.41-.11-.39-.4.02-.37,0-.74,0-1.11,0-.42-.25-.69-.61-.69-.36,0-.6.28-.6.71,0,.38,0,.76,0,1.15,0,.25-.09.36-.35.35-.38-.01-.76,0-1.15,0-.42,0-.68.23-.69.57-.01.37.25.62.67.63.39,0,.79.02,1.18,0,.26-.01.35.1.34.35-.01.43-.01.86,0,1.29.02.38.27.57.62.56.36-.01.57-.23.58-.61,0-.41.02-.81,0-1.22-.01-.27.07-.38.35-.36.42.02.83.02,1.25,0,.37-.02.59-.23.58-.6,0-.36-.21-.58-.58-.6-.22,0-.44,0-.66,0h0Zm10.5-18.17c.01-.4-.25-.61-.81-.65-.21-.02-.42-.03-.62-.08-1.66-.41-2.7-1.66-2.86-3.45-.05-.54-.25-.76-.67-.75-.38.02-.57.28-.56.8.04,2.48,2.2,4.66,4.67,4.72.54.01.84-.19.85-.59Zm.25-9.11c-.04-1.33-1.26-2.46-2.61-2.41-.36.01-.59.2-.62.57-.03.37.18.58.53.65.11.02.23.01.35.03.82.14,1.33.92,1.02,1.59-.24.53-.69.76-1.25.79-.4.03-.66.21-.66.65,0,.36.28.57.72.57,1.35,0,2.55-1.17,2.51-2.46Zm0,15.04c-.04-1.33-1.27-2.47-2.61-2.41-.35.02-.6.2-.62.58-.02.37.17.59.54.65.12.02.25.02.38.04.54.1,1,.54,1.06,1.01.07.51-.18.96-.73,1.22-.19.09-.42.13-.63.16-.4.04-.63.23-.62.64,0,.36.29.58.72.57,1.36-.01,2.55-1.17,2.51-2.46Zm8.72-10.85c-.43-.03-.64.2-.69.76-.02.18-.02.37-.06.55-.35,1.68-1.69,2.85-3.4,2.97-.59.04-.85.25-.83.66.02.4.32.59.9.57,2.44-.08,4.57-2.25,4.62-4.7.01-.52-.17-.79-.55-.81Zm-1.99-2.3c0-.43-.25-.61-.66-.65-.12,0-.23-.02-.34-.05-.48-.11-.92-.55-.98-.97-.07-.49.14-.95.61-1.18.24-.12.53-.15.79-.21.36-.08.59-.27.57-.66-.02-.37-.26-.56-.62-.57-1.35-.05-2.56,1.07-2.61,2.41-.04,1.27,1.14,2.44,2.47,2.46.47,0,.75-.2.76-.57Zm0,15.06c.04-.39-.18-.6-.66-.67-.1-.01-.21-.03-.31-.05-.56-.12-.99-.59-1.01-1.09-.02-.55.34-1.03.91-1.21.15-.05.32-.05.48-.07.39-.05.62-.3.6-.67-.02-.35-.32-.59-.7-.57-.13,0-.25.03-.38.05-1.27.2-2.24,1.33-2.15,2.51.1,1.27,1.19,2.29,2.48,2.31.44,0,.72-.19.75-.55Zm-6.19,15.23c-.27-.41-.59-.52-.93-.31-.33.2-.38.56-.12.97.6.93,1.2,1.87,1.81,2.8.37.56.91.53,1.21-.06.63-1.21,1.26-2.43,1.89-3.64.21-.41.15-.75-.19-.93-.35-.19-.68-.06-.91.36-.43.82-.85,1.64-1.28,2.47-.05.1-.11.19-.2.33-.45-.7-.87-1.34-1.29-1.99Z"/></g></svg>