<?xml version="1.0" encoding="UTF-8"?><svg id="Layer_2" xmlns="http://www.w3.org/2000/svg" viewBox="0 0 100 100"><defs><style>.cls-1{fill:#fff;stroke-width:0px;}</style></defs><g id="Layer_1-2"><path class="cls-1" d="m50,0C22.43,0,0,22.43,0,50s22.43,50,50,50,50-22.43,50-50S77.57,0,50,0Zm0,95.13c-24.88,0-45.13-20.24-45.13-45.13S25.12,4.87,50,4.87s45.13,20.24,45.13,45.13-20.24,45.13-45.13,45.13Zm2.89-47.25h-5.71c-.88-3.51-2.59-4.22-5.27-2.16-.19-.16-.41-.31-.6-.5-1.22-1.19-2.44-2.39-3.64-3.56,2.03-2.97,1.32-4.71-2.11-5.35v-5.71c3.49-.87,4.19-2.58,2.18-5.24,1.41-1.37,2.82-2.75,4.24-4.13,2.72,1.91,4.48,1.2,5.16-2.24h5.71c.84,3.54,2.5,4.22,5.24,2.19,1.38,1.4,2.76,2.81,4.14,4.23-1.95,2.7-1.22,4.49,2.23,5.16.03.41.07.85.08,1.28,0,1.48,0,2.96,0,4.41-3.58.85-4.29,2.59-2.24,5.28-.16.19-.32.41-.5.6-1.16,1.25-2.33,2.49-3.47,3.7-3.04-2.11-4.8-1.4-5.43,2.05Zm-2.93-6.17c4.58.02,8.32-3.71,8.32-8.28,0-4.51-3.66-8.22-8.16-8.27-4.59-.05-8.36,3.62-8.4,8.2-.04,4.58,3.66,8.34,8.24,8.36Zm-16.26,32.17c-.72-2.35-2.85-3.54-5.31-4.19,2.53-1.61,3.33-3.1,2.85-5.06-.45-1.83-1.89-3.08-3.73-3.23-1.72-.14-3.45.86-4.07,2.53-1.01,2.69.25,4.49,2.68,5.79-5.22,1.28-7,5.32-5.89,11.31h14.54c-.35-2.54-.39-4.94-1.06-7.14Zm43.03-9.6c-.54-1.71-2.23-2.94-4.01-2.9-1.75.03-3.3,1.18-3.86,2.86-.69,2.07.02,3.54,2.59,5.43-5.1,1.86-6.77,5.14-5.71,11.33h14.09c.86-5.95-.46-9.74-5.78-11.3,2.6-1.91,3.32-3.37,2.68-5.41Zm-20.2,9.68c-.72-2.39-2.83-3.63-5.29-4.24,3.02-2.16,3.71-4.71,1.95-6.83-1.5-1.8-4.27-2.1-5.86-.42-.73.77-1.25,1.97-1.38,3.03-.24,2.01,1.15,3.24,2.96,4.19-5.15,1.51-7.08,5.28-5.95,11.31h14.59c-.32-2.45-.35-4.84-1.01-7.03Zm-30.28-35.46h1.86v-1.92h-1.95c.03.75.06,1.33.09,1.92Zm47.45-1.9h-1.78v1.94h1.78v-1.94Zm-45.57,8.3h-1.86v1.92h1.86v-1.92Zm45.72,1.88c-.04-.71-.06-1.29-.09-1.85h-1.92v1.85h2.01Zm-45.71,6.4h-1.88v1.92h1.88v-1.92Zm43.79,0v2.02c.68-.03,1.22-.05,1.83-.08v-1.94h-1.83Zm-43.81-18.84v-1.81h-1.89v1.81h1.89Zm2.34.13c.76-.04,1.34-.07,1.89-.1v-1.86h-2c.04.75.07,1.32.11,1.96Zm39.08-1.94h-1.84v1.87h1.84v-1.87Zm2.36,1.81h1.82v-1.86h-1.82v1.86Zm-43.78,8.3v-1.83h-1.89v1.83h1.89Zm45.61-1.83h-1.84v1.87h1.84v-1.87Zm-47.45,8.28v1.83h1.89v-1.83h-1.89Zm45.62,1.82h1.82v-1.86h-1.82v1.86Zm-21.01.21h-1.81v1.89h1.81v-1.89Zm.03,4.2h-1.83v1.89h1.83v-1.89Zm-2.84-25.9v8.06c2.06-1.37,3.92-2.61,6.06-4.03-2.13-1.41-4.02-2.67-6.06-4.02Z"/></g></svg>