<?xml version="1.0" encoding="UTF-8"?><svg id="Layer_2" xmlns="http://www.w3.org/2000/svg" viewBox="0 0 100 100"><defs><style>.cls-1{fill:#fff;stroke-width:0px;}</style></defs><g id="Layer_1-2"><path class="cls-1" d="m50,0C22.43,0,0,22.43,0,50s22.43,50,50,50,50-22.43,50-50S77.57,0,50,0Zm0,95.13c-24.88,0-45.13-20.24-45.13-45.13S25.12,4.87,50,4.87s45.13,20.24,45.13,45.13-20.24,45.13-45.13,45.13Z"/><g id="pCJiwj"><path class="cls-1" d="m14.04,65.64c1.6-1.55,3.2-3.09,4.79-4.64,1.8-1.75,4.06-1.84,5.9-.15,1.4,1.28,2.71,2.65,4.07,3.98,3.29,3.24,6.53,6.52,9.88,9.69,1.68,1.59,1.69,4.21.11,5.85-1.45,1.5-2.95,2.94-4.45,4.39-.81.78-1.35.75-2.17-.06-6.04-5.98-12.09-11.96-18.13-17.94,0-.38,0-.75,0-1.13Zm7.72-3.57c-.48.05-.89.24-1.24.59-.97.99-1.93,1.99-2.94,2.92-.51.47-.55.76-.02,1.27,2.22,2.12,4.39,4.29,6.57,6.44,2.88,2.85,5.76,5.7,8.64,8.55.25.24.43.56.84.15,1.14-1.14,2.33-2.24,3.47-3.39.68-.68.67-1.56.01-2.26-.29-.31-.61-.58-.91-.87-4.34-4.24-8.68-8.48-13.01-12.72-.4-.39-.84-.66-1.41-.68Z"/><path class="cls-1" d="m52.58,71.36c2.93,0,5.86,0,8.79,0,2.2,0,4.16-.62,5.94-1.98,6.43-4.9,11.52-10.96,15.6-17.9.06-.1.1-.21.17-.31,1.04-1.39.7-2.54-1.29-3.03-2.47-.6-5.08.43-6.18,2.74-1.39,2.89-3.51,4.92-6.42,6.19-.69.3-1.34.66-2.03.96-.42.18-.58.38-.53.89.33,2.89-1.92,5.45-4.84,5.47-4.83.04-9.65.01-14.48,0-.9,0-1.46-.46-1.49-1.16-.03-.69.59-1.23,1.48-1.28.23-.01.47,0,.7,0,4.36,0,8.72,0,13.08,0,.26,0,.52,0,.77,0,1.29-.06,2.23-1.02,2.25-2.31.02-1.26-.86-2.24-2.18-2.27-2.41-.05-4.83-.02-7.24-.03-1.6,0-3.18-.17-4.68-.8-.98-.41-1.89-.92-2.67-1.66-1.07-1-2.4-1.37-3.81-1.4-2.13-.04-4.26-.1-6.39.05-1.87.13-3.41.91-4.74,2.19-1.22,1.17-2.44,2.33-3.67,3.49-.19.18-.38.36-.59.49-.55.32-1.2.21-1.59-.26-.41-.5-.48-1.13-.03-1.54,2.34-2.16,4.3-4.8,7.34-6.13,1.17-.51,2.4-.8,3.68-.8,1.92,0,3.84,0,5.76,0,2.1,0,4.05.57,5.74,1.8,1.76,1.28,3.67,1.84,5.85,1.78,2.41-.06,4.83-.12,7.24.05,1.06.07,2.01.46,2.82,1.14.3.25.55.26.89.1,1.31-.62,2.59-1.31,3.87-2,1.31-.7,2.26-1.7,2.93-3.02.65-1.27,1.3-2.55,2.46-3.47,2.58-2.04,5.42-2.46,8.45-1.23,2.32.95,3.06,3.36,1.83,5.53-3.25,5.72-7.17,10.93-11.95,15.46-1.69,1.6-3.47,3.07-5.33,4.47-2.06,1.54-4.42,2.07-6.94,2.07-5.48,0-10.97,0-16.45,0-.91,0-1.82-.02-2.67.43-.39.2-.79.03-1.08-.3-.35-.4-.48-.86-.24-1.37.2-.43.54-.69,1.01-.8.8-.19,1.61-.27,2.44-.27,2.81,0,5.62,0,8.44,0Z"/><path class="cls-1" d="m67.3,47.27c0-.09,0-.12,0-.14.26-1.44.73-2.81,1.6-3.99.52-.7,1.31-1.03,2.18-1.17,1.13-.18,2.27-.35,3.4-.55.83-.15,1.12-.5,1.13-1.34,0-.66,0-1.31,0-1.97-.01-.81-.27-1.13-1.09-1.28-1.1-.2-2.22-.35-3.32-.55-1.5-.27-2.57-1.06-3.07-2.56-.14-.42-.36-.81-.53-1.23-.52-1.3-.38-2.52.46-3.65.67-.9,1.35-1.8,2.01-2.71.54-.75.49-1.2-.19-1.84-.46-.43-.93-.86-1.39-1.29-.66-.6-1.07-.64-1.81-.11-.92.65-1.82,1.33-2.73,1.98-1.12.8-2.32.95-3.59.4-.54-.23-1.08-.45-1.62-.68-1.2-.53-1.96-1.4-2.14-2.74-.15-1.11-.35-2.22-.54-3.33-.14-.83-.44-1.1-1.26-1.12-.75-.01-1.5,0-2.25,0-.63,0-.99.3-1.08.96-.16,1.16-.37,2.31-.54,3.47-.21,1.36-.92,2.33-2.18,2.89-.6.26-1.21.51-1.82.74-1.16.44-2.26.28-3.27-.43-.94-.66-1.85-1.35-2.79-2.02-.78-.55-1.18-.51-1.85.14-.49.47-.96.96-1.44,1.44-.48.47-.5.97-.1,1.5.67.9,1.32,1.82,2.01,2.71.97,1.25,1.12,2.59.47,4.02-.13.3-.27.6-.36.91-.52,1.7-1.7,2.57-3.42,2.8-.97.13-1.94.29-2.91.44-.91.15-1.2.47-1.21,1.41,0,.63-.01,1.27,0,1.9.02.89.3,1.22,1.18,1.36.95.16,1.89.31,2.84.44,1.74.23,2.96,1.08,3.52,2.8.13.4.33.77.5,1.16.27.66.41,1.35.21,2.06-.18.64-.64.89-1.29.83-.62-.06-1.06-.41-1.06-1.02,0-.94-.42-1.71-.76-2.53-.21-.5-.58-.76-1.11-.85-1.11-.17-2.22-.35-3.33-.54-1.84-.31-2.98-1.64-3-3.51,0-.8,0-1.59,0-2.39,0-1.95,1.21-3.39,3.14-3.73.97-.17,1.94-.32,2.91-.45.73-.1,1.14-.47,1.52-1.15.75-1.36.59-2.44-.5-3.5-.48-.47-.85-1.06-1.25-1.61-1.14-1.55-1.05-3.35.27-4.74.71-.75,1.43-1.49,2.16-2.21,1.01-.99,2.5-1.08,3.74-.22.96.67,1.91,1.36,2.84,2.07.58.44,1.17.52,1.83.21,1.98-.93,1.85-.31,2.21-2.91.09-.65.19-1.3.29-1.94.31-1.87,1.36-2.95,3.22-3.19,1.11-.14,2.25-.16,3.36.02,1.67.26,2.68,1.29,3.04,2.91.24,1.09.39,2.21.55,3.32.09.62.44.93.97,1.25,1.43.85,2.65.75,3.83-.45.45-.46,1.04-.79,1.58-1.17,1.54-1.09,3.31-1.01,4.71.24.68.61,1.33,1.26,1.94,1.94,1.2,1.33,1.3,3.03.26,4.52-.66.94-1.35,1.86-2.04,2.77-.39.51-.4.99-.2,1.63.44,1.46,1.27,2.25,2.85,2.24.67,0,1.34.18,2.01.3,1.86.33,2.88,1.4,3.12,3.28.13,1,.12,2.01,0,3.01-.24,1.98-1.51,3.2-3.5,3.42-.93.1-1.86.21-2.79.31-.64.07-1.01.39-1.32.98-.67,1.24-.83,2.34.18,3.52.49.58.21,1.34-.42,1.76-.53.36-1.07.24-1.58-.4-.71-.88-1.45-1.75-1.38-2.91Z"/><path class="cls-1" d="m53.82,27.49c6.55,0,11.88,5.25,11.86,11.67-.02,6.37-5.43,11.63-11.95,11.62-6.57,0-11.89-5.26-11.86-11.74.02-6.42,5.35-11.56,11.96-11.55Zm-.12,20.86c5.22.03,9.34-4.02,9.42-9.14.08-4.54-3.52-9.31-9.33-9.34-5.65-.03-9.42,4.58-9.38,9.2.04,5.16,4.08,9.25,9.28,9.27Z"/></g></g></svg>