<?xml version="1.0" encoding="UTF-8"?><svg id="Layer_2" xmlns="http://www.w3.org/2000/svg" viewBox="0 0 100 100"><defs><style>.cls-1{fill:#fff;stroke-width:0px;}</style></defs><g id="Layer_1-2"><path class="cls-1" d="m50,0C22.43,0,0,22.43,0,50s22.43,50,50,50,50-22.43,50-50S77.57,0,50,0Zm0,95.13c-24.88,0-45.13-20.24-45.13-45.13S25.12,4.87,50,4.87s45.13,20.24,45.13,45.13-20.24,45.13-45.13,45.13Zm-6.38-54.74c1.04-2.32,1.47-4.45.85-6.67-1.06-3.87-2.21-7.72-3.31-11.57-.1-.36-.24-.73-.3-1.1-.19-1.2.08-2.19,1.4-2.55,1.29-.35,2.09.22,2.52,1.42,1.31,3.68,2.6,7.36,3.95,11.03.18.49.62.89.94,1.33.24-.54.7-1.08.7-1.62,0-4.29-.06-8.58-.12-12.87-.02-1.11.18-2.05,1.32-2.55,1.29-.56,2.46-.12,2.86,1.21.23.77.3,1.6.32,2.41.09,3.96.13,7.93.2,11.89.01.58.1,1.15.15,1.73.14.04.27.08.41.12.24-.46.56-.9.71-1.39,1.09-3.75,2.14-7.51,3.22-11.26.16-.57.29-1.27.69-1.61.52-.44,1.33-.85,1.94-.76.48.07,1.09.89,1.18,1.45.16.93.08,1.96-.13,2.9-.79,3.6-1.68,7.18-2.52,10.77-.13.56-.19,1.13.02,1.83.26-.3.55-.57.76-.9,1.57-2.41,3.12-4.84,4.69-7.25.32-.5.61-1.15,1.09-1.39.65-.33,1.58-.61,2.18-.37.44.18.82,1.25.74,1.85-.12.93-.59,1.85-1.04,2.71-.94,1.77-1.87,3.57-2.99,5.22-1.5,2.21-2.01,4.6-2.03,7.22-.04,4.3-1.09,8.26-4.27,11.43-.34.34-.38,1.09-.36,1.64.29,8.9.62,17.8.93,26.7.03.75,0,1.51,0,2.36-4.6,1.1-9.2,1.56-13.78,1.03,0-3.81-.06-7.49.01-11.16.14-6.57.34-13.14.57-19.71.03-.93-.21-1.52-1.05-1.95-3.19-1.63-5.21-4.27-6.66-7.51-1.35-3.03-3.45-5.48-6.39-7.18-.58-.33-.82-1.24-1.21-1.89.74-.44,1.49-1.26,2.22-1.25,3.04.05,5.49,1.53,7.52,3.71.66.71,1.23,1.49,2.09,2.54Zm3.14-.82c2.87,1.05,5.11,2.78,6.34,5.68-.25-3.16-2.8-5.42-6.34-5.68Zm-10.62,42.61c-.87-5.62-1.75-11.24-2.58-16.87-.08-.58-.02-1.33.29-1.78,1.21-1.79,1.8-3.8,1.55-5.87-.32-2.66.24-5.02,1.39-7.36.52-1.06.86-2.22,1.13-3.37.08-.35-.29-1.12-.54-1.15-.43-.06-1.03.18-1.37.49-.37.35-.54.92-.79,1.41-.76,1.52-1.52,3.05-2.27,4.57-.26-1.1-.16-2.09-.08-3.09.17-1.94.39-3.89.45-5.83.01-.44-.57-.89-.88-1.34-.45.38-1.09.67-1.31,1.15-.3.67-.29,1.48-.41,2.23-.34,2.03-.68,4.07-1.02,6.1-.14,0-.28-.01-.41-.02-.07-.28-.17-.57-.21-.85-.36-2.52-.68-5.06-1.08-7.57-.14-.89-.29-2.02-1.58-1.86-1.32.16-1.32,1.22-1.17,2.26.31,2.26.63,4.51.92,6.77.07.52,0,1.07,0,1.6-.16.03-.33.07-.49.1-.25-.45-.51-.89-.74-1.35-.9-1.79-1.8-3.59-2.67-5.4-.42-.86-1.01-1.67-1.94-1.01-.41.29-.55,1.46-.34,2.06.81,2.24,1.82,4.41,2.74,6.61.57,1.38.72,2.77.02,4.34-.49-.45-.82-.93-1.28-1.14-1.55-.69-3.12-1.36-4.74-1.85-.36-.11-.94.5-1.42.78.31.43.57.93.95,1.29,1.46,1.4,2.96,2.77,4.46,4.14,1.34,1.22,2.72,2.39,4.03,3.64.48.46,1.07,1.08,1.14,1.67.41,3.5.64,7.03,1.02,10.53.08.73.37,1.75.9,2.07,2.58,1.55,5.28,2.91,7.94,4.34.13-.15.25-.29.38-.44Zm32.44-24.73c-.34-.47-.59-1.06-1.04-1.38-1.24-.92-2.51-1.81-3.87-2.53-.33-.18-1.02.31-1.55.49.21.45.38.93.65,1.33,1.08,1.59,2.19,3.16,3.29,4.73.98,1.39,2.01,2.76,2.94,4.18.38.57.84,1.28.79,1.89-.15,2.16-.52,4.31-.79,6.46-.34,2.71-.67,5.41-1,8.12.14.11.27.21.41.32,2.34-1.53,4.72-3.01,7-4.62.52-.37.91-1.19.98-1.84.27-2.48.35-4.98.59-7.47.05-.52.44-1.02.7-1.52.86-1.71,2.12-3.34,2.51-5.16.48-2.23,1.09-4.25,2.56-6.02.72-.87,1.35-1.84,1.85-2.86.21-.42-.05-1.07-.09-1.61-.57.16-1.2.21-1.69.5-.44.27-.7.81-1.04,1.23-.93,1.16-1.87,2.32-2.8,3.48-.06-.86.15-1.57.38-2.27.62-1.9,1.33-3.79,1.83-5.72.13-.51-.39-1.19-.61-1.78-.51.38-1.27.66-1.5,1.17-.89,1.97-1.61,4.03-2.41,6.04-.16.39-.41.74-.61,1.11-.13-2.78.1-5.42.28-8.06.06-.91.21-2.05-1.07-2.18-1.34-.13-1.47.94-1.54,1.99-.16,2.27-.37,4.54-.6,6.81-.03.35-.23.68-.36,1.02-.99-2.33-1.58-4.62-2.15-6.91-.21-.83-.41-1.68-1.53-1.47-1.16.22-.98,1.15-.85,1.95.36,2.08.91,4.14,1.13,6.24.15,1.41-.14,2.88-.24,4.32-.19,0-.38.01-.57.02Z"/></g></svg>