<?xml version="1.0" encoding="UTF-8"?><svg id="Layer_2" xmlns="http://www.w3.org/2000/svg" viewBox="0 0 100 100"><defs><style>.cls-1{fill:#fff;stroke-width:0px;}</style></defs><g id="Layer_1-2"><path class="cls-1" d="m50,0C22.43,0,0,22.43,0,50s22.43,50,50,50,50-22.43,50-50S77.57,0,50,0Zm0,95.13c-24.88,0-45.13-20.24-45.13-45.13S25.12,4.87,50,4.87s45.13,20.24,45.13,45.13-20.24,45.13-45.13,45.13Zm.84-33.87c0-6.79,0-13.58,0-20.37,0-.12.04-.25,0-.35-.19-.46-.4-.9-.6-1.36-.41.23-.9.39-1.21.72-.64.67-1.22,1.41-1.75,2.16-1.03,1.45-2.44,2.12-4.18,2.13-3,.02-6,.04-9,0-1.94-.02-2.97-.8-3.09-2.25-.14-1.62.6-2.59,2.23-2.7,1.6-.11,3.2-.06,4.8-.07,1.37,0,2.74.06,4.11-.03.5-.04,1.13-.33,1.43-.71,1.84-2.32,3.6-4.7,5.39-7.06,1.58-2.08,3.73-3.11,6.31-3.18,2.01-.06,4.02.02,6.03-.04.87-.03,2.21,0,2.35.08,1.27.14,1.85.28,2.74.49,1.91.44,3.36,1.62,4.28,3.4.89,1.71.99,3.59,1.01,5.45.05,4.75.02,9.5,0,14.25,0,.67-.07,1.34-.18,2-.18,1.07-1.04,1.79-2.13,1.87-.96.07-1.96-.59-2.24-1.58-.16-.55-.25-1.14-.25-1.71-.02-3.79-.01-7.58-.02-11.36,0-.38.07-.82-.1-1.11-.18-.31-.61-.64-.94-.66-.25-.01-.64.42-.75.73-.14.39-.07.86-.07,1.3,0,13.31,0,26.63,0,39.94,0,.43.02.89-.09,1.3-.56,2.19-3.41,3.2-5.27,1.88-1.09-.77-1.2-1.94-1.2-3.12-.01-7.69,0-15.38,0-23.07,0-.35.03-.71-.07-1.04-.06-.2-.32-.48-.49-.48-.18,0-.46.25-.53.45-.11.32-.09.69-.09,1.03,0,7.95,0,15.91,0,23.86,0,1.64-.84,2.53-2.59,2.83-1.75.3-3.16-.36-3.63-1.8-.18-.56-.18-1.2-.18-1.81-.01-6.67,0-13.34,0-20.02Zm-1.92-18.4c0-.27-.13-.54-.2-.8-.22.1-.54.14-.65.31-1.43,2.23-3.61,2.72-6.04,2.7-1.98-.02-3.96,0-5.94,0-1.36,0-1.38.02-1.38,1.35,0,11.21,0,22.43,0,33.64,0,.7-.02,1.4.02,2.1.08,1.31.84,2.3,1.96,2.59,2.47.64,4.63-.39,4.6-3.49-.09-7.78-.04-15.55,0-23.33,0-.38.37-.77.56-1.15.22.38.62.75.64,1.14.08,1.42.03,2.85.03,4.28,0,6.67,0,13.34,0,20.01,0,.99.4,1.83,1.21,2.26,1.27.67,2.67.7,3.94-.02,1.09-.61,1.26-1.73,1.25-2.89-.01-6.38,0-12.76,0-19.13,0-6.52,0-13.05,0-19.57Zm-20.6.98c0,3.38-.03,6.75.02,10.13.02,1.08.93,1.78,2.07,1.8,1.16.02,2.12-.64,2.17-1.68.15-2.78.24-5.57.28-8.35,0-.33-.34-.83-.66-.98-1.67-.83-2.32-2.11-1.94-4.01.29-1.44,1.46-2.31,3.24-2.33,2.62-.03,5.24-.06,7.86,0,.93.02,1.56-.28,2.06-1,.18-.26.38-.5.58-.75,1.97-2.47,3.93-4.94,5.91-7.4.42-.52,0-.63-.32-.68-.83-.14-1.67-.29-2.51-.3-3.17-.03-6.35-.05-9.52,0-1.36.02-2.74.12-4.07.4-3.22.67-4.85,2.74-5.1,5.9-.24,3.07-.05,6.17-.05,9.25,0,0-.02,0-.03,0Zm35.43-22.95c0-3.3-2.7-5.92-5.82-5.88-3.11.04-5.73,2.57-5.73,5.88,0,2.78,2.66,5.89,5.77,5.6,3.15.33,5.77-2.9,5.78-5.6Zm-27.63-.02c0,3.05,2.57,5.88,5.89,5.82,3.17-.06,5.64-2.76,5.69-5.78.04-2.64-2.49-6-5.82-5.61-3.4-.32-5.76,3.04-5.76,5.57Z"/></g></svg>